<?xml version="1.0" encoding="UTF-8" standalone="no"?>
<!-- Created with Inkscape (http://www.inkscape.org/) -->

<svg
   xmlns:dc="http://purl.org/dc/elements/1.1/"
   xmlns:cc="http://creativecommons.org/ns#"
   xmlns:rdf="http://www.w3.org/1999/02/22-rdf-syntax-ns#"
   xmlns:svg="http://www.w3.org/2000/svg"
   xmlns="http://www.w3.org/2000/svg"
   xmlns:sodipodi="http://sodipodi.sourceforge.net/DTD/sodipodi-0.dtd"
   xmlns:inkscape="http://www.inkscape.org/namespaces/inkscape"
   width="9.0714703mm"
   height="9.0714645mm"
   viewBox="0 0 9.0714703 9.0714646"
   version="1.1"
   id="svg2204"
   inkscape:version="0.92.5 (2060ec1f9f, 2020-04-08)"
   sodipodi:docname="favicon.svg">
  <defs
     id="defs2198" />
  <sodipodi:namedview
     id="base"
     pagecolor="#ffffff"
     bordercolor="#666666"
     borderopacity="1.0"
     inkscape:pageopacity="0.0"
     inkscape:pageshadow="2"
     inkscape:zoom="11.2"
     inkscape:cx="20.701653"
     inkscape:cy="8.230701"
     inkscape:document-units="mm"
     inkscape:current-layer="layer1"
     showgrid="false"
     inkscape:window-width="1920"
     inkscape:window-height="964"
     inkscape:window-x="0"
     inkscape:window-y="27"
     inkscape:window-maximized="1" />
  <metadata
     id="metadata2201">
    <rdf:RDF>
      <cc:Work
         rdf:about="">
        <dc:format>image/svg+xml</dc:format>
        <dc:type
           rdf:resource="http://purl.org/dc/dcmitype/StillImage" />
        <dc:title></dc:title>
      </cc:Work>
    </rdf:RDF>
  </metadata>
  <g
     inkscape:label="Layer 1"
     inkscape:groupmode="layer"
     id="layer1"
     transform="translate(132.29169,46.958354)">
    <g
       transform="matrix(0.09022213,0,0,0.09022213,-95.393327,-45.517829)"
       id="g2196">
      <circle
         r="46.869045"
         cy="34.306545"
         cx="-358.69937"
         id="path1317"
         style="opacity:0.97000002;fill:#563d7c;fill-opacity:1;stroke:none;stroke-width:0.26499999;stroke-miterlimit:4;stroke-dasharray:0.26499998, 0.52999997;stroke-dashoffset:0;stroke-opacity:1" />
      <path
         inkscape:connector-curvature="0"
         id="path2188"
         transform="scale(0.26458333)"
         d="m -1355.7148,-47.480469 a 177.14285,177.14285 0 0 0 -177.1426,177.142579 177.14285,177.14285 0 0 0 35.6894,106.34766 238.90108,238.90108 0 0 0 40.0235,3.63671 238.90108,238.90108 0 0 0 238.08,-222.501949 177.14285,177.14285 0 0 0 -136.6503,-64.625 z"
         style="opacity:0.97000002;fill:#483368;fill-opacity:1;stroke:none;stroke-width:1.00157475;stroke-miterlimit:4;stroke-dasharray:1.00157473, 2.00314949;stroke-dashoffset:0;stroke-opacity:1" />
      <path
         inkscape:connector-curvature="0"
         id="path4"
         d="m -335.48629,4.4403672 c -0.31161,-0.0094 -0.60342,-0.0045 -0.85612,0.01767 -2.13695,0.186086 -5.2614,0.800834 -7.23722,1.423895 l -0.86819,0.273997 0.86819,-0.07813 c 1.61864,-0.146203 3.70076,-0.08831 4.63262,0.129849 1.93696,0.453254 3.51529,1.41936 4.40265,2.692638 1.28105,1.8391518 1.23173,4.9537648 -0.12329,7.7026908 -0.43212,0.876646 -1.63398,2.748127 -2.76416,4.305806 -0.31324,0.432124 -0.46138,0.725305 -0.37854,0.751558 0.075,0.02366 0.13649,0.09444 0.13649,0.157361 0,0.07687 -0.0498,0.07536 -0.15076,-0.0045 -0.11541,-0.09095 -0.26971,0.02811 -0.66353,0.509474 -0.74705,0.912592 -2.2756,2.636268 -2.8852,3.252737 -0.28959,0.293078 -0.51222,0.581966 -0.49518,0.641525 0.017,0.05958 -0.0128,0.08128 -0.066,0.04951 -0.14076,-0.08254 -1.66963,1.410452 -1.56145,1.524033 0.0502,0.05183 0.0343,0.06358 -0.0351,0.0264 -0.1448,-0.07853 -3.13228,2.319122 -3.08437,2.475865 0.017,0.05747 -0.0192,0.07515 -0.0813,0.03852 -0.10263,-0.06035 -1.99383,1.183565 -2.06432,1.357875 -0.017,0.0405 0.27463,0.359598 0.64703,0.709748 l 0.67674,0.637122 1.35017,-0.951832 c 0.77241,-0.54413 1.31879,-1.002478 1.27535,-1.069574 -0.0451,-0.06857 -0.0222,-0.08473 0.0549,-0.03961 0.1284,0.07566 1.12726,-0.650454 2.91492,-2.119342 0.47776,-0.392463 1.86518,-1.66652 3.08437,-2.831288 l 2.21726,-2.11714 1.27534,-0.03852 c 0.70146,-0.02065 1.22303,-0.0066 1.15872,0.03081 -0.0643,0.03752 0.0722,0.101869 0.30261,0.143051 0.23044,0.04112 0.75354,0.240973 1.162,0.443455 0.40845,0.202482 0.78081,0.336094 0.82638,0.297105 0.0456,-0.03897 0.0505,-0.01682 0.0106,0.04951 -0.04,0.06641 0.0777,0.257045 0.26078,0.423647 0.18249,0.166602 0.47941,0.608036 0.65915,0.980443 0.28668,0.592749 0.32433,0.800946 0.31581,1.668183 -0.0128,1.14747 -0.39809,2.411813 -1.04318,3.430997 -0.21294,0.335673 -0.3536,0.661784 -0.31251,0.725154 0.0417,0.06333 0.0262,0.08654 -0.033,0.05172 -0.0592,-0.03482 -0.30785,0.232534 -0.55349,0.593107 -0.44566,0.654444 -0.48944,0.925777 -0.10136,0.636022 0.18249,-0.136109 0.19015,-0.133597 0.0628,0.02202 -0.0792,0.0964 -0.10562,0.211489 -0.0583,0.256389 0.0473,0.04485 0.009,0.06535 -0.0879,0.04512 -0.0952,-0.02023 -0.20634,-0.07953 -0.2465,-0.132043 -0.04,-0.05255 -0.29675,0.194966 -0.56999,0.550194 -0.27324,0.35522 -0.91833,1.111256 -1.4327,1.680287 -0.5144,0.56903 -0.92264,1.076064 -0.9056,1.127893 0.0149,0.05179 -0.0149,0.08224 -0.0694,0.06712 -0.0534,-0.01512 -0.64241,0.430329 -1.30835,0.990346 -1.26877,1.067635 -3.21482,2.50317 -3.65878,2.699242 -0.14352,0.06311 -0.25972,0.144414 -0.25859,0.180465 0.004,0.147608 0.52613,0.932697 0.61622,0.926522 0.25071,-0.01682 2.62396,-1.707951 2.55178,-1.818934 -0.0479,-0.07325 -0.027,-0.09133 0.0517,-0.04512 0.17078,0.100273 2.01341,-1.346517 1.91248,-1.502026 -0.0456,-0.06984 -0.0213,-0.08366 0.0615,-0.03522 0.0852,0.05015 0.747,-0.49218 1.76169,-1.441503 l 1.62527,-1.519632 0.66464,0.0077 c 0.86086,0.01129 1.83522,0.425355 2.2668,0.962837 0.42032,0.524522 0.52257,1.458663 0.24537,2.252487 -0.2123,0.607342 -1.29524,2.320781 -1.76172,2.787273 -0.15885,0.159448 -0.30316,0.381933 -0.32021,0.495173 -0.017,0.11324 -0.10519,0.208508 -0.19484,0.211277 -0.0897,0.0028 -0.14565,0.07717 -0.12436,0.165047 0.0215,0.08788 10e-4,0.124271 -0.0451,0.08032 -0.0468,-0.0445 -0.40779,0.207444 -0.80328,0.558995 -1.44457,1.284545 -2.94322,2.241932 -4.69314,2.997447 -0.85465,0.369026 -0.86979,0.382028 -0.75927,0.678938 h 10e-4 c 0.13522,0.363394 0.17312,0.366235 0.79558,0.06933 1.86146,-0.889039 4.9121,-2.935744 5.64056,-3.78422 0.16269,-0.189877 0.15353,-0.19701 -0.15289,-0.124334 -0.28001,0.06648 -0.30633,0.05432 -0.17503,-0.08032 0.1054,-0.108173 0.21587,-0.126507 0.35322,-0.05722 0.15949,0.08055 0.33374,-0.03326 0.85939,-0.562297 1.74654,-1.756109 3.05137,-3.991858 3.05137,-5.226824 0,-0.538608 -0.0937,-0.854673 -0.22997,-0.774672 -0.0496,0.0293 -0.0833,-0.03168 -0.0747,-0.135343 0.009,-0.10368 -0.0626,-0.192006 -0.15843,-0.194774 -0.0952,-0.0028 -0.15906,-0.08411 -0.14202,-0.181572 0.0192,-0.110429 -0.1333,-0.251771 -0.40605,-0.378532 -0.54764,-0.254009 -1.98437,-0.25785 -2.97764,-0.0077 -0.37973,0.09578 -0.71242,0.152996 -0.73946,0.127635 -0.0264,-0.02536 0.15757,-0.283152 0.40824,-0.573302 1.21477,-1.403364 1.57687,-1.92381 1.4129,-2.029108 -0.12265,-0.07866 -0.10583,-0.09603 0.0705,-0.07153 0.15991,0.02221 0.22633,-0.02721 0.21568,-0.159554 -0.009,-0.105319 0.0275,-0.165708 0.0792,-0.135343 0.0518,0.03043 0.36097,-0.365927 0.68775,-0.880309 1.38539,-2.180176 2.05159,-4.024482 1.93447,-5.351169 -0.0801,-0.907351 -0.28006,-1.37668 -0.84289,-1.968586 -1.20848,-1.272094 -3.33062,-1.503606 -6.69803,-0.729555 -0.60902,0.139878 -1.107,0.236486 -1.107,0.214574 0,-0.02191 0.4707,-0.596512 1.04646,-1.277545 1.44738,-1.712614 3.05729,-3.988174 2.94465,-4.161654 -0.0573,-0.08811 -0.0437,-0.110834 0.0385,-0.06273 0.0754,0.04433 0.20868,-0.07316 0.32132,-0.285 0.10583,-0.198755 0.26002,-0.436266 0.34221,-0.527081 0.28453,-0.314094 1.76547,-3.25037 2.07533,-4.114339 0.84573,-2.356915 0.84881,-4.3205138 0.009,-5.8969548 -0.33242,-0.623342 -0.79883,-1.139779 -0.92212,-1.022261 -0.0469,0.04444 -0.0686,0.0089 -0.0473,-0.07923 0.0586,-0.243388 -1.24828,-1.030909 -2.16774,-1.305057 -0.79185,-0.23612 -1.90751,-0.395572 -2.84229,-0.423648 z m -16.8656,6.0224018 c -0.17269,0.0016 -0.38115,0.0096 -0.64481,0.022 -0.89187,0.04191 -1.38816,0.128167 -2.04563,0.357628 -4.91001,1.71267 -9.46491,5.984393 -9.70098,9.099077 -0.0302,0.40328 -0.0213,0.912596 0.023,1.131193 0.13585,0.68954 0.95984,1.401077 1.86184,1.609862 0.99497,0.23026 2.64792,-0.01256 4.18147,-0.615112 4.71846,-1.853181 8.82014,-6.406248 8.58519,-9.529332 -0.0722,-0.959683 -0.42273,-1.508989 -1.18951,-1.861845 -0.36085,-0.166198 -0.55264,-0.218306 -1.07067,-0.213476 z m -34.6511,6.293095 c -0.35239,0.03433 -0.0128,0.318721 0.8572,1.1411 4.44577,4.206487 6.17521,9.029018 5.28956,14.750651 -0.26368,1.703654 -0.43635,2.389287 -1.06848,4.228776 -1.54708,4.50154 -4.49781,9.496888 -8.70075,14.730845 -0.50198,0.624805 -0.88831,1.160215 -0.8572,1.189515 0.0149,0.01469 0.25599,-0.0098 0.63055,-0.06052 0.37449,-0.0507 0.88329,-0.128252 1.43599,-0.220077 7.52303,-1.246233 15.9548,-2.222512 23.54712,-2.726752 4.17479,-0.276627 13.23535,-0.276627 16.38361,0 3.72068,0.327334 6.40024,0.763472 8.91863,1.452508 1.41524,0.387054 3.42009,1.099186 4.16603,1.478915 0.2231,0.113815 0.41998,0.191282 0.44127,0.172757 0.098,-0.09126 -1.84103,-5.48275 -2.04671,-5.690087 -0.0405,-0.04112 -0.43797,0.07332 -0.88363,0.255289 -1.53187,0.624243 -2.68556,0.894188 -3.87884,0.907816 -1.00792,0.01129 -1.14635,-0.0132 -1.65059,-0.294902 -1.15384,-0.645089 -1.29798,-1.666226 -0.49627,-3.510227 0.0558,-0.127337 -0.48977,0.06625 -1.7529,0.620619 -2.17922,0.956648 -4.4674,1.728693 -6.09392,2.057718 -1.6547,0.334758 -3.68806,0.336805 -4.64583,0.0045 -1.33075,-0.461986 -2.07944,-1.192413 -2.44397,-2.383433 -0.35662,-1.16623 6.9e-4,-2.753733 1.05087,-4.677733 0.27942,-0.511565 0.49468,-0.942642 0.47977,-0.957334 -0.0149,-0.01469 -0.59774,0.22175 -1.29293,0.525985 -2.4418,1.0682 -5.22001,2.032427 -7.41331,2.571597 -5.10326,1.254122 -9.04724,0.88411 -11.06987,-1.038764 -2.64457,-2.514438 -2.03168,-6.66071 1.81014,-12.241774 0.54593,-0.792248 1.02195,-1.412156 1.05858,-1.377681 0.036,0.03447 -0.0994,0.438689 -0.30042,0.897914 -1.14341,2.610867 -1.39787,4.757491 -0.76695,6.426245 0.07,0.185404 0.15118,0.364491 0.24317,0.538088 0.55176,1.041575 1.49703,1.87015 2.8346,2.481365 0.60285,0.275501 1.51373,0.591097 2.02361,0.699844 1.21694,0.260815 3.73735,0.257606 5.26754,-0.0055 4.68464,-0.806219 9.92439,-2.838855 14.94652,-5.800124 2.24399,-1.323363 2.178,-1.059816 0.58979,-2.382332 -8.59068,-7.154463 -20.26129,-11.670072 -35.19469,-13.618355 -0.74451,-0.09714 -1.20584,-0.166942 -1.41729,-0.146351 z m 39.49609,16.457348 -1.94438,1.213724 c -2.07162,1.292941 -5.1623,3.009889 -6.99954,3.887659 l -1.1191,0.534786 -0.18376,0.769168 c -0.10093,0.422548 -0.18377,1.135015 -0.18377,1.582352 0,0.690162 0.0545,0.917915 0.35874,1.496524 0.57184,1.087356 1.87655,1.854428 3.57294,2.100633 1.82934,0.26536 4.83391,-0.347624 8.05261,-1.642873 1.26595,-0.50931 3.83134,-1.795801 4.286,-2.149051 l 0.2861,-0.222277 -0.64703,-0.979344 c -1.32511,-2.006255 -4.04366,-5.328167 -5.18059,-6.328308 z m 6.8576,8.906512 c -0.13798,-0.0053 -0.41525,0.135343 -1.03766,0.505074 -0.56339,0.334657 -1.34698,0.775937 -1.74192,0.980443 -0.75944,0.39325 -0.84186,0.516828 -0.84399,1.283047 -0.002,0.873827 0.60295,1.597767 1.59226,1.902565 0.5465,0.167902 2.44177,0.03548 3.35617,-0.234382 0.46196,-0.136344 0.83959,-0.304841 0.83959,-0.374131 0,-0.124504 -1.84738,-3.713399 -2.06541,-4.011999 -0.0226,-0.03128 -0.053,-0.0488 -0.099,-0.05061 z"
         style="fill:#ffffff;stroke-width:0.56339669" />
    </g>
  </g>
</svg>
