<?xml version="1.0" encoding="UTF-8" standalone="no"?>
<!-- Created with Inkscape (http://www.inkscape.org/) -->

<svg
   xmlns:dc="http://purl.org/dc/elements/1.1/"
   xmlns:cc="http://creativecommons.org/ns#"
   xmlns:rdf="http://www.w3.org/1999/02/22-rdf-syntax-ns#"
   xmlns:svg="http://www.w3.org/2000/svg"
   xmlns="http://www.w3.org/2000/svg"
   xmlns:sodipodi="http://sodipodi.sourceforge.net/DTD/sodipodi-0.dtd"
   xmlns:inkscape="http://www.inkscape.org/namespaces/inkscape"
   width="9.0714703mm"
   height="9.0714645mm"
   viewBox="0 0 9.0714703 9.0714646"
   version="1.1"
   id="svg2204"
   inkscape:version="0.92.5 (2060ec1f9f, 2020-04-08)"
   sodipodi:docname="favicon.svg">
  <defs
     id="defs2198" />
  <sodipodi:namedview
     id="base"
     pagecolor="#ffffff"
     bordercolor="#666666"
     borderopacity="1.0"
     inkscape:pageopacity="0.0"
     inkscape:pageshadow="2"
     inkscape:zoom="7.919596"
     inkscape:cx="12.200257"
     inkscape:cy="4.9882993"
     inkscape:document-units="mm"
     inkscape:current-layer="layer1"
     showgrid="false"
     inkscape:window-width="1920"
     inkscape:window-height="964"
     inkscape:window-x="0"
     inkscape:window-y="27"
     inkscape:window-maximized="1" />
  <metadata
     id="metadata2201">
    <rdf:RDF>
      <cc:Work
         rdf:about="">
        <dc:format>image/svg+xml</dc:format>
        <dc:type
           rdf:resource="http://purl.org/dc/dcmitype/StillImage" />
        <dc:title />
      </cc:Work>
    </rdf:RDF>
  </metadata>
  <g
     inkscape:label="Layer 1"
     inkscape:groupmode="layer"
     id="layer1"
     transform="translate(132.29169,46.958354)">
    <circle
       style="opacity:0.97000002;fill:#0070ba;fill-opacity:1;stroke:none;stroke-width:0.02390886;stroke-miterlimit:4;stroke-dasharray:0.02390886, 0.04781773000000000;stroke-dashoffset:0;stroke-opacity:1"
       id="path1317"
       cx="-127.75595"
       cy="-42.422619"
       r="4.2286253" />
    <path
       style="fill:#ffffff;stroke-width:0.05083085"
       d="m -125.66161,-45.11721 c -0.0281,-8.48e-4 -0.0545,-4.06e-4 -0.0773,0.0016 -0.1928,0.01679 -0.47469,0.07225 -0.65295,0.128466 l -0.0783,0.02472 0.0783,-0.007 c 0.14603,-0.01319 0.33389,-0.008 0.41796,0.01171 0.17476,0.04089 0.31716,0.128058 0.39722,0.242936 0.11558,0.165932 0.11113,0.446939 -0.0111,0.694953 -0.039,0.07909 -0.14742,0.247942 -0.24938,0.388479 -0.0283,0.03899 -0.0416,0.06544 -0.0342,0.06781 0.007,0.0021 0.0123,0.0085 0.0123,0.0142 0,0.0069 -0.004,0.0068 -0.0136,-4.06e-4 -0.0104,-0.0082 -0.0243,0.0025 -0.0599,0.04597 -0.0674,0.08234 -0.20531,0.23785 -0.26031,0.293469 -0.0261,0.02644 -0.0462,0.05251 -0.0447,0.05788 0.002,0.0054 -10e-4,0.0073 -0.006,0.0045 -0.0127,-0.0074 -0.15064,0.127254 -0.14088,0.137501 0.005,0.0047 0.003,0.0057 -0.003,0.0024 -0.0131,-0.0071 -0.2826,0.209236 -0.27828,0.223378 0.002,0.0052 -0.002,0.0068 -0.007,0.0035 -0.009,-0.0054 -0.17988,0.106784 -0.18624,0.122511 -0.002,0.0037 0.0248,0.03244 0.0584,0.06403 l 0.0611,0.05748 0.12181,-0.08588 c 0.0697,-0.04909 0.11899,-0.09045 0.11507,-0.0965 -0.004,-0.0062 -0.002,-0.0076 0.005,-0.0036 0.0116,0.0068 0.10171,-0.05868 0.26299,-0.191212 0.0431,-0.03541 0.16828,-0.150357 0.27828,-0.255444 l 0.20005,-0.191013 0.11506,-0.0035 c 0.0633,-0.0019 0.11035,-5.95e-4 0.10454,0.0028 -0.006,0.0034 0.007,0.0092 0.0273,0.01291 0.0208,0.0037 0.068,0.02174 0.10483,0.04001 0.0369,0.01827 0.0705,0.03032 0.0746,0.0268 0.004,-0.0035 0.005,-0.0015 9.6e-4,0.0045 -0.004,0.006 0.007,0.02319 0.0235,0.03822 0.0165,0.01503 0.0433,0.05486 0.0595,0.08846 0.0259,0.05348 0.0293,0.07226 0.0285,0.150507 -0.001,0.103528 -0.0359,0.217599 -0.0941,0.309552 -0.0192,0.03028 -0.0319,0.05971 -0.0282,0.06543 0.004,0.0057 0.002,0.0078 -0.003,0.0047 -0.005,-0.0031 -0.0278,0.02098 -0.0499,0.05351 -0.0402,0.05904 -0.0442,0.08353 -0.009,0.05738 0.0165,-0.01228 0.0172,-0.01205 0.006,0.002 -0.007,0.0087 -0.01,0.01908 -0.005,0.02313 0.004,0.004 8.1e-4,0.0059 -0.008,0.0041 -0.009,-0.0018 -0.0186,-0.0072 -0.0222,-0.01191 -0.004,-0.0047 -0.0268,0.01759 -0.0514,0.04964 -0.0247,0.03205 -0.0829,0.10026 -0.12926,0.151599 -0.0464,0.05134 -0.0832,0.09708 -0.0817,0.101761 0.001,0.0047 -10e-4,0.0074 -0.006,0.0061 -0.005,-0.0014 -0.058,0.03882 -0.11804,0.08935 -0.11447,0.09632 -0.29005,0.225841 -0.33011,0.243531 -0.0129,0.0057 -0.0234,0.01303 -0.0233,0.01628 3.6e-4,0.01332 0.0475,0.08415 0.0556,0.08359 0.0226,-0.0015 0.23674,-0.154095 0.23023,-0.164108 -0.004,-0.0066 -0.002,-0.0082 0.005,-0.0041 0.0154,0.009 0.18166,-0.121486 0.17255,-0.135516 -0.004,-0.0063 -0.002,-0.0075 0.006,-0.0032 0.008,0.0045 0.0674,-0.04441 0.15894,-0.130055 l 0.14664,-0.137105 0.06,6.95e-4 c 0.0777,0.001 0.16558,0.03838 0.20452,0.08687 0.0379,0.04732 0.0471,0.131604 0.0221,0.203225 -0.0192,0.05479 -0.11686,0.209385 -0.15895,0.251473 -0.0143,0.01439 -0.0273,0.03446 -0.0289,0.04468 -0.002,0.01022 -0.009,0.01881 -0.0176,0.01906 -0.008,2.52e-4 -0.0131,0.007 -0.0112,0.01489 0.002,0.0079 9e-5,0.01121 -0.004,0.0072 -0.004,-0.004 -0.0368,0.01872 -0.0725,0.05043 -0.13033,0.115894 -0.26555,0.202272 -0.42343,0.270436 -0.0771,0.03329 -0.0785,0.03447 -0.0685,0.06126 h 9e-5 c 0.0122,0.03279 0.0156,0.03304 0.0718,0.0063 0.16794,-0.08021 0.44318,-0.264869 0.5089,-0.34142 0.0147,-0.01713 0.0139,-0.01778 -0.0138,-0.01122 -0.0253,0.006 -0.0276,0.0049 -0.0158,-0.0072 0.01,-0.0098 0.0195,-0.01141 0.0319,-0.0052 0.0144,0.0073 0.0301,-0.003 0.0775,-0.05073 0.15758,-0.158439 0.2753,-0.360153 0.2753,-0.471575 0,-0.04859 -0.008,-0.07711 -0.0207,-0.06989 -0.004,0.0026 -0.008,-0.0029 -0.007,-0.01221 8.2e-4,-0.0094 -0.006,-0.01732 -0.0143,-0.01757 -0.009,-2.53e-4 -0.0143,-0.0076 -0.0128,-0.01638 0.002,-0.01 -0.012,-0.02271 -0.0366,-0.03415 -0.0494,-0.02292 -0.17903,-0.02326 -0.26865,-6.95e-4 -0.0343,0.0086 -0.0643,0.0138 -0.0667,0.01152 -0.002,-0.0023 0.0142,-0.02555 0.0368,-0.05173 0.1096,-0.126614 0.14227,-0.17357 0.12747,-0.18307 -0.0111,-0.0071 -0.01,-0.0087 0.006,-0.0065 0.0144,0.002 0.0204,-0.0025 0.0194,-0.0144 -8.1e-4,-0.0095 0.002,-0.01495 0.007,-0.01221 0.005,0.0027 0.0326,-0.03301 0.062,-0.07942 0.12499,-0.1967 0.1851,-0.363098 0.17453,-0.482794 -0.007,-0.08186 -0.0253,-0.124207 -0.076,-0.17761 -0.10903,-0.114771 -0.30049,-0.135659 -0.60431,-0.06582 -0.0549,0.01262 -0.0999,0.02134 -0.0999,0.01936 0,-0.002 0.0425,-0.05382 0.0944,-0.115263 0.13059,-0.154515 0.27584,-0.359821 0.26567,-0.375473 -0.005,-0.0079 -0.004,-0.01 0.003,-0.0057 0.007,0.004 0.0188,-0.0066 0.029,-0.02571 0.01,-0.01793 0.0235,-0.03936 0.0309,-0.04755 0.0257,-0.02834 0.15929,-0.293256 0.18724,-0.371205 0.0763,-0.212646 0.0766,-0.389806 8.2e-4,-0.532036 -0.03,-0.05624 -0.0721,-0.102833 -0.0832,-0.09223 -0.004,0.004 -0.006,8.03e-4 -0.004,-0.0071 0.005,-0.02196 -0.11262,-0.09301 -0.19558,-0.117745 -0.0714,-0.0213 -0.17209,-0.03569 -0.25643,-0.03822 z m -1.52166,0.543354 c -0.0156,1.45e-4 -0.0344,8.66e-4 -0.0582,0.002 -0.0805,0.0038 -0.12524,0.01156 -0.18456,0.03227 -0.44299,0.154521 -0.85395,0.539925 -0.87525,0.820938 -0.003,0.03639 -0.002,0.08234 0.002,0.102059 0.0123,0.06221 0.0866,0.126408 0.16798,0.145245 0.0898,0.02077 0.2389,-0.0011 0.37726,-0.0555 0.42571,-0.167198 0.79577,-0.577985 0.77457,-0.859756 -0.007,-0.08659 -0.0381,-0.136144 -0.10732,-0.16798 -0.0326,-0.015 -0.0499,-0.0197 -0.0966,-0.01926 z m -3.12629,0.567777 c -0.0318,0.0031 -0.001,0.02875 0.0773,0.102952 0.4011,0.379518 0.55714,0.814617 0.47723,1.330835 -0.0238,0.153708 -0.0394,0.215567 -0.0964,0.38153 -0.13958,0.406138 -0.4058,0.856829 -0.785,1.329048 -0.0453,0.05637 -0.0801,0.104677 -0.0773,0.10732 0.001,0.0013 0.0231,-8.84e-4 0.0569,-0.0055 0.0338,-0.0046 0.0797,-0.01157 0.12956,-0.01986 0.67874,-0.112438 1.43948,-0.200519 2.12447,-0.246013 0.37666,-0.02496 1.19412,-0.02496 1.47817,0 0.33568,0.02953 0.57744,0.06888 0.80465,0.131048 0.12769,0.03492 0.30857,0.09917 0.37587,0.133431 0.0201,0.01027 0.0379,0.01726 0.0398,0.01559 0.009,-0.0082 -0.1661,-0.494666 -0.18465,-0.513372 -0.004,-0.0037 -0.0395,0.0066 -0.0797,0.02303 -0.13821,0.05632 -0.24229,0.08067 -0.34995,0.0819 -0.0909,10e-4 -0.10343,-0.0012 -0.14892,-0.02661 -0.10411,-0.0582 -0.11711,-0.15033 -0.0448,-0.3167 0.005,-0.01149 -0.0442,0.006 -0.15815,0.05599 -0.19661,0.08631 -0.40306,0.155967 -0.5498,0.185652 -0.1493,0.0302 -0.33275,0.03039 -0.41916,4.06e-4 -0.12006,-0.04168 -0.18761,-0.107582 -0.2205,-0.215038 -0.0322,-0.10522 6e-5,-0.248448 0.0948,-0.422035 0.0252,-0.04615 0.0446,-0.08505 0.0433,-0.08637 -0.001,-0.0013 -0.0539,0.02001 -0.11666,0.04746 -0.2203,0.09638 -0.47096,0.18337 -0.66884,0.232015 -0.46043,0.11315 -0.81626,0.07977 -0.99875,-0.09372 -0.2386,-0.226858 -0.1833,-0.600944 0.16332,-1.104479 0.0493,-0.07148 0.0922,-0.127408 0.0955,-0.124297 0.003,0.0031 -0.009,0.03958 -0.0271,0.08101 -0.10316,0.235558 -0.12612,0.429231 -0.0692,0.57979 0.006,0.01673 0.0136,0.03289 0.0219,0.04855 0.0498,0.09397 0.13507,0.168729 0.25575,0.223874 0.0544,0.02486 0.13657,0.05333 0.18257,0.06314 0.1098,0.02353 0.33719,0.02324 0.47525,-4.96e-4 0.42266,-0.07274 0.8954,-0.256128 1.34851,-0.5233 0.20246,-0.119397 0.1965,-0.09562 0.0532,-0.214939 -0.77507,-0.645491 -1.82802,-1.052899 -3.17534,-1.228677 -0.0672,-0.0088 -0.10879,-0.01506 -0.12787,-0.0132 z m 3.56342,1.484817 -0.17543,0.109504 c -0.1869,0.116652 -0.46575,0.271559 -0.63151,0.350753 l -0.10097,0.04825 -0.0166,0.0694 c -0.009,0.03812 -0.0166,0.102403 -0.0166,0.142763 0,0.06227 0.005,0.08282 0.0324,0.13502 0.0516,0.0981 0.16931,0.16731 0.32236,0.189523 0.16505,0.02394 0.43612,-0.03136 0.72652,-0.148223 0.11422,-0.04595 0.34567,-0.162021 0.38669,-0.193892 l 0.0258,-0.02005 -0.0584,-0.08836 c -0.11955,-0.181009 -0.36483,-0.480719 -0.4674,-0.570953 z m 0.61871,0.803564 c -0.0125,-4.78e-4 -0.0375,0.01221 -0.0936,0.04557 -0.0508,0.03019 -0.12153,0.07001 -0.15716,0.08846 -0.0685,0.03548 -0.076,0.04663 -0.0761,0.115759 -1.8e-4,0.07884 0.0544,0.144154 0.14366,0.171653 0.0493,0.01515 0.2203,0.0032 0.3028,-0.02115 0.0417,-0.0123 0.0758,-0.0275 0.0758,-0.03375 0,-0.01123 -0.16668,-0.335031 -0.18635,-0.361971 -0.002,-0.0028 -0.005,-0.0044 -0.009,-0.0046 z"
       id="path4"
       inkscape:connector-curvature="0" />
  </g>
</svg>
