<?xml version="1.0" encoding="UTF-8" standalone="no"?>
<svg
   xmlns:dc="http://purl.org/dc/elements/1.1/"
   xmlns:cc="http://creativecommons.org/ns#"
   xmlns:rdf="http://www.w3.org/1999/02/22-rdf-syntax-ns#"
   xmlns:svg="http://www.w3.org/2000/svg"
   xmlns="http://www.w3.org/2000/svg"
   xmlns:sodipodi="http://sodipodi.sourceforge.net/DTD/sodipodi-0.dtd"
   xmlns:inkscape="http://www.inkscape.org/namespaces/inkscape"
   height="511pt"
   viewBox="0 1 511.99957 511"
   width="511pt"
   version="1.1"
   id="svg28"
   sodipodi:docname="focus.svg"
   inkscape:version="0.92.5 (2060ec1f9f, 2020-04-08)">
  <metadata
     id="metadata34">
    <rdf:RDF>
      <cc:Work
         rdf:about="">
        <dc:format>image/svg+xml</dc:format>
        <dc:type
           rdf:resource="http://purl.org/dc/dcmitype/StillImage" />
      </cc:Work>
    </rdf:RDF>
  </metadata>
  <defs
     id="defs32" />
  <sodipodi:namedview
     pagecolor="#ffffff"
     bordercolor="#666666"
     borderopacity="1"
     objecttolerance="10"
     gridtolerance="10"
     guidetolerance="10"
     inkscape:pageopacity="0"
     inkscape:pageshadow="2"
     inkscape:window-width="1920"
     inkscape:window-height="964"
     id="namedview30"
     showgrid="false"
     inkscape:zoom="0.34637965"
     inkscape:cx="529.02961"
     inkscape:cy="217.56441"
     inkscape:window-x="0"
     inkscape:window-y="27"
     inkscape:window-maximized="1"
     inkscape:current-layer="svg28" />
  <path
     d="m509.253906 324.902344c-2.699218 4.195312-7.199218 6.597656-12.296875 6.597656h-44.957031v75c0 8.398438-7 15-15.398438 15h-44.601562v76c0 8.398438-7 15-15.398438 15h-180c-8.402343 0-15-6.601562-15-15v-136.300781c-44.101562-27.898438-75.300781-72.597657-86.097656-123.300781l.296875-84c19.5-88.199219 99.597657-153.398438 190.199219-153.398438h20.097656c90.902344 0 164.902344 75.097656 164.902344 166v45.601562l39.757812 98.695313c2.097657 4.800781 1.496094 9.902344-1.503906 14.105469zm0 0"
     fill="#fed2a4"
     id="path2" />
  <path
     d="m509.253906 324.902344c-2.699218 4.195312-7.199218 6.597656-12.296875 6.597656h-44.957031v75c0 8.398438-7 15-15.398438 15h-44.601562v76c0 8.398438-7 15-15.398438 15h-90.601562v-512h20.097656c90.902344 0 164.902344 75.097656 164.902344 166v45.601562l39.757812 98.699219c2.097657 4.796875 1.496094 9.898438-1.503906 14.101563zm0 0"
     fill="#ffbd86"
     id="path4" />
  <path
     d="m286 61.5c-74.398438 0-135 60.601562-135 135s60.601562 135 135 135 135-60.601562 135-135-60.601562-135-135-135zm0 0"
     fill="#ff637b"
     id="path6" />
  <path
     d="m421 196.5c0 74.398438-60.601562 135-135 135v-270c74.398438 0 135 60.601562 135 135zm0 0"
     fill="#e63950"
     id="path8" />
  <path
     d="m391 196.5c0 57.898438-47.097656 105-105 105-57.898438 0-105-47.101562-105-105s47.101562-105 105-105c57.902344 0 105 47.101562 105 105zm0 0"
     fill="#faecd8"
     id="path10" />
  <path
     d="m391 196.5c0 57.898438-47.097656 105-105 105v-210c57.898438 0 105 47.101562 105 105zm0 0"
     fill="#f4d7af"
     id="path12" />
  <path
     d="m361 196.5c0 41.398438-33.597656 75-75 75-41.398438 0-75-33.601562-75-75s33.601562-75 75-75c41.402344 0 75 33.601562 75 75zm0 0"
     fill="#ff637b"
     id="path14" />
  <path
     d="m361 196.5c0 41.398438-33.597656 75-75 75v-150c41.402344 0 75 33.601562 75 75zm0 0"
     fill="#e63950"
     id="path16" />
  <path
     d="m331 196.5c0 24.902344-20.097656 45-45 45-24.898438 0-45-20.097656-45-45s20.101562-45 45-45c24.902344 0 45 20.097656 45 45zm0 0"
     fill="#faecd8"
     id="path18" />
  <path
     d="m331 196.5c0 24.902344-20.097656 45-45 45v-90c24.902344 0 45 20.097656 45 45zm0 0"
     fill="#f4d7af"
     id="path20" />
  <path
     d="m301 196.5c0 8.402344-6.597656 15-15 15h-150c-8.398438 0-15-6.597656-15-15s6.601562-15 15-15h150c8.402344 0 15 6.597656 15 15zm0 0"
     id="path22"
     fill="#7c8388"
     style="fill:#ffcc00" />
  <path
     d="m301 196.5c0 8.402344-6.597656 15-15 15v-30c8.402344 0 15 6.597656 15 15zm0 0"
     fill="#575f64"
     id="path24"
     style="fill:#d4aa00" />
  <path
     d="m106 255.5h-91c-5.550781 0-10.664062-3.078125-13.253906-7.984375-2.609375-4.921875-2.273438-10.867187.863281-15.453125l24.359375-35.800781-24.519531-37.558594c-3.019531-4.613281-3.253907-10.503906-.648438-15.335937 2.625-4.851563 7.691407-7.867188 13.199219-7.867188h91c5.066406 0 9.785156 2.5625 12.554688 6.796875l30 45.9375c3.308593 5.070313 3.25 11.632813-.160157 16.640625l-30 44.0625c-2.785156 4.101562-7.429687 6.5625-12.394531 6.5625zm0 0"
     fill="#64e1dc"
     id="path26"
     style="fill:#164796;fill-opacity:1" />
</svg>
