<?xml version="1.0" encoding="UTF-8" standalone="no"?>
<!-- Created with Inkscape (http://www.inkscape.org/) -->

<svg
   xmlns:dc="http://purl.org/dc/elements/1.1/"
   xmlns:cc="http://creativecommons.org/ns#"
   xmlns:rdf="http://www.w3.org/1999/02/22-rdf-syntax-ns#"
   xmlns:svg="http://www.w3.org/2000/svg"
   xmlns="http://www.w3.org/2000/svg"
   xmlns:sodipodi="http://sodipodi.sourceforge.net/DTD/sodipodi-0.dtd"
   xmlns:inkscape="http://www.inkscape.org/namespaces/inkscape"
   width="310.6149mm"
   height="67.719376mm"
   viewBox="0 0 310.6149 67.719375"
   version="1.1"
   id="svg2923"
   inkscape:version="0.92.5 (2060ec1f9f, 2020-04-08)"
   sodipodi:docname="logo.svg">
  <defs
     id="defs2917" />
  <sodipodi:namedview
     id="base"
     pagecolor="#ffffff"
     bordercolor="#666666"
     borderopacity="1.0"
     inkscape:pageopacity="0.0"
     inkscape:pageshadow="2"
     inkscape:zoom="0.24748737"
     inkscape:cx="1075.6531"
     inkscape:cy="-595.07906"
     inkscape:document-units="mm"
     inkscape:current-layer="layer1"
     showgrid="false"
     showguides="true"
     inkscape:window-width="1920"
     inkscape:window-height="964"
     inkscape:window-x="0"
     inkscape:window-y="27"
     inkscape:window-maximized="1" />
  <metadata
     id="metadata2920">
    <rdf:RDF>
      <cc:Work
         rdf:about="">
        <dc:format>image/svg+xml</dc:format>
        <dc:type
           rdf:resource="http://purl.org/dc/dcmitype/StillImage" />
        <dc:title />
      </cc:Work>
    </rdf:RDF>
  </metadata>
  <g
     inkscape:label="Layer 1"
     inkscape:groupmode="layer"
     id="layer1"
     transform="translate(494.69808,83.184736)">
    <path
       style="font-style:normal;font-variant:normal;font-weight:900;font-stretch:normal;font-size:90.54152679px;line-height:1.25;font-family:Montserrat;-inkscape-font-specification:'Montserrat Heavy';letter-spacing:0px;word-spacing:0px;fill:#ffffff;fill-opacity:1;stroke:none;stroke-width:1.72354448"
       d="m -381.67123,-74.774601 c -14.96038,0 -22.47502,7.307744 -22.47502,16.270175 0,17.993804 26.68019,13.098947 26.68019,19.165825 0,1.654601 -1.65461,2.619816 -6.27371,2.619816 -5.30853,0 -11.37533,-1.723407 -15.92549,-4.412138 l -5.23963,11.858039 c 4.82593,2.964495 12.96121,4.963801 21.02741,4.963801 14.96036,0 22.47501,-7.44602 22.47501,-16.270568 0,-17.786979 -26.68058,-12.96077 -26.68058,-18.751879 0,-1.654605 1.51674,-3.033763 6.27372,-3.033763 4.20545,0 8.68679,1.172072 13.44377,3.585035 l 4.89494,-11.788785 c -5.03274,-2.826614 -11.72009,-4.205558 -18.20061,-4.205558 z m 25.09484,1.102936 v 48.259253 h 16.27018 v -48.259253 z m 24.12923,0 v 48.259253 h 15.99475 v -11.926897 l 3.65388,-4.067446 12.06462,15.994343 h 18.82113 12.36131 l 3.24035,-8.410725 h 18.33833 l 3.24033,8.410725 h 16.82184 l -21.09624,-48.259253 h -15.99437 l -19.55536,44.734028 -17.62495,-23.500051 19.30356,-21.233977 h -17.71782 l -15.85661,17.511222 v -17.511222 z m 91.5559,0 20.40648,48.259253 h 15.99474 l 20.40686,-48.259253 h -15.99473 l -11.78879,28.197465 -11.51334,-28.197465 z m -16.2505,15.994736 4.68796,12.133475 h -9.37594 z"
       id="path949"
       inkscape:connector-curvature="0" />
    <g
       id="g3653"
       transform="matrix(0.15078498,0,0,0.15078498,-510.86621,-88.784063)" />
    <g
       id="g3655"
       transform="matrix(0.15078498,0,0,0.15078498,-510.86621,-88.784063)" />
    <g
       id="g3657"
       transform="matrix(0.15078498,0,0,0.15078498,-510.86621,-88.784063)" />
    <g
       id="g3659"
       transform="matrix(0.15078498,0,0,0.15078498,-510.86621,-88.784063)" />
    <g
       id="g3661"
       transform="matrix(0.15078498,0,0,0.15078498,-510.86621,-88.784063)" />
    <g
       id="g3663"
       transform="matrix(0.15078498,0,0,0.15078498,-510.86621,-88.784063)" />
    <g
       id="g3665"
       transform="matrix(0.15078498,0,0,0.15078498,-510.86621,-88.784063)" />
    <g
       id="g3667"
       transform="matrix(0.15078498,0,0,0.15078498,-510.86621,-88.784063)" />
    <g
       id="g3669"
       transform="matrix(0.15078498,0,0,0.15078498,-510.86621,-88.784063)" />
    <g
       id="g3671"
       transform="matrix(0.15078498,0,0,0.15078498,-510.86621,-88.784063)" />
    <g
       id="g3673"
       transform="matrix(0.15078498,0,0,0.15078498,-510.86621,-88.784063)" />
    <g
       id="g3675"
       transform="matrix(0.15078498,0,0,0.15078498,-510.86621,-88.784063)" />
    <g
       id="g3677"
       transform="matrix(0.15078498,0,0,0.15078498,-510.86621,-88.784063)" />
    <g
       id="g3679"
       transform="matrix(0.15078498,0,0,0.15078498,-510.86621,-88.784063)" />
    <g
       id="g3681"
       transform="matrix(0.15078498,0,0,0.15078498,-510.86621,-88.784063)" />
    <path
       style="fill:#ffffff;stroke-width:0.28734609"
       d="m -494.31427,-15.739043 c -0.10529,-0.105352 -0.19155,-1.786333 -0.19155,-3.735499 v -3.543934 h 2.13639 c 1.17501,0 2.46445,0.124731 2.86543,0.277183 1.26692,0.481687 1.374,2.932631 0.14517,3.322654 l -0.59861,0.189988 0.62283,0.662956 c 0.81291,0.865311 1.14806,3.018218 0.46987,3.018218 -0.26469,0 -0.46886,-0.231582 -0.46886,-0.531814 0,-1.903163 -1.27897,-3.048858 -3.19856,-2.865249 -0.96446,0.09225 -0.96827,0.09855 -1.05413,1.744823 -0.0806,1.545681 -0.26766,1.920986 -0.72798,1.460674 z m 4.63586,-4.176094 c 0.41052,-0.410521 0.44228,-1.354858 0.0656,-1.950623 -0.19226,-0.30408 -0.7931,-0.428653 -2.07886,-0.43102 l -1.80846,-0.0033 -0.0876,1.364893 -0.0876,1.364895 h 1.82602 c 1.03712,0 1.975,-0.148975 2.17084,-0.344816 z m 2.93092,0.63216 c 0,-3.12888 0.0701,-3.735499 0.43103,-3.735499 0.36102,0 0.43102,0.606619 0.43102,3.735499 0,3.12888 -0.07,3.7355 -0.43102,3.7355 -0.36104,0 -0.43103,-0.60662 -0.43103,-3.7355 z m 2.58611,3.345539 c 0,-0.394761 0.34355,-0.472077 2.09763,-0.472077 2.21623,0 2.78727,-0.264913 2.78727,-1.293058 0,-0.957897 -0.57689,-1.293057 -2.22564,-1.293057 -1.26334,0 -1.66606,-0.130078 -2.26881,-0.732825 -0.79343,-0.793429 -0.76665,-1.861764 0.068,-2.713585 0.52232,-0.533061 5.00114,-0.819206 5.00114,-0.319517 0,0.197209 -0.66131,0.317773 -1.74297,0.317773 -2.19186,0 -2.85458,0.334629 -2.85458,1.441367 0,0.926207 0.17707,1.008569 2.65779,1.236225 1.74241,0.159899 2.22709,0.575706 2.22709,1.910595 0,1.607837 -0.66699,2.042051 -3.42739,2.231254 -2.02441,0.138758 -2.31952,0.09892 -2.31952,-0.313095 z m 9.19508,-3.058192 v -3.448154 h -1.29306 c -0.71117,0 -1.29306,-0.129306 -1.29306,-0.287346 0,-0.173318 1.19728,-0.287346 3.01715,-0.287346 1.69715,0 3.01712,0.118484 3.01712,0.270824 0,0.148954 -0.54955,0.310586 -1.22121,0.359181 l -1.22122,0.08836 -0.081,3.376316 c -0.0657,2.740415 -0.16042,3.376316 -0.50285,3.376316 -0.34753,0 -0.4219,-0.607816 -0.4219,-3.448153 z m 6.38251,3.12384 c -1.77791,-0.512744 -2.59504,-3.04116 -1.68581,-5.216329 0.21257,-0.508554 0.59924,-1.101068 0.85924,-1.316693 0.5764,-0.478015 4.21383,-0.824372 4.21383,-0.40124 0,0.160106 -0.71886,0.350717 -1.59749,0.423579 -1.75815,0.1458 -2.60296,0.74231 -2.76187,1.950112 -0.093,0.706618 -0.0581,0.71974 2.13243,0.802287 2.82948,0.106635 2.92908,0.634444 0.11973,0.634444 -1.15897,0 -2.18285,0.07565 -2.27531,0.1681 -0.29073,0.290728 0.39612,1.842612 0.94569,2.136734 0.28907,0.154704 1.18061,0.281281 1.98119,0.281281 1.10233,0 1.45563,0.104616 1.45563,0.431018 0,0.500316 -1.82328,0.557754 -3.38726,0.106702 z m 5.11134,-3.411187 c 0,-3.12888 0.0699,-3.735499 0.43102,-3.735499 0.36101,0 0.43102,0.606619 0.43102,3.735499 0,3.12888 -0.07,3.7355 -0.43102,3.7355 -0.36104,0 -0.43102,-0.60662 -0.43102,-3.7355 z m 3.17623,1.883318 c -2.07285,-2.091434 -2.0896,-1.80026 0.2448,-4.253923 0.72926,-0.766493 1.55527,-1.362823 1.88406,-1.360167 0.4468,0.0036 0.14305,0.40677 -1.28225,1.701911 l -1.86775,1.697184 2.00372,2.033588 c 1.53574,1.558637 1.86935,2.033589 1.42843,2.033589 -0.32613,0 -1.37036,-0.802199 -2.41101,-1.852182 z m 7.45557,-1.842259 v -3.776558 h 2.23483 c 2.7215,0 3.51208,0.420893 3.51208,1.869765 0,0.602863 -0.17892,1.075277 -0.46869,1.237435 -0.42206,0.236198 -0.40599,0.347103 0.16146,1.114627 0.7378,0.997927 0.58619,2.217622 -0.33707,2.711736 -0.31801,0.170195 -1.59619,0.37922 -2.84041,0.464501 l -2.2622,0.155055 z m 4.54007,2.487587 c 0.18965,-0.189649 0.34481,-0.710073 0.34481,-1.156496 0,-0.982782 -0.95128,-1.443564 -2.71303,-1.314143 l -1.16614,0.08568 -0.0876,1.364894 -0.0876,1.364893 h 1.68236 c 0.92537,0 1.8375,-0.155152 2.02717,-0.344815 z m 0,-3.448153 c 0.52789,-0.527889 0.41028,-1.611348 -0.21099,-1.943845 -0.30569,-0.1636 -1.21083,-0.297455 -2.01142,-0.297455 h -1.45562 v 1.293058 1.293058 h 1.66661 c 0.91663,0 1.82177,-0.155168 2.01142,-0.344816 z m 2.93093,0.919507 v -3.735499 h 2.14157 c 2.45515,0 3.54732,0.387121 3.78706,1.342319 0.25202,1.004118 -0.10787,2.043687 -0.78164,2.257518 -0.59721,0.189545 -0.59728,0.191426 -0.0297,0.809354 0.31291,0.340651 0.6586,1.168915 0.7682,1.840586 0.1644,1.007668 0.11946,1.221222 -0.25703,1.221222 -0.25245,0 -0.45627,-0.237573 -0.45627,-0.531814 0,-1.903163 -1.27897,-3.048858 -3.19857,-2.865249 -0.96446,0.09225 -0.96826,0.09855 -1.05412,1.744823 -0.0632,1.212203 -0.19716,1.65224 -0.50286,1.65224 -0.34264,0 -0.41668,-0.663756 -0.41668,-3.7355 z m 4.8992,-0.888801 c 0.17704,-0.330802 0.2452,-0.907014 0.15147,-1.280472 -0.18904,-0.753192 -1.33483,-1.106016 -3.05855,-0.94182 -0.95754,0.09121 -0.98897,0.133906 -1.07399,1.458853 l -0.0876,1.364894 h 1.87339 c 1.60708,0 1.91914,-0.0855 2.19526,-0.601455 z m 2.85914,0.888801 c 0,-3.12888 0.0699,-3.735499 0.43102,-3.735499 0.36102,0 0.43102,0.606619 0.43102,3.735499 0,3.12888 -0.07,3.7355 -0.43102,3.7355 -0.36104,0 -0.43102,-0.60662 -0.43102,-3.7355 z m 2.87346,0 c 0,-3.47487 0.038,-3.735499 0.54448,-3.735499 0.37844,0 1.09631,0.881563 2.3538,2.890515 0.99513,1.589785 1.91387,2.955124 2.04164,3.034093 0.12777,0.07897 0.23231,-1.221763 0.23231,-2.890515 0,-2.505407 0.0751,-3.034093 0.43101,-3.034093 0.36102,0 0.43103,0.606619 0.43103,3.735499 0,4.822483 -0.24624,4.881813 -2.98061,0.71815 -1.08618,-1.653956 -2.0883,-2.937098 -2.22693,-2.851423 -0.13862,0.08567 -0.25204,1.441194 -0.25204,3.012271 0,1.712769 -0.11506,2.856502 -0.28735,2.856502 -0.17682,0 -0.28734,-1.436731 -0.28734,-3.7355 z m -22.70034,0.574692 c 0,-0.159638 0.76626,-0.287345 1.72407,-0.287345 0.95782,0 1.72409,0.127707 1.72409,0.287345 0,0.159638 -0.76627,0.287346 -1.72409,0.287346 -0.95781,0 -1.72407,-0.127708 -1.72407,-0.287346 z m -34.70426,-9.366224 c 12.24839,-13.948095 13.56016,-27.181563 3.74286,-37.759007 -1.14573,-1.234435 -1.85691,-2.196273 -1.58041,-2.137417 0.2765,0.05886 1.60183,0.315515 2.94517,0.570354 5.92334,1.123688 12.51684,2.991572 18.28509,5.180016 1.84457,0.699823 3.38634,1.272404 3.42615,1.272404 0.0398,0 0.003,-0.514253 -0.0809,-1.142784 -0.57655,-4.298517 8.21212,-11.758833 13.87866,-11.78097 1.4585,-0.0057 1.84863,0.10263 2.3706,0.658228 1.92159,2.045452 -1.15626,7.098925 -6.38988,10.491439 -2.00363,1.29878 -5.22538,2.618877 -6.41878,2.630064 -0.35559,0.0033 -0.64597,0.103044 -0.64529,0.22157 5.8e-4,0.11853 1.58468,1.017423 3.51999,1.997541 3.73869,1.893409 7.23955,4.0112 10.23421,6.19101 l 1.83056,1.332467 -1.97424,1.273529 c -4.02611,2.597137 -9.44454,4.998198 -13.44245,5.956733 -2.80758,0.673144 -6.94424,0.737531 -8.95304,0.139357 -4.83542,-1.439877 -5.73858,-6.755199 -2.26344,-13.320925 0.69654,-1.315998 1.10727,-2.342957 0.91274,-2.282136 -0.68634,0.214589 -5.05942,7.132955 -5.9959,9.485719 -0.82079,2.062133 -0.9459,2.717403 -0.9556,5.004954 -0.01,2.469211 0.0422,2.708104 0.85088,3.858869 1.29796,1.847028 3.11319,2.644201 6.35997,2.793031 4.26684,0.195589 8.54885,-0.877243 14.90365,-3.734018 1.73844,-0.78151 3.33027,-1.494008 3.53738,-1.583324 0.20713,-0.08931 -0.0245,0.468647 -0.51479,1.239922 -1.17951,1.855607 -2.13264,5.005407 -1.89612,6.266171 0.2377,1.267054 1.17959,2.435812 2.36069,2.929309 2.17652,0.909401 6.74483,0.179131 10.9058,-1.743354 1.2157,-0.561691 2.26012,-1.021254 2.32096,-1.021254 0.0608,0 -0.0867,0.381494 -0.32783,0.847769 -0.50464,0.975867 -0.56977,2.392686 -0.14635,3.183837 0.16061,0.300118 0.78376,0.693001 1.38478,0.873069 1.40329,0.420437 3.96495,-0.19505 6.57078,-1.578749 l 1.82938,-0.971404 0.81907,1.624362 c 1.13804,2.256934 2.37937,5.254462 2.23554,5.398299 -0.0659,0.0659 -2.04536,-0.266953 -4.39878,-0.739684 -16.28342,-3.270838 -36.35669,-3.00705 -58.75531,0.772119 l -3.04143,0.513157 z m 52.73522,-4.416675 c -0.78215,-0.619737 -0.94259,-1.279711 -0.61143,-2.51502 0.10463,-0.390227 1.04932,-1.195241 2.43524,-2.075138 l 2.26432,-1.437582 1.3892,2.075138 c 0.76405,1.141328 1.4861,2.239625 1.60455,2.440661 0.31719,0.538334 -2.66781,1.81572 -4.65628,1.992589 -1.38109,0.122845 -1.75827,0.0481 -2.4256,-0.480648 z m 7.73724,-0.773132 c -0.0914,-0.09132 0.57153,-0.709002 1.47299,-1.372629 5.4276,-3.995564 7.0522,-9.061823 3.18031,-9.917622 l -0.96853,-0.214074 1.36886,-0.220959 c 3.58757,-0.579113 4.41251,1.814876 1.91446,5.555747 -1.60408,2.402124 -6.44732,6.690315 -6.96809,6.169537 z m -19.55599,-2.100899 c -2.00344,-0.64593 -3.00415,-2.564305 -2.51691,-4.824994 0.53882,-2.499949 1.07527,-3.396026 2.54448,-4.250197 0.75619,-0.439636 2.5228,-1.568078 3.9258,-2.507652 l 2.55092,-1.70831 4.12988,4.19419 c 2.27144,2.306807 4.12946,4.29314 4.12895,4.414076 -0.002,0.408479 -4.74577,2.93938 -7.16391,3.821892 -2.58504,0.943426 -6.10613,1.34237 -7.59921,0.860995 z m 15.39208,-3.926478 c -0.21732,-0.388331 0.12244,-0.791333 1.7786,-2.109692 6.43316,-5.120995 9.9563,-11.826954 7.9333,-15.100239 -0.83009,-1.343112 -2.32343,-1.967274 -4.72177,-1.973531 l -1.9965,-0.0052 1.70916,-0.530789 c 2.28746,-0.710385 5.72239,-0.774226 6.93579,-0.128906 1.34353,0.714533 1.81335,1.556119 1.81335,3.248265 0,2.539248 -1.4573,5.567995 -4.35367,9.048336 -0.76629,0.920786 -1.39325,1.809128 -1.39325,1.974091 0,0.164966 -0.14102,0.299935 -0.31338,0.299935 -0.17236,0 -1.27349,0.884675 -2.44694,1.965942 -1.17346,1.081269 -2.70562,2.376766 -3.40481,2.878883 -1.13341,0.813954 -1.30037,0.860891 -1.53988,0.432915 z m -10.06107,-10.4027 -0.66899,-0.514643 3.20658,-2.550438 c 7.35633,-5.851052 12.56429,-12.775716 14.10086,-18.748946 1.14539,-4.452572 -0.54673,-7.972239 -4.38005,-9.110611 -1.65514,-0.491522 -5.76341,-0.581221 -7.5585,-0.165031 -2.08595,0.483623 -1.38943,0.0642 1.33076,-0.801325 3.81494,-1.213867 5.78509,-1.581257 8.57461,-1.598956 3.85097,-0.02439 6.18913,1.085939 7.49368,3.558687 0.54919,1.040992 0.47018,4.457461 -0.14621,6.321616 -1.23047,3.721312 -4.21103,8.506151 -7.81296,12.542529 -1.0083,1.129918 -1.83328,2.19669 -1.83328,2.370605 0,0.173913 -0.13367,0.316207 -0.29704,0.316207 -0.16339,0 -1.39766,1.036711 -2.74286,2.303804 -2.99499,2.821106 -7.71234,6.606221 -8.22242,6.597535 -0.20635,-0.0035 -0.67624,-0.237977 -1.04418,-0.521033 z"
       id="path885"
       inkscape:connector-curvature="0" />
  </g>
</svg>
