<?xml version="1.0" encoding="UTF-8" standalone="no"?>
<!-- Created with Inkscape (http://www.inkscape.org/) -->

<svg
   xmlns:dc="http://purl.org/dc/elements/1.1/"
   xmlns:cc="http://creativecommons.org/ns#"
   xmlns:rdf="http://www.w3.org/1999/02/22-rdf-syntax-ns#"
   xmlns:svg="http://www.w3.org/2000/svg"
   xmlns="http://www.w3.org/2000/svg"
   xmlns:sodipodi="http://sodipodi.sourceforge.net/DTD/sodipodi-0.dtd"
   xmlns:inkscape="http://www.inkscape.org/namespaces/inkscape"
   width="543.25964mm"
   height="91.667824mm"
   viewBox="0 0 543.25964 91.667823"
   version="1.1"
   id="svg2923"
   inkscape:version="0.92.5 (2060ec1f9f, 2020-04-08)"
   sodipodi:docname="logo.svg">
  <defs
     id="defs2917" />
  <sodipodi:namedview
     id="base"
     pagecolor="#ffffff"
     bordercolor="#666666"
     borderopacity="1.0"
     inkscape:pageopacity="0.0"
     inkscape:pageshadow="2"
     inkscape:zoom="0.35"
     inkscape:cx="209.10977"
     inkscape:cy="-63.93524"
     inkscape:document-units="mm"
     inkscape:current-layer="layer1"
     showgrid="false"
     showguides="true"
     inkscape:window-width="1920"
     inkscape:window-height="964"
     inkscape:window-x="0"
     inkscape:window-y="27"
     inkscape:window-maximized="1" />
  <metadata
     id="metadata2920">
    <rdf:RDF>
      <cc:Work
         rdf:about="">
        <dc:format>image/svg+xml</dc:format>
        <dc:type
           rdf:resource="http://purl.org/dc/dcmitype/StillImage" />
        <dc:title />
      </cc:Work>
    </rdf:RDF>
  </metadata>
  <g
     inkscape:label="Layer 1"
     inkscape:groupmode="layer"
     id="layer1"
     transform="translate(508.17667,96.975897)">
    <g
       transform="matrix(0.65241197,0,0,0.65241197,-78.03713,-4.2785435)"
       id="g9898"
       style="fill:#aad400;stroke:none">
      <path
         sodipodi:type="inkscape:offset"
         inkscape:radius="3.8019292"
         inkscape:original="M 595.66016 5.3828125 C 591.45359 5.5073462 567.84971 18.786481 564.20508 20.890625 C 560.92756 22.782825 539.90967 35.275374 538.11523 38.607422 C 536.11979 42.312688 535.81648 69.393146 535.81641 73.601562 C 535.81634 77.386079 536.12681 101.83463 538.11523 105.05469 C 540.32636 108.63542 563.62692 122.43869 567.27148 124.54297 C 570.54893 126.43528 591.8773 138.39129 595.66016 138.2793 C 599.86674 138.15476 623.4706 124.87562 627.11523 122.77148 C 630.39276 120.87928 651.41258 108.38674 653.20703 105.05469 C 655.20247 101.34942 655.50383 74.268963 655.50391 70.060547 C 655.50398 66.276029 655.19544 41.82748 653.20703 38.607422 C 650.99589 35.026689 627.69339 21.223414 624.04883 19.119141 C 620.77137 17.226825 599.44302 5.2708226 595.66016 5.3828125 z "
         style="opacity:1;fill:#aad400;fill-opacity:1;stroke:none;stroke-width:0.26499999;stroke-miterlimit:4;stroke-dasharray:0.26499998, 0.52999997;stroke-dashoffset:0;stroke-opacity:1"
         id="path9822"
         d="m 595.54688,1.5820312 c -1.4721,0.043581 -2.37327,0.4035538 -3.58204,0.8378907 -1.20876,0.4343369 -2.56069,1.006023 -4.04882,1.6796875 -2.97628,1.3473288 -6.47748,3.1075567 -9.95508,4.9257812 -6.95521,3.6364494 -13.75533,7.4748134 -15.65625,8.5722654 -1.72877,0.998062 -7.78871,4.584781 -13.75391,8.410156 -2.9826,1.912688 -5.92511,3.87439 -8.3125,5.626954 -1.19369,0.876281 -2.2465,1.6951 -3.13672,2.480468 -0.89021,0.785368 -1.61025,1.345581 -2.33398,2.689454 -0.69825,1.296557 -0.83813,2.257532 -1.06641,3.521484 -0.22828,1.263952 -0.40958,2.720143 -0.57031,4.345703 -0.32146,3.251121 -0.54658,7.163262 -0.71094,11.083984 -0.32871,7.841444 -0.40621,15.650293 -0.40625,17.845703 -4e-5,1.996377 0.0778,9.036469 0.40821,16.115235 0.1652,3.539383 0.39267,7.069832 0.71679,10.013672 0.16206,1.471921 0.34502,2.793401 0.58008,3.957031 0.23506,1.16363 0.36016,2.06656 1.16211,3.36523 0.77371,1.25297 1.53711,1.85392 2.51758,2.6836 0.98046,0.82968 2.14916,1.71598 3.47656,2.66797 2.65481,1.90398 5.93089,4.05546 9.24414,6.1582 6.6265,4.20549 13.35061,8.17565 15.25195,9.27344 1.72874,0.99812 7.86455,4.45169 14.16016,7.70508 3.14781,1.62669 6.31779,3.19543 9.0293,4.38671 1.35575,0.59565 2.59153,1.09634 3.71679,1.47461 1.12527,0.37827 1.97038,0.72291 3.4961,0.67774 1.47209,-0.0436 2.37327,-0.40355 3.58203,-0.83789 1.20876,-0.43434 2.56069,-1.00602 4.04883,-1.67969 2.97627,-1.34733 6.47747,-3.10756 9.95508,-4.92578 6.9552,-3.63645 13.75534,-7.47482 15.65624,-8.57227 1.7285,-0.9979 7.78823,-4.58479 13.75391,-8.41015 2.98284,-1.91269 5.92688,-3.8744 8.31445,-5.62696 1.19379,-0.87628 2.24644,-1.6951 3.13672,-2.48046 0.89028,-0.78537 1.61019,-1.34547 2.33399,-2.68946 0.69831,-1.29667 0.83623,-2.25751 1.06445,-3.52148 0.22822,-1.26398 0.41163,-2.72014 0.57227,-4.345706 0.32126,-3.251137 0.54683,-7.163262 0.71093,-11.083984 0.32822,-7.841443 0.40426,-15.6509 0.4043,-17.845703 4e-5,-1.99573 -0.0783,-9.03647 -0.4082,-16.115235 -0.16496,-3.539382 -0.39091,-7.069814 -0.71485,-10.013671 -0.16196,-1.471929 -0.34507,-2.791421 -0.58007,-3.955079 -0.235,-1.163657 -0.3601,-2.068392 -1.16211,-3.367187 -0.77378,-1.253063 -1.53705,-1.853914 -2.51758,-2.683594 -0.98053,-0.829679 -2.14907,-1.715978 -3.47656,-2.667969 -2.655,-1.903981 -5.93065,-4.055462 -9.24415,-6.158203 -6.62698,-4.205481 -13.35279,-8.175788 -15.2539,-9.273437 -1.72874,-0.998128 -7.86455,-4.451689 -14.16016,-7.7050782 -3.1478,-1.6266947 -6.31779,-3.1954375 -9.02929,-4.3867188 -1.35576,-0.5956407 -2.59153,-1.0963391 -3.7168,-1.4746094 -1.12527,-0.3782703 -1.97038,-0.7229024 -3.49609,-0.6777344 z"
         transform="scale(-1)" />
      <g
         transform="matrix(0.33888822,0,0,0.33888822,-517.56944,-107.65475)"
         id="g9876"
         style="fill:#aad400;stroke:none">
        <path
           inkscape:connector-curvature="0"
           style="fill:#aad400;stroke:none;stroke-width:0.26458299"
           d="m -282.37679,5.1205553 c -2.06178,-0.50194 -3.94322,-2.21416 -4.25414,-3.87154 -0.0986,-0.52539002 -0.12202,-1.74833002 -0.0521,-2.71764 0.53988,-7.48625 10.94601,-17.7537373 22.16563,-21.8703093 1.50289,-0.551424 2.63731,-0.760336 4.67539,-0.861013 2.40917,-0.119004 2.81974,-0.07061 3.92006,0.462042 1.75186,0.848058 2.55333,2.167102 2.71837,4.473834 0.5371,7.506586 -8.83575,18.45066628 -19.61644,22.9048863 -3.50524,1.44825 -7.28325,2.03322 -9.55676,1.47974 z"
           id="path9824" />
        <path
           inkscape:connector-curvature="0"
           style="fill:#aad400;stroke:none;stroke-width:0.26458299"
           d="m -262.14923,58.276575 c -3.8758,-0.59194 -6.85649,-2.436 -8.16273,-5.05002 -0.69506,-1.39094 -0.82004,-1.93914 -0.82004,-3.59707 0,-1.07581 0.18909,-2.78738 0.4202,-3.80348 l 0.42019,-1.84746 2.55637,-1.28522 c 4.19838,-2.11073 11.26111,-6.2374 15.99455,-9.34542 l 4.44235,-2.91689 0.68225,0.63149 c 2.59714,2.40392 8.81042,10.38718 11.83786,15.21009 l 1.47811,2.35474 -0.65328,0.53399 c -1.03948,0.84968 -6.9023,3.94246 -9.79422,5.16669 -7.3552,3.11364 -14.22148,4.58699 -18.40161,3.94856 z"
           id="path9826" />
        <path
           inkscape:connector-curvature="0"
           style="fill:#aad400;stroke:none;stroke-width:0.26458299"
           d="m -217.35543,-37.405187 c -0.18191,-0.0734 -0.47956,-0.0734 -0.66146,0 -0.1819,0.0734 -0.0331,0.133453 0.33073,0.133453 0.3638,0 0.51263,-0.06006 0.33073,-0.133453 z"
           id="path9828" />
        <path
           inkscape:connector-curvature="0"
           style="fill:#aad400;stroke:none;stroke-width:0.26458299"
           d="m -232.08793,-36.142466 c -0.092,-0.148849 -0.36311,-0.195482 -0.60247,-0.103629 -0.38257,0.146809 -0.37355,0.189386 0.0746,0.352107 0.59155,0.214776 0.76399,0.133602 0.52785,-0.248478 z"
           id="path9830" />
        <path
           inkscape:connector-curvature="0"
           style="fill:#aad400;stroke:none;stroke-width:0.26458299"
           d="m -210.34949,-35.537729 c -0.0879,-0.08792 -0.31612,-0.09732 -0.50712,-0.02088 -0.21106,0.08446 -0.14837,0.147156 0.15986,0.159851 0.27891,0.01148 0.43518,-0.05105 0.34726,-0.138964 z"
           id="path9832" />
        <path
           inkscape:connector-curvature="0"
           style="fill:#aad400;stroke:none;stroke-width:0.26458299"
           d="m -220.73075,-32.199846 c 0.0927,-0.149982 -0.0135,-0.194337 -0.24896,-0.103984 -0.45837,0.175892 -0.54224,0.365538 -0.16165,0.365538 0.13693,0 0.32171,-0.1177 0.41061,-0.261554 z"
           id="path9834" />
        <path
           inkscape:connector-curvature="0"
           style="fill:#aad400;stroke:none;stroke-width:0.26458299"
           d="m -210.64957,-8.9650447 c 0.27722,-0.31605 0.36537,-0.4939 0.1959,-0.39522 -0.16947,0.0987 -0.35832,0.0894 -0.41966,-0.0207 -0.0613,-0.11005 -0.0808,-0.0658 -0.0433,0.0984 0.0375,0.16417 -0.0653,0.43206 -0.22857,0.59532 -0.16326,0.16325 -0.23194,0.29682 -0.15263,0.29682 0.0793,0 0.37102,-0.25859 0.64823,-0.57464 z"
           id="path9836" />
        <path
           inkscape:connector-curvature="0"
           style="fill:#aad400;stroke:none;stroke-width:0.26458299"
           d="m -218.67835,7.3093753 c -0.1819,-0.0734 -0.47956,-0.0734 -0.66146,0 -0.1819,0.0734 -0.0331,0.13345 0.33073,0.13345 0.3638,0 0.51263,-0.0601 0.33073,-0.13345 z"
           id="path9838" />
        <path
           inkscape:connector-curvature="0"
           style="fill:#aad400;stroke:none;stroke-width:0.26458299"
           d="m -204.98616,7.7800453 c 0,-0.12855 -0.24493,-0.29777 -0.54429,-0.37606 -0.44661,-0.11679 -0.48828,-0.0748 -0.23219,0.23373 0.34933,0.42091 0.77648,0.49921 0.77648,0.14233 z"
           id="path9840" />
        <path
           inkscape:connector-curvature="0"
           style="fill:#aad400;stroke:none;stroke-width:0.26458299"
           d="m -214.60541,7.8036453 c -0.27012,-0.0573 -0.60657,0.0114 -0.74767,0.15244 -0.16566,0.16566 0.008,0.20254 0.49113,0.1041 0.55376,-0.11291 0.62029,-0.17944 0.25654,-0.25654 z"
           id="path9842" />
        <path
           inkscape:connector-curvature="0"
           style="fill:#aad400;stroke:none;stroke-width:0.26458299"
           d="m -234.75366,14.366785 c 0.0927,-0.14999 -0.0135,-0.19434 -0.24897,-0.10399 -0.45837,0.17589 -0.54223,0.36554 -0.16165,0.36554 0.13693,0 0.32171,-0.1177 0.41062,-0.26155 z"
           id="path9844" />
        <path
           inkscape:connector-curvature="0"
           style="fill:#aad400;stroke:none;stroke-width:0.26458299"
           d="m -235.53854,20.500265 c -0.0815,-0.0815 -0.29495,-1.7e-4 -0.47443,0.18065 -0.25936,0.26131 -0.22897,0.2917 0.14811,0.14812 0.26094,-0.0994 0.40778,-0.24731 0.32632,-0.32877 z"
           id="path9846" />
        <path
           inkscape:connector-curvature="0"
           style="fill:#aad400;stroke:none;stroke-width:0.26458299"
           d="m -237.13304,21.507505 c -0.0899,-0.14552 -0.30532,-0.26276 -0.47864,-0.26054 -0.18933,0.002 -0.1567,0.10643 0.0818,0.26054 0.50829,0.32848 0.59989,0.32848 0.39687,0 z"
           id="path9848" />
        <path
           inkscape:connector-curvature="0"
           style="fill:#aad400;stroke:none;stroke-width:0.26458299"
           d="m -248.11325,28.150395 c 0,-0.12996 -0.19543,-0.31127 -0.43429,-0.40293 -0.36314,-0.13935 -0.37951,-0.10064 -0.0999,0.23627 0.38103,0.45912 0.53419,0.5069 0.53419,0.16666 z"
           id="path9850" />
        <path
           inkscape:connector-curvature="0"
           style="fill:#aad400;stroke:none;stroke-width:0.26458299"
           d="m -217.68616,39.763755 c 0,-0.14552 -0.12609,-0.26459 -0.2802,-0.26459 -0.15411,0 -0.20662,0.11907 -0.11668,0.26459 0.0899,0.14552 0.21603,0.26458 0.2802,0.26458 0.0642,0 0.11668,-0.11906 0.11668,-0.26458 z"
           id="path9852" />
        <path
           inkscape:connector-curvature="0"
           style="fill:#aad400;stroke:none;stroke-width:0.26458299"
           d="m -220.99346,40.292915 c 0.0899,-0.14552 0.0374,-0.26458 -0.11667,-0.26458 -0.15411,0 -0.2802,0.11906 -0.2802,0.26458 0,0.14552 0.0525,0.26459 0.11668,0.26459 0.0642,0 0.19026,-0.11907 0.28019,-0.26459 z"
           id="path9854" />
        <path
           inkscape:connector-curvature="0"
           style="fill:#aad400;stroke:none;stroke-width:0.26458299"
           d="m -219.40596,40.822085 c 0.0899,-0.14552 0.0445,-0.26458 -0.10106,-0.26458 -0.14552,0 -0.33816,0.11906 -0.4281,0.26458 -0.0899,0.14552 -0.0445,0.26458 0.10106,0.26458 0.14552,0 0.33817,-0.11906 0.4281,-0.26458 z"
           id="path9856" />
        <path
           inkscape:connector-curvature="0"
           style="fill:#aad400;stroke:none;stroke-width:0.26458299"
           d="m -221.35658,41.946565 c 0.32911,-0.41965 0.31975,-0.429 -0.0999,-0.0999 -0.25466,0.19972 -0.46302,0.40808 -0.46302,0.46302 0,0.21777 0.21728,0.0776 0.56292,-0.36312 z"
           id="path9858" />
        <path
           inkscape:connector-curvature="0"
           style="fill:#aad400;stroke:none;stroke-width:0.26458299"
           d="m -205.62447,46.181005 c -0.0904,-0.0904 -0.31111,-0.006 -0.49058,0.18764 -0.25906,0.27937 -0.25816,0.31342 0.004,0.16518 0.18917,-0.1068 0.33966,-0.0385 0.35161,0.15962 0.0171,0.28445 0.0457,0.28429 0.15985,-7.9e-4 0.0764,-0.191 0.0651,-0.42119 -0.0253,-0.51153 z"
           id="path9860" />
        <path
           inkscape:connector-curvature="0"
           style="fill:#aad400;stroke:none;stroke-width:0.26458299"
           d="m -209.01632,51.140835 c 0.18176,-0.29104 0.23904,-0.52917 0.12729,-0.52917 -0.11175,0 -0.35189,0.23813 -0.53365,0.52917 -0.18176,0.29104 -0.23904,0.52917 -0.12729,0.52917 0.11175,0 0.3519,-0.23813 0.53365,-0.52917 z"
           id="path9862" />
        <path
           inkscape:connector-curvature="0"
           style="fill:#aad400;stroke:none;stroke-width:0.26458299"
           d="m -218.21533,58.549165 c 0.21828,-0.14106 0.27781,-0.25648 0.13229,-0.25648 -0.14552,0 -0.44318,0.11542 -0.66146,0.25648 -0.21828,0.14107 -0.27781,0.25648 -0.13229,0.25648 0.14552,0 0.44318,-0.11541 0.66146,-0.25648 z"
           id="path9864" />
        <path
           inkscape:connector-curvature="0"
           style="fill:#aad400;stroke:none;stroke-width:0.26458299"
           d="m -220.22696,59.827985 c -0.0749,-0.12127 -0.2483,-0.22048 -0.38524,-0.22048 -0.13693,0 -0.24896,0.0992 -0.24896,0.22048 0,0.12127 0.17335,0.22049 0.38523,0.22049 0.21188,0 0.32392,-0.0992 0.24897,-0.22049 z"
           id="path9866" />
        <path
           inkscape:connector-curvature="0"
           style="fill:#aad400;stroke:none;stroke-width:0.26458299"
           d="m -221.12575,60.809985 c 0,-0.20415 -0.78747,-0.36836 -0.89924,-0.18752 -0.0673,0.10896 0.10745,0.21542 0.38841,0.23659 0.28096,0.0212 0.51083,-8e-4 0.51083,-0.0491 z"
           id="path9868" />
        <path
           inkscape:connector-curvature="0"
           style="fill:#aad400;stroke:none;stroke-width:0.26458299"
           d="m -225.77857,62.584065 c -0.25197,-0.71319 -0.21761,-0.74553 1.73486,-1.63246 3.99884,-1.81651 7.42247,-4.11669 10.72333,-7.20447 0.90349,-0.84518 1.72948,-1.44993 1.83552,-1.34389 0.10603,0.10604 0.15311,0.0196 0.1046,-0.19205 -0.0485,-0.21167 0.079,-0.39026 0.28346,-0.39688 0.20441,-0.007 0.40435,-0.23485 0.44433,-0.5072 0.04,-0.27235 0.36996,-0.80813 0.73331,-1.19063 1.06579,-1.12192 3.53889,-5.23937 4.02371,-6.699 0.63357,-1.90751 0.40132,-4.15515 -0.55953,-5.41488 -0.98596,-1.29267 -3.21172,-2.28692 -5.17941,-2.31365 l -1.51932,-0.0206 -3.71395,3.65546 c -2.31751,2.281 -3.83163,3.58273 -4.0269,3.46205 -0.18693,-0.11553 -0.24296,-0.0802 -0.13915,0.0878 0.23063,0.37317 -3.98137,3.84962 -4.37178,3.60834 -0.1797,-0.11107 -0.22708,-0.0675 -0.11821,0.10866 0.1647,0.2665 -5.25578,4.33169 -5.82981,4.37217 -0.20582,0.0145 -1.39963,-1.87153 -1.40955,-2.22687 -0.002,-0.0858 0.26354,-0.28045 0.59096,-0.4326 1.01532,-0.47179 5.46308,-3.92304 8.36221,-6.48867 1.52127,-1.34627 2.8666,-2.418 2.98963,-2.38162 0.12302,0.0364 0.19391,-0.0355 0.15753,-0.15972 -0.0364,-0.12423 0.8955,-1.34462 2.07083,-2.71198 1.17534,-1.36736 2.64795,-3.18471 3.27247,-4.03856 0.62451,-0.85384 1.21068,-1.44916 1.3026,-1.32291 0.0919,0.12624 0.34572,0.26921 0.564,0.31772 0.21828,0.0485 0.30861,-7e-5 0.20073,-0.10795 -0.10787,-0.10788 -0.0483,-0.38569 0.1323,-0.61736 0.29159,-0.37397 0.27578,-0.37989 -0.14099,-0.0528 -0.88733,0.69644 -0.78965,0.0442 0.22898,-1.52903 0.56111,-0.8666 1.13104,-1.50714 1.26652,-1.42342 0.13547,0.0837 0.16931,0.0276 0.0752,-0.12462 -0.0941,-0.15226 0.2264,-0.93695 0.71223,-1.74375 1.47513,-2.44969 2.35388,-5.48963 2.38414,-8.24762 0.0229,-2.08455 -0.067,-2.58403 -0.72111,-4.00878 -0.41099,-0.89515 -1.08921,-1.95516 -1.50717,-2.35559 -0.41796,-0.40044 -0.68554,-0.85867 -0.59463,-1.0183 0.0909,-0.15963 0.0794,-0.21355 -0.0255,-0.1198 -0.10495,0.0937 -0.95482,-0.2277897 -1.88861,-0.7145097 -0.93378,-0.48672 -2.12894,-0.96583 -2.6559,-1.06469 -0.52696,-0.0989 -0.83809,-0.25358 -0.69138,-0.34383 0.1467,-0.0902 -1.04466,-0.12345 -2.64746,-0.0738 l -2.9142,0.0903 -5.06543,5.0903197 c -2.78599,2.79968 -5.9584,5.8621 -7.0498,6.80538 -4.08508,3.53064 -6.36624,5.27511 -6.66036,5.09333 -0.1756,-0.10852 -0.22808,-0.0685 -0.12622,0.0963 0.0997,0.16128 -1.14781,1.26181 -2.9127,2.56957 l -3.08705,2.28748 -1.54641,-1.53028 c -0.85053,-0.84165 -1.51572,-1.60989 -1.47819,-1.70719 0.16159,-0.41904 4.48271,-3.40845 4.71728,-3.26348 0.14236,0.088 0.22612,0.0468 0.18614,-0.0915 -0.1089,-0.37667 6.71785,-6.13985 7.04948,-5.95121 0.15738,0.0895 0.1934,0.0609 0.08,-0.0637 -0.24845,-0.273 3.2451,-3.86063 3.56617,-3.6622 0.12371,0.0764 0.19221,0.0219 0.15223,-0.12122 -0.04,-0.14312 0.46888,-0.83658 1.13081,-1.54102 1.39239,-1.48179 4.88532,-5.6238797 6.59217,-7.8173297 0.90029,-1.15695 1.25481,-1.44288 1.5181,-1.22437 0.23111,0.1918 0.34351,0.19512 0.34351,0.0102 0,-0.15122 -0.13981,-0.32154 -0.31069,-0.3785 -0.18934,-0.0631 0.14852,-0.76928 0.86499,-1.80798002 2.58254,-3.74398998 5.32622,-8.24083998 6.31366,-10.34797998 3.09626,-6.6072563 3.2105,-14.0949193 0.28248,-18.5154193 -2.02713,-3.060419 -5.63479,-5.3804 -10.06086,-6.469861 -2.13008,-0.524312 -6.88443,-0.665322 -10.58333,-0.313892 l -1.98438,0.188535 1.98438,-0.658178 c 4.51498,-1.497528 11.65267,-2.974422 16.53645,-3.421634 2.30858,-0.211399 6.03797,0.219451 8.4503,0.976249 2.10015,0.65886 5.08914,2.54979 4.95526,3.134844 -0.0485,0.211971 -7.9e-4,0.29804 0.10594,0.191265 0.28258,-0.282578 1.34731,0.959855 2.10653,2.458114 1.92007,3.789079 1.91382,8.50723 -0.0188,14.172158 -0.70845,2.076653 -4.09342,9.1349093 -4.74296,9.8899093 -0.18779,0.21828 -0.53946,0.78772 -0.78149,1.26542 -0.25802,0.50926 -0.56175,0.79333 -0.73424,0.68672 -0.187,-0.11557 -0.21916,-0.0604 -0.0883,0.15139 0.25768,0.41694 -3.42085,5.88455998 -6.72846,10.00089 -1.31535,1.63696 -2.39154,3.01941 -2.39154,3.07209 0,0.0527 1.13818,-0.17935 2.52929,-0.51566 7.69577,-1.86048 12.54416,-1.30553 15.30644,1.75198 1.28534,1.42272 1.74476,2.5503597 1.9276,4.7312597 0.26734,3.18878 -1.25696,7.62243 -4.4222,12.86265 -0.7468,1.23636 -1.45453,2.18816 -1.57273,2.11511 -0.1182,-0.073 -0.19859,0.0743 -0.17864,0.32735 0.0251,0.3182 -0.12698,0.43636 -0.49289,0.38299 -0.40381,-0.0589 -0.4421,-0.0185 -0.16161,0.17067 0.37534,0.25309 -0.45303,1.50476 -3.22833,4.87804 -0.57348,0.69705 -0.99278,1.31728 -0.93178,1.37828 0.061,0.061 0.82022,-0.0771 1.68715,-0.30697 2.26983,-0.60178 5.55348,-0.59322 6.80597,0.0177 0.623,0.30389 0.97004,0.64528 0.92605,0.91097 -0.0387,0.23371 0.10823,0.43048 0.32651,0.43725 0.21828,0.007 0.38055,0.21653 0.3606,0.46611 -0.0199,0.24959 0.0569,0.39623 0.17071,0.32587 0.31167,-0.19262 0.52702,0.56866 0.52702,1.86301 0,2.96865 -2.98295,8.34261 -6.97371,12.56356 -1.20199,1.27131 -1.59874,1.54447 -1.96276,1.35132 -0.31364,-0.16642 -0.56579,-0.12372 -0.80674,0.13662 -0.30002,0.32415 -0.24285,0.35188 0.39687,0.19252 0.70034,-0.17447 0.72241,-0.15557 0.35051,0.30026 -1.66421,2.03983 -8.63373,6.9587 -12.8879,9.09588 -1.42197,0.71436 -1.51024,0.70622 -1.81909,-0.16799 z"
           id="path9870" />
        <path
           inkscape:connector-curvature="0"
           style="fill:#aad400;stroke:none;stroke-width:0.26458299"
           d="m -236.26943,63.064825 c -2.26072,-0.73257 -3.6448,-2.47166 -3.63812,-4.57126 0.006,-1.8412 0.19326,-2.14106 1.92877,-3.08629 0.90172,-0.49111 2.69291,-1.55089 3.98043,-2.35506 1.89621,-1.18435 2.38977,-1.3917 2.59797,-1.09144 0.49749,0.71747 4.71838,9.3438 4.71838,9.64304 0,0.16663 -0.8632,0.57113 -1.91823,0.89888 -2.08981,0.64923 -6.42077,0.96667 -7.6692,0.56213 z"
           id="path9872" />
        <path
           inkscape:connector-curvature="0"
           style="fill:#aad400;stroke:none;stroke-width:0.26458299"
           d="m -221.9195,77.319585 c -1.70504,-0.91376 -6.28578,-2.62453 -9.52,-3.55544 -5.75405,-1.65619 -11.87512,-2.705 -20.37791,-3.49164 -7.19302,-0.66547 -27.89845,-0.66468 -37.43854,0.001 -17.34801,1.21127 -36.61515,3.55833 -53.80578,6.55444 -2.52631,0.4403 -4.651,0.74284 -4.72154,0.6723 -0.0705,-0.0705 0.81001,-1.35716 1.95678,-2.85915 9.60467,-12.57992 16.34706,-24.58743 19.8815,-35.40694 1.44433,-4.42133 1.84043,-6.06938 2.44289,-10.16417 2.02336,-13.75237 -1.92847,-25.3427097 -12.08808,-35.4532097 -3.17804,-3.16267 -3.25744,-3.0143 1.27982,-2.39165 34.12377,4.68287 60.79373,15.53832 80.42326,32.7346197 3.62858,3.17878 3.77856,2.54281 -1.34983,5.72367 -11.47544,7.11761 -23.4465,12.0049 -34.15131,13.94257 -3.49652,0.6329 -9.25722,0.63896 -12.03854,0.0126 -1.16417,-0.26215 -3.24464,-1.01883 -4.62326,-1.68151 -8.14957,-3.91735 -9.92392,-11.54765 -5.27957,-22.70387 0.45952,-1.10382 0.76771,-2.07472 0.68486,-2.15756 -0.0829,-0.0829 -1.17031,1.40745 -2.4166,3.31177 -8.77918,13.4146 -10.18046,23.38003 -4.1373,29.42319 4.62143,4.62143 13.63532,5.51075 25.29601,2.49573 5.01224,-1.29598 11.35976,-3.61147 16.93958,-6.17934 1.58859,-0.73108 2.9175,-1.30007 2.95314,-1.26443 0.0357,0.0356 -0.45757,1.07127 -1.09603,2.30139 -2.39999,4.62407 -3.21467,8.44056 -2.39998,11.243 0.83232,2.8631 2.54312,4.61821 5.58398,5.72861 2.18844,0.79914 6.83459,0.79469 10.61681,-0.0102 3.71574,-0.79069 8.94543,-2.64896 13.92487,-4.94793 2.88636,-1.3326 4.13112,-1.79565 4.00459,-1.48967 -1.83273,4.43176 -1.50295,6.88655 1.13334,8.43622 1.15191,0.67711 1.46777,0.73654 3.77076,0.70949 2.72708,-0.032 5.36416,-0.68144 8.86354,-2.18275 1.01865,-0.43702 1.92865,-0.71335 2.02222,-0.61407 0.46906,0.49767 4.89897,13.45911 4.67484,13.67809 -0.0454,0.0443 -0.49919,-0.14275 -1.00852,-0.4157 z"
           id="path9874" />
      </g>
      <path
         style="opacity:1;fill:#aad400;fill-opacity:1;stroke:none;stroke-width:0.26499999;stroke-miterlimit:4;stroke-dasharray:0.26499998, 0.52999996;stroke-dashoffset:0;stroke-opacity:1"
         d="m -595.66067,-5.3826665 c 4.20657,-0.1245341 27.81081,-13.4034365 31.45544,-15.5075805 3.27753,-1.8922 24.29647,-14.384699 26.09092,-17.716747 1.99544,-3.705266 2.29746,-30.786346 2.29753,-34.994763 7e-5,-3.654793 -0.28895,-26.576983 -2.09961,-31.044613 l -115.21881,66.144279 c 2.57812,3.734911 25.47565,17.298225 29.08608,19.382795 3.27746,1.892319 24.60559,13.8486197 28.38845,13.7366295 z"
         id="path9878"
         inkscape:connector-curvature="0" />
      <g
         id="g9884"
         transform="matrix(1.0633769,0,0,1.0633769,25.308347,7.3075377)"
         style="fill:#aad400;stroke:none">
        <path
           inkscape:connector-curvature="0"
           style="fill:#aad400;stroke:none;stroke-width:0.10101996"
           d="m -592.01402,-46.193314 h -12.93055 c -0.59511,0 -1.07758,-0.482471 -1.07758,-1.077579 0,-0.595109 0.48247,-1.077479 1.07758,-1.077479 h 12.93055 c 0.59511,0 1.07758,0.482472 1.07758,1.07758 0,0.595108 -0.48247,1.077478 -1.07758,1.077478 z"
           id="path9880" />
        <path
           inkscape:connector-curvature="0"
           style="fill:#aad400;stroke:none;stroke-width:0.10101996"
           d="m -598.47929,-39.728036 c -0.59511,0 -1.07758,-0.482472 -1.07758,-1.07758 V -53.73617 c 0,-0.595008 0.48247,-1.077479 1.07758,-1.077479 0.59511,0 1.07757,0.482471 1.07757,1.07758 v 12.930554 c -1e-4,0.595108 -0.48246,1.077479 -1.07757,1.077479 z"
           id="path9882" />
      </g>
      <g
         id="g9888"
         transform="matrix(1.0633769,0,0,1.0633769,-100.89803,16.551955)"
         style="fill:#aad400;stroke:none">
        <path
           inkscape:connector-curvature="0"
           style="fill:#aad400;stroke:none;stroke-width:0.10101996"
           d="m -448.26753,-73.58709 h -10.77539 c -0.59511,0 -1.07759,-0.482471 -1.07759,-1.077579 0,-0.595109 0.48248,-1.077479 1.07759,-1.077479 h 10.77549 c 0.59511,0 1.07758,0.482472 1.07758,1.07758 0,0.595108 -0.48257,1.077478 -1.07768,1.077478 z"
           id="path9886" />
      </g>
      <g
         id="g9894"
         transform="matrix(1.0633769,0,0,1.0633769,-59.097196,-3.9465347)"
         style="fill:#aad400;stroke:none">
        <path
           inkscape:connector-curvature="0"
           style="fill:#aad400;stroke:none;stroke-width:0.10101996"
           d="m -486.82394,-21.766932 c -0.3275,7.37e-4 -0.63763,-0.14759 -0.8426,-0.402968 l -8.62034,-10.775496 c -0.37196,-0.464792 -0.29669,-1.143041 0.1681,-1.514996 0.46479,-0.371955 1.14304,-0.296696 1.51499,0.168097 v 0 l 8.62034,10.775496 c 0.37135,0.464995 0.29538,1.143041 -0.16961,1.51439 -0.19052,0.152135 -0.42701,0.235174 -0.67088,0.235477 z"
           id="path9890" />
        <path
           inkscape:connector-curvature="0"
           style="fill:#aad400;stroke:none;stroke-width:0.10101996"
           d="m -495.44427,-21.766932 c -0.59511,3.03e-4 -1.07779,-0.481764 -1.07819,-1.076974 -10e-5,-0.244569 0.0829,-0.481865 0.23548,-0.672994 l 8.62033,-10.775496 c 0.37196,-0.464792 1.05021,-0.540052 1.515,-0.168097 0.46479,0.371955 0.54005,1.050203 0.1681,1.514996 l -8.62024,10.775597 c -0.20456,0.254772 -0.51368,0.403069 -0.84048,0.402968 z"
           id="path9892" />
      </g>
      <path
         id="path9896"
         d="m -548.51639,-46.174618 c -0.40283,1.07e-4 -0.77613,-0.211299 -0.98312,-0.556877 l -6.87503,-11.458413 c -0.31614,-0.548177 -0.12795,-1.248892 0.42023,-1.565035 0.53432,-0.308087 1.21656,-0.138038 1.54377,0.384786 l 6.87503,11.458413 c 0.32657,0.542053 0.15179,1.246206 -0.39027,1.57277 -0.17833,0.107423 -0.38242,0.164248 -0.59061,0.164356 z"
         style="fill:#aad400;stroke:none;stroke-width:0.1074223"
         inkscape:connector-curvature="0" />
    </g>
    <path
       style="font-style:normal;font-variant:normal;font-weight:900;font-stretch:normal;font-size:90.54152679px;line-height:1.25;font-family:Montserrat;-inkscape-font-specification:'Montserrat Heavy';letter-spacing:0px;word-spacing:0px;fill:#ffffff;fill-opacity:1;stroke:none;stroke-width:8.55510426"
       d="M 497.75781 54.03125 C 423.49947 54.03125 386.19922 90.304472 386.19922 134.79102 C 386.19922 224.10631 518.63086 199.80986 518.63086 229.92383 C 518.63086 238.13673 510.41791 242.92773 487.49023 242.92773 C 461.1405 242.92773 431.02688 234.37331 408.44141 221.02734 L 382.43359 279.88672 C 406.3879 294.6015 446.76874 304.52539 486.80664 304.52539 C 561.06495 304.52539 598.36523 267.56581 598.36523 223.76367 C 598.36523 135.47499 465.93164 159.4307 465.93164 130.68555 C 465.93164 122.47264 473.4602 115.62695 497.07227 115.62695 C 517.94675 115.62695 540.19067 121.44473 563.80273 133.42188 L 588.09961 74.90625 C 563.11871 60.875876 529.92499 54.03125 497.75781 54.03125 z M 622.32031 59.505859 L 622.32031 299.04883 L 703.08008 299.04883 L 703.08008 59.505859 L 622.32031 59.505859 z M 742.08984 59.505859 L 742.08984 299.04883 L 821.48242 299.04883 L 821.48242 239.84766 L 839.61914 219.6582 L 899.50391 299.04883 L 992.92578 299.04883 L 1054.2832 299.04883 L 1070.3672 257.30078 L 1161.3926 257.30078 L 1177.4766 299.04883 L 1260.9746 299.04883 L 1156.2598 59.505859 L 1076.8691 59.505859 L 979.80273 281.55078 L 892.31836 164.9043 L 988.13477 59.505859 L 900.18945 59.505859 L 821.48242 146.42578 L 821.48242 59.505859 L 742.08984 59.505859 z M 1196.543 59.505859 L 1297.834 299.04883 L 1377.2266 299.04883 L 1478.5195 59.505859 L 1399.127 59.505859 L 1340.6113 199.46875 L 1283.4629 59.505859 L 1196.543 59.505859 z M 1115.8809 138.89844 L 1139.1504 199.125 L 1092.6113 199.125 L 1115.8809 138.89844 z "
       transform="matrix(0.26458333,0,0,0.26458333,-508.17667,-96.975897)"
       id="path949" />
    <path
       inkscape:connector-curvature="0"
       id="path3480"
       style="font-style:normal;font-variant:normal;font-weight:normal;font-stretch:normal;font-size:32.84695816px;line-height:0;font-family:Franchise;-inkscape-font-specification:Franchise;letter-spacing:0px;word-spacing:0px;fill:#ffffff;fill-opacity:1;stroke:none;stroke-width:0.59225076"
       d="m -98.457422,-65.153165 q 0.30798,1.137121 0.75808,2.037342 0.45012,0.876531 1.04237,1.634612 0.18952,0.21321 -0.0237,0.426421 l -0.59225,0.59225 q -0.21321,0.213211 -0.42643,0 -0.97129,-0.876531 -1.72936,-1.942583 -0.734388,-1.06605 -1.231888,-2.392692 -1.01867,-2.558524 -1.01867,-6.159408 0,-3.553504 1.01867,-6.159408 0.4975,-1.302951 1.231888,-2.369003 0.75807,-1.089742 1.72936,-1.966272 0.21322,-0.213211 0.42643,0 l 0.59225,0.592251 q 0.21321,0.213209 0.0237,0.42642 -0.59225,0.758081 -1.04237,1.658303 -0.4501,0.876531 -0.75808,2.013652 -0.33166,1.137122 -0.52117,2.558522 -0.16584,1.421403 -0.16584,3.245535 0,1.824132 0.16584,3.245534 0.18951,1.421402 0.52117,2.558524 z" />
    <path
       inkscape:connector-curvature="0"
       id="path3482"
       style="font-style:normal;font-variant:normal;font-weight:normal;font-stretch:normal;font-size:32.84695816px;line-height:0;font-family:Franchise;-inkscape-font-specification:Franchise;letter-spacing:0px;word-spacing:0px;fill:#ffffff;fill-opacity:1;stroke:none;stroke-width:0.59225076"
       d="m -91.753172,-79.414563 q 0.61595,0 1.16082,0.2369 0.54486,0.236899 0.9476,0.639631 0.40272,0.40273 0.63962,0.947601 0.2369,0.54487 0.2369,1.160811 v 0.900221 q 0,0.33166 -0.30797,0.426421 l -2.15578,0.56856 q -0.30798,0.09476 -0.30798,-0.2369 v -1.539851 q 0,-0.236901 -0.16583,-0.402731 -0.16583,-0.16583 -0.40273,-0.16583 h -0.18952 q -0.2369,0 -0.40273,0.16583 -0.16583,0.16583 -0.16583,0.402731 v 2.155792 q 0.0237,0.26059 0.0948,0.45011 0.0711,0.189521 0.26059,0.379042 l 3.1034,2.321622 q 0.37904,0.331661 0.4738,0.687011 0.11844,0.33166 0.16582,0.758081 v 4.074686 q 0,0.61594 -0.2369,1.160811 -0.2369,0.54487 -0.63962,0.9476 -0.40273,0.402731 -0.9476,0.639631 -0.54487,0.236901 -1.16082,0.236901 h -0.90022 q -0.61593,0 -1.16081,-0.236901 -0.54487,-0.2369 -0.9476,-0.639631 -0.40273,-0.40273 -0.63963,-0.9476 -0.2369,-0.544871 -0.2369,-1.160811 v -2.274243 q 0,-0.331661 0.30797,-0.426422 l 2.1558,-0.56856 q 0.30796,-0.09476 0.30796,0.2369 v 2.913874 q 0,0.2369 0.16583,0.40273 0.16584,0.16583 0.40274,0.16583 h 0.18951 q 0.2369,0 0.40274,-0.16583 0.16582,-0.16583 0.16582,-0.40273 v -3.127084 q -0.0237,-0.30797 -0.0948,-0.544872 -0.0711,-0.236899 -0.28427,-0.426419 l -3.05603,-2.345313 q -0.35534,-0.33166 -0.52117,-0.663322 -0.14214,-0.33166 -0.14214,-0.87653 v -2.842804 q 0,-0.615941 0.2369,-1.160811 0.2369,-0.544871 0.63963,-0.947601 0.40273,-0.402732 0.94759,-0.639631 0.54488,-0.2369 1.16082,-0.2369 z" />
    <path
       inkscape:connector-curvature="0"
       id="path3484"
       style="font-style:normal;font-variant:normal;font-weight:normal;font-stretch:normal;font-size:32.84695816px;line-height:0;font-family:Franchise;-inkscape-font-specification:Franchise;letter-spacing:0px;word-spacing:0px;fill:#ffffff;fill-opacity:1;stroke:none;stroke-width:0.59225076"
       d="m -84.21977,-62.997373 q 0,0.331661 -0.33167,0.331661 h -2.108412 q -0.33166,0 -0.33166,-0.331661 v -15.9197 q 0,-0.33166 0.33166,-0.33166 h 2.108412 q 0.33167,0 0.33167,0.33166 z" />
    <path
       inkscape:connector-curvature="0"
       id="path3486"
       style="font-style:normal;font-variant:normal;font-weight:normal;font-stretch:normal;font-size:32.84695816px;line-height:0;font-family:Franchise;-inkscape-font-specification:Franchise;letter-spacing:0px;word-spacing:0px;fill:#ffffff;fill-opacity:1;stroke:none;stroke-width:0.59225076"
       d="m -78.55789,-79.414563 q 0.61595,0 1.16081,0.2369 0.54488,0.236899 0.9476,0.639631 0.40274,0.40273 0.63964,0.947601 0.2369,0.54487 0.2369,1.160811 v 0.900221 q 0,0.33166 -0.30798,0.426421 l -2.15578,0.56856 q -0.30797,0.09476 -0.30797,-0.2369 v -1.539851 q 0,-0.236901 -0.16584,-0.402731 -0.16582,-0.16583 -0.40272,-0.16583 h -0.18953 q -0.2369,0 -0.40272,0.16583 -0.16584,0.16583 -0.16584,0.402731 v 2.155792 q 0.0237,0.26059 0.0948,0.45011 0.071,0.189521 0.26058,0.379042 l 3.10339,2.321622 q 0.37904,0.331661 0.47381,0.687011 0.11845,0.33166 0.16583,0.758081 v 4.074686 q 0,0.61594 -0.2369,1.160811 -0.2369,0.54487 -0.63964,0.9476 -0.40272,0.402731 -0.94759,0.639631 -0.54487,0.236901 -1.16082,0.236901 h -0.90021 q -0.61595,0 -1.16081,-0.236901 -0.54487,-0.2369 -0.94761,-0.639631 -0.40273,-0.40273 -0.63963,-0.9476 -0.2369,-0.544871 -0.2369,-1.160811 v -2.274243 q 0,-0.331661 0.30797,-0.426422 l 2.1558,-0.56856 q 0.30796,-0.09476 0.30796,0.2369 v 2.913874 q 0,0.2369 0.16584,0.40273 0.16582,0.16583 0.40273,0.16583 h 0.18952 q 0.2369,0 0.40272,-0.16583 0.16584,-0.16583 0.16584,-0.40273 v -3.127084 q -0.0237,-0.30797 -0.0948,-0.544872 -0.0711,-0.236899 -0.28428,-0.426419 l -3.05602,-2.345313 q -0.35536,-0.33166 -0.52118,-0.663322 -0.14214,-0.33166 -0.14214,-0.87653 v -2.842804 q 0,-0.615941 0.2369,-1.160811 0.2369,-0.544871 0.63963,-0.947601 0.40274,-0.402732 0.9476,-0.639631 0.54487,-0.2369 1.16082,-0.2369 z" />
    <path
       inkscape:connector-curvature="0"
       id="path3488"
       style="font-style:normal;font-variant:normal;font-weight:normal;font-stretch:normal;font-size:32.84695816px;line-height:0;font-family:Franchise;-inkscape-font-specification:Franchise;letter-spacing:0px;word-spacing:0px;fill:#ffffff;fill-opacity:1;stroke:none;stroke-width:0.59225076"
       d="m -68.18172,-79.248733 q 0.33166,0 0.33166,0.33166 v 2.108412 q 0,0.33166 -0.33166,0.33166 h -1.68198 v 13.479628 q 0,0.331661 -0.33167,0.331661 h -2.10842 q -0.11845,0 -0.2369,-0.09476 -0.0948,-0.09476 -0.0948,-0.2369 V -76.477 h -1.6583 q -0.33166,0 -0.33166,-0.33166 v -2.108412 q 0,-0.33166 0.33166,-0.33166 z" />
    <path
       inkscape:connector-curvature="0"
       id="path3490"
       style="font-style:normal;font-variant:normal;font-weight:normal;font-stretch:normal;font-size:32.84695816px;line-height:0;font-family:Franchise;-inkscape-font-specification:Franchise;letter-spacing:0px;word-spacing:0px;fill:#ffffff;fill-opacity:1;stroke:none;stroke-width:0.59225076"
       d="m -60.71939,-65.437446 q 0.33166,0 0.33166,0.331661 v 2.108412 q 0,0.331661 -0.33166,0.331661 h -5.14074 q -0.33166,0 -0.33166,-0.331661 v -15.9197 q 0,-0.33166 0.33166,-0.33166 h 5.14074 q 0.33166,0 0.33166,0.33166 v 2.108412 q 0,0.33166 -0.33166,0.33166 h -2.70067 v 3.411365 h 2.34532 q 0.33166,0 0.33166,0.33166 v 2.108413 q 0,0.331661 -0.33166,0.331661 h -2.34532 v 4.856456 z" />
    <path
       inkscape:connector-curvature="0"
       id="path3492"
       style="font-style:normal;font-variant:normal;font-weight:normal;font-stretch:normal;font-size:32.84695816px;line-height:0;font-family:Franchise;-inkscape-font-specification:Franchise;letter-spacing:0px;word-spacing:0px;fill:#ffffff;fill-opacity:1;stroke:none;stroke-width:0.59225076"
       d="m -49.46663,-79.248733 q 0.33165,0 0.33165,0.33166 v 15.9197 q 0,0.331661 -0.33165,0.331661 h -2.27424 q -0.33166,0 -0.33166,-0.331661 v -7.486049 l -1.56354,6.112027 q -0.0474,0.118451 -0.11845,0.118451 -0.0711,0 -0.11846,-0.118451 l -1.56355,-6.112027 v 7.486049 q 0,0.331661 -0.33166,0.331661 h -2.27423 q -0.33166,0 -0.33166,-0.331661 v -15.9197 q 0,-0.33166 0.33166,-0.33166 h 2.01366 q 0.14213,0 0.23689,0.118449 0.11845,0.09476 0.16583,0.213211 l 1.87152,8.48103 1.87151,-8.48103 q 0.0474,-0.11845 0.14214,-0.213211 0.11844,-0.118449 0.26058,-0.118449 z" />
    <path
       inkscape:connector-curvature="0"
       id="path3494"
       style="font-style:normal;font-variant:normal;font-weight:normal;font-stretch:normal;font-size:32.84695816px;line-height:0;font-family:Franchise;-inkscape-font-specification:Franchise;letter-spacing:0px;word-spacing:0px;fill:#ffffff;fill-opacity:1;stroke:none;stroke-width:0.59225076"
       d="m -41.10406,-62.997373 q 0,0.331661 -0.33167,0.331661 h -2.1084 q -0.33167,0 -0.33167,-0.331661 v -15.9197 q 0,-0.33166 0.33167,-0.33166 h 2.1084 q 0.33167,0 0.33167,0.33166 z" />
    <path
       inkscape:connector-curvature="0"
       id="path3496"
       style="font-style:normal;font-variant:normal;font-weight:normal;font-stretch:normal;font-size:32.84695816px;line-height:0;font-family:Franchise;-inkscape-font-specification:Franchise;letter-spacing:0px;word-spacing:0px;fill:#ffffff;fill-opacity:1;stroke:none;stroke-width:0.59225076"
       d="m -31.72283,-79.248733 q 0.33165,0 0.33165,0.33166 v 15.9197 q 0,0.331661 -0.33165,0.331661 H -33.239 q -0.14214,0 -0.28428,-0.09476 -0.11845,-0.09476 -0.16583,-0.21321 l -2.51114,-7.8414 v 7.81771 q 0,0.331661 -0.33166,0.331661 h -2.10842 q -0.33165,0 -0.33165,-0.331661 v -15.9197 q 0,-0.33166 0.33165,-0.33166 h 1.56355 q 0.14214,0 0.26058,0.09476 0.14215,0.09476 0.18953,0.213209 l 2.46376,7.604501 v -7.58081 q 0,-0.33166 0.33166,-0.33166 z" />
    <path
       inkscape:connector-curvature="0"
       id="path3498"
       style="font-style:normal;font-variant:normal;font-weight:normal;font-stretch:normal;font-size:32.84695816px;line-height:0;font-family:Franchise;-inkscape-font-specification:Franchise;letter-spacing:0px;word-spacing:0px;fill:#ffffff;fill-opacity:1;stroke:none;stroke-width:0.59225076"
       d="m -23.78668,-79.248733 q 0.33167,0 0.33167,0.33166 v 2.108412 q 0,0.33166 -0.33167,0.33166 h -2.70066 v 3.411365 h 2.34531 q 0.33166,0 0.33166,0.33166 v 2.108413 q 0,0.331661 -0.33166,0.331661 h -2.34531 v 7.296529 q 0,0.331661 -0.33166,0.331661 h -2.10842 q -0.33166,0 -0.33166,-0.331661 v -15.9197 q 0,-0.33166 0.33166,-0.33166 z" />
    <path
       inkscape:connector-curvature="0"
       id="path3500"
       style="font-style:normal;font-variant:normal;font-weight:normal;font-stretch:normal;font-size:32.84695816px;line-height:0;font-family:Franchise;-inkscape-font-specification:Franchise;letter-spacing:0px;word-spacing:0px;fill:#ffffff;fill-opacity:1;stroke:none;stroke-width:0.59225076"
       d="m -15.04507,-65.484825 q 0,0.61594 -0.2369,1.160811 -0.2369,0.54487 -0.63963,0.9476 -0.40273,0.402731 -0.9476,0.639631 -0.54487,0.236901 -1.16081,0.236901 h -0.90022 q -0.61593,0 -1.16081,-0.236901 -0.54487,-0.2369 -0.9476,-0.639631 -0.40274,-0.40273 -0.63964,-0.9476 -0.2369,-0.544871 -0.2369,-1.160811 V -76.42962 q 0,-0.615941 0.2369,-1.160811 0.2369,-0.544871 0.63964,-0.947601 0.40273,-0.402732 0.9476,-0.639631 0.54488,-0.2369 1.16081,-0.2369 h 0.90022 q 0.61594,0 1.16081,0.2369 0.54487,0.236899 0.9476,0.639631 0.40273,0.40273 0.63963,0.947601 0.2369,0.54487 0.2369,1.160811 z m -2.77173,-10.826344 q 0,-0.236901 -0.16583,-0.402731 -0.16583,-0.16583 -0.40273,-0.16583 h -0.18953 q -0.2369,0 -0.40272,0.16583 -0.16583,0.16583 -0.16583,0.402731 v 10.707893 q 0,0.2369 0.16583,0.40273 0.16582,0.16583 0.40272,0.16583 h 0.18953 q 0.2369,0 0.40273,-0.16583 0.16583,-0.16583 0.16583,-0.40273 z" />
    <path
       inkscape:connector-curvature="0"
       id="path3502"
       style="font-style:normal;font-variant:normal;font-weight:normal;font-stretch:normal;font-size:32.84695816px;line-height:0;font-family:Franchise;-inkscape-font-specification:Franchise;letter-spacing:0px;word-spacing:0px;fill:#ffffff;fill-opacity:1;stroke:none;stroke-width:0.59225076"
       d="m -5.8296804,-62.997373 q 0.0711,0.331661 -0.2369,0.331661 h -2.15579 q -0.14214,0 -0.28428,-0.09476 -0.11845,-0.09476 -0.16583,-0.2369 l -1.7293696,-5.804057 v 5.898817 q -0.0711,0.236901 -0.33166,0.236901 h -2.10841 q -0.33166,0 -0.33166,-0.331661 v -15.9197 q 0,-0.33166 0.33166,-0.33166 h 3.5534996 q 0.61594,0 1.16081,0.2369 0.54487,0.236901 0.9476,0.63963 0.40273,0.402731 0.63964,0.947602 0.23689,0.544871 0.23689,1.160812 v 3.861474 q 0,0.876531 -0.45011,1.587232 -0.45011,0.687011 -1.1845,1.066052 z m -4.5721696,-8.954831 h 0.7580796 q 0.2369,0 0.40273,-0.165831 0.16584,-0.16583 0.16584,-0.40273 v -3.624574 q 0,-0.236901 -0.16584,-0.402731 -0.16583,-0.16583 -0.40273,-0.16583 H -10.40185 Z" />
    <path
       inkscape:connector-curvature="0"
       id="path3504"
       style="font-style:normal;font-variant:normal;font-weight:normal;font-stretch:normal;font-size:32.84695816px;line-height:0;font-family:Franchise;-inkscape-font-specification:Franchise;letter-spacing:0px;word-spacing:0px;fill:#ffffff;fill-opacity:1;stroke:none;stroke-width:0.59225076"
       d="m 4.6649996,-79.248733 q 0.33166,0 0.33166,0.33166 v 15.9197 q 0,0.331661 -0.33166,0.331661 h -2.27425 q -0.33166,0 -0.33166,-0.331661 v -7.486049 l -1.56353998,6.112027 q -0.0474,0.118451 -0.11845,0.118451 -0.0711,0 -0.11845,-0.118451 l -1.56355002,-6.112027 v 7.486049 q 0,0.331661 -0.33165,0.331661 h -2.27424 q -0.33167,0 -0.33167,-0.331661 v -15.9197 q 0,-0.33166 0.33167,-0.33166 h 2.01364 q 0.14214,0 0.2369,0.118449 0.11845,0.09476 0.16584,0.213211 l 1.87151002,8.48103 1.87150998,-8.48103 q 0.0474,-0.11845 0.14214,-0.213211 0.11845,-0.118449 0.26059,-0.118449 z" />
    <path
       inkscape:connector-curvature="0"
       id="path3506"
       style="font-style:normal;font-variant:normal;font-weight:normal;font-stretch:normal;font-size:32.84695816px;line-height:0;font-family:Franchise;-inkscape-font-specification:Franchise;letter-spacing:0px;word-spacing:0px;fill:#ffffff;fill-opacity:1;stroke:none;stroke-width:0.59225076"
       d="m 13.99885,-62.997373 q 0.0474,0.331661 -0.28428,0.331661 h -2.15579 q -0.30796,0 -0.35535,-0.331661 l -0.18951,-2.558523 H 9.5451395 l -0.18953,2.558523 q -0.0474,0.331661 -0.35535,0.331661 h -2.15579 q -0.33166,0 -0.28428,-0.331661 l 1.77674,-15.9197 q 0.0474,-0.33166 0.37905,-0.33166 H 11.84307 q 0.33166,0 0.37903,0.33166 z m -3.17445,-5.211807 -0.45011,-6.419997 h -0.18953 l -0.4501105,6.419997 z" />
    <path
       inkscape:connector-curvature="0"
       id="path3508"
       style="font-style:normal;font-variant:normal;font-weight:normal;font-stretch:normal;font-size:32.84695816px;line-height:0;font-family:Franchise;-inkscape-font-specification:Franchise;letter-spacing:0px;word-spacing:0px;fill:#ffffff;fill-opacity:1;stroke:none;stroke-width:0.59225076"
       d="m 19.09219,-79.414563 q 0.61594,0 1.16081,0.2369 0.54487,0.236899 0.9476,0.639631 0.40273,0.40273 0.63964,0.947601 0.2369,0.54487 0.2369,1.160811 v 0.900221 q 0,0.33166 -0.30798,0.426421 l -2.15579,0.56856 q -0.30798,0.09476 -0.30798,-0.2369 v -1.539851 q 0,-0.236901 -0.16582,-0.402731 -0.16583,-0.16583 -0.40273,-0.16583 h -0.18952 q -0.2369,0 -0.40274,0.16583 -0.16582,0.16583 -0.16582,0.402731 v 2.155792 q 0.0237,0.26059 0.0948,0.45011 0.0711,0.189521 0.26059,0.379042 l 3.10339,2.321622 q 0.37904,0.331661 0.4738,0.687011 0.11846,0.33166 0.16584,0.758081 v 4.074686 q 0,0.61594 -0.2369,1.160811 -0.2369,0.54487 -0.63964,0.9476 -0.40273,0.402731 -0.9476,0.639631 -0.54487,0.236901 -1.16081,0.236901 H 18.192 q -0.61593,0 -1.16081,-0.236901 -0.54487,-0.2369 -0.94759,-0.639631 -0.40274,-0.40273 -0.63963,-0.9476 -0.2369,-0.544871 -0.2369,-1.160811 v -2.274243 q 0,-0.331661 0.30796,-0.426422 l 2.1558,-0.56856 q 0.30797,-0.09476 0.30797,0.2369 v 2.913874 q 0,0.2369 0.16582,0.40273 0.16584,0.16583 0.40274,0.16583 h 0.18952 q 0.2369,0 0.40273,-0.16583 0.16583,-0.16583 0.16583,-0.40273 v -3.127084 q -0.0237,-0.30797 -0.0948,-0.544872 -0.0711,-0.236899 -0.28427,-0.426419 l -3.05601,-2.345313 q -0.35536,-0.33166 -0.52118,-0.663322 -0.14215,-0.33166 -0.14215,-0.87653 v -2.842804 q 0,-0.615941 0.23691,-1.160811 0.23689,-0.544871 0.63962,-0.947601 0.40273,-0.402732 0.9476,-0.639631 0.54488,-0.2369 1.16081,-0.2369 z" />
    <path
       inkscape:connector-curvature="0"
       id="path3510"
       style="font-style:normal;font-variant:normal;font-weight:normal;font-stretch:normal;font-size:32.84695816px;line-height:0;font-family:Franchise;-inkscape-font-specification:Franchise;letter-spacing:0px;word-spacing:0px;fill:#ffffff;fill-opacity:1;stroke:none;stroke-width:0.59225076"
       d="m 26.62558,-62.997373 q 0,0.331661 -0.33166,0.331661 h -2.10841 q -0.33166,0 -0.33166,-0.331661 v -15.9197 q 0,-0.33166 0.33166,-0.33166 h 2.10841 q 0.33166,0 0.33166,0.33166 z" />
    <path
       inkscape:connector-curvature="0"
       id="path3512"
       style="font-style:normal;font-variant:normal;font-weight:normal;font-stretch:normal;font-size:32.84695816px;line-height:0;font-family:Franchise;-inkscape-font-specification:Franchise;letter-spacing:0px;word-spacing:0px;fill:#ffffff;fill-opacity:1;stroke:none;stroke-width:0.59225076"
       d="m -93.079782,-56.19008 q 0.14214,0 0.18953,0.11845 0.0474,0.09476 0,0.21321 l -3.17447,6.988559 3.12708,8.931141 q 0.0474,0.11845 -0.0237,0.236901 -0.0711,0.09476 -0.21321,0.09476 h -2.34532 q -0.14213,0 -0.26059,-0.07106 -0.11845,-0.09476 -0.16583,-0.213212 l -1.72937,-5.353945 -0.40273,0.994981 v 4.311585 q 0,0.33166 -0.33166,0.33166 h -2.108408 q -0.33166,0 -0.33166,-0.33166 v -15.9197 q 0,-0.33166 0.33166,-0.33166 h 2.108408 q 0.33166,0 0.33166,0.33166 v 5.093356 l 2.17948,-5.140737 q 0.11845,-0.284279 0.45011,-0.284279 h 2.36901 z" />
    <path
       inkscape:connector-curvature="0"
       id="path3514"
       style="font-style:normal;font-variant:normal;font-weight:normal;font-stretch:normal;font-size:32.84695816px;line-height:0;font-family:Franchise;-inkscape-font-specification:Franchise;letter-spacing:0px;word-spacing:0px;fill:#ffffff;fill-opacity:1;stroke:none;stroke-width:0.59225076"
       d="m -84.43291,-39.93872 q 0.0474,0.33166 -0.2843,0.33166 h -2.155782 q -0.30797,0 -0.35536,-0.33166 l -0.18951,-2.558523 h -1.46878 l -0.18952,2.558523 q -0.0474,0.33166 -0.35536,0.33166 h -2.15579 q -0.33166,0 -0.28428,-0.33166 l 1.77674,-15.9197 q 0.0474,-0.33166 0.37905,-0.33166 h 3.12709 q 0.33166,0 0.37904,0.33166 z m -3.174472,-5.211806 -0.45011,-6.419999 h -0.18952 l -0.45012,6.419999 z" />
    <path
       inkscape:connector-curvature="0"
       id="path3516"
       style="font-style:normal;font-variant:normal;font-weight:normal;font-stretch:normal;font-size:32.84695816px;line-height:0;font-family:Franchise;-inkscape-font-specification:Franchise;letter-spacing:0px;word-spacing:0px;fill:#ffffff;fill-opacity:1;stroke:none;stroke-width:0.59225076"
       d="m -77.04166,-42.378794 q 0.33166,0 0.33166,0.331662 v 2.108412 q 0,0.33166 -0.33166,0.33166 h -3.19815 -0.0474 -0.0237 -2.10841 q -0.33166,0 -0.33166,-0.33166 v -15.9197 q 0,-0.33166 0.33166,-0.33166 h 2.10841 q 0.33166,0 0.33166,0.33166 v 13.479626 h 2.93756 z" />
    <path
       inkscape:connector-curvature="0"
       id="path3518"
       style="font-style:normal;font-variant:normal;font-weight:normal;font-stretch:normal;font-size:32.84695816px;line-height:0;font-family:Franchise;-inkscape-font-specification:Franchise;letter-spacing:0px;word-spacing:0px;fill:#ffffff;fill-opacity:1;stroke:none;stroke-width:0.59225076"
       d="m -67.28136,-56.19008 q 0.14214,0 0.18951,0.11845 0.0474,0.09476 0,0.21321 l -3.17446,6.988559 3.12709,8.931141 q 0.0474,0.11845 -0.0237,0.236901 -0.0711,0.09476 -0.2132,0.09476 h -2.34531 q -0.14214,0 -0.2606,-0.07106 -0.11844,-0.09476 -0.16582,-0.213212 l -1.72938,-5.353945 -0.40273,0.994981 v 4.311585 q 0,0.33166 -0.33166,0.33166 h -2.10842 q -0.33165,0 -0.33165,-0.33166 v -15.9197 q 0,-0.33166 0.33165,-0.33166 h 2.10842 q 0.33166,0 0.33166,0.33166 v 5.093356 l 2.17949,-5.140737 q 0.11844,-0.284279 0.4501,-0.284279 h 2.36901 z" />
    <path
       inkscape:connector-curvature="0"
       id="path3520"
       style="font-style:normal;font-variant:normal;font-weight:normal;font-stretch:normal;font-size:32.84695816px;line-height:0;font-family:Franchise;-inkscape-font-specification:Franchise;letter-spacing:0px;word-spacing:0px;fill:#ffffff;fill-opacity:1;stroke:none;stroke-width:0.59225076"
       d="m -59.20307,-56.19008 q 0.33166,0 0.33166,0.33166 v 13.432246 q 0,0.615941 -0.2369,1.160812 -0.23689,0.544871 -0.63963,0.947602 -0.40272,0.402729 -0.9476,0.639631 -0.54487,0.236899 -1.1608,0.236899 h -0.90023 q -0.61594,0 -1.16081,-0.236899 -0.54487,-0.236902 -0.94761,-0.639631 -0.40273,-0.402731 -0.63963,-0.947602 -0.23689,-0.544871 -0.23689,-1.160812 V -55.85842 q 0,-0.33166 0.33165,-0.33166 h 2.10841 q 0.33166,0 0.33166,0.33166 v 13.313796 q 0,0.236901 0.16584,0.402731 0.16583,0.165831 0.40273,0.165831 h 0.18952 q 0.2369,0 0.40273,-0.165831 0.16583,-0.16583 0.16583,-0.402731 V -55.85842 q 0,-0.33166 0.33166,-0.33166 z" />
    <path
       inkscape:connector-curvature="0"
       id="path3522"
       style="font-style:normal;font-variant:normal;font-weight:normal;font-stretch:normal;font-size:32.84695816px;line-height:0;font-family:Franchise;-inkscape-font-specification:Franchise;letter-spacing:0px;word-spacing:0px;fill:#ffffff;fill-opacity:1;stroke:none;stroke-width:0.59225076"
       d="m -51.14849,-42.378794 q 0.33166,0 0.33166,0.331662 v 2.108412 q 0,0.33166 -0.33166,0.33166 h -3.19816 -0.0474 -0.0237 -2.10842 q -0.33166,0 -0.33166,-0.33166 v -15.9197 q 0,-0.33166 0.33166,-0.33166 h 2.10842 q 0.33166,0 0.33166,0.33166 v 13.479626 h 2.93756 z" />
    <path
       inkscape:connector-curvature="0"
       id="path3524"
       style="font-style:normal;font-variant:normal;font-weight:normal;font-stretch:normal;font-size:32.84695816px;line-height:0;font-family:Franchise;-inkscape-font-specification:Franchise;letter-spacing:0px;word-spacing:0px;fill:#ffffff;fill-opacity:1;stroke:none;stroke-width:0.59225076"
       d="m -42.28842,-39.93872 q 0.0474,0.33166 -0.28428,0.33166 h -2.1558 q -0.30797,0 -0.35535,-0.33166 l -0.18952,-2.558523 h -1.46878 l -0.18951,2.558523 q -0.0474,0.33166 -0.35535,0.33166 h -2.15579 q -0.33166,0 -0.28428,-0.33166 l 1.77674,-15.9197 q 0.0474,-0.33166 0.37904,-0.33166 h 3.12709 q 0.33166,0 0.37904,0.33166 z m -3.17446,-5.211806 -0.4501,-6.419999 h -0.18954 l -0.4501,6.419999 z" />
    <path
       inkscape:connector-curvature="0"
       id="path3526"
       style="font-style:normal;font-variant:normal;font-weight:normal;font-stretch:normal;font-size:32.84695816px;line-height:0;font-family:Franchise;-inkscape-font-specification:Franchise;letter-spacing:0px;word-spacing:0px;fill:#ffffff;fill-opacity:1;stroke:none;stroke-width:0.59225076"
       d="m -35.46573,-56.19008 q 0.33166,0 0.33166,0.33166 v 2.108413 q 0,0.33166 -0.33166,0.33166 h -1.68198 v 13.479627 q 0,0.33166 -0.33167,0.33166 h -2.10842 q -0.11845,0 -0.2369,-0.09476 -0.0948,-0.09476 -0.0948,-0.236901 v -13.479627 h -1.6583 q -0.33166,0 -0.33166,-0.33166 v -2.108413 q 0,-0.33166 0.33166,-0.33166 z" />
    <path
       inkscape:connector-curvature="0"
       id="path3528"
       style="font-style:normal;font-variant:normal;font-weight:normal;font-stretch:normal;font-size:32.84695816px;line-height:0;font-family:Franchise;-inkscape-font-specification:Franchise;letter-spacing:0px;word-spacing:0px;fill:#ffffff;fill-opacity:1;stroke:none;stroke-width:0.59225076"
       d="m -27.07949,-42.426174 q 0,0.615941 -0.2369,1.160812 -0.2369,0.544871 -0.63964,0.947602 -0.40273,0.402729 -0.9476,0.639631 -0.54488,0.236899 -1.16081,0.236899 h -0.90022 q -0.61594,0 -1.16081,-0.236899 -0.54488,-0.236902 -0.9476,-0.639631 -0.40273,-0.402731 -0.63963,-0.947602 -0.2369,-0.544871 -0.2369,-1.160812 v -10.944793 q 0,-0.61594 0.2369,-1.160811 0.2369,-0.544871 0.63963,-0.947601 0.40272,-0.402731 0.9476,-0.63963 0.54487,-0.236902 1.16081,-0.236902 h 0.90022 q 0.61593,0 1.16081,0.236902 0.54487,0.236899 0.9476,0.63963 0.40274,0.40273 0.63964,0.947601 0.2369,0.544871 0.2369,1.160811 z m -2.77174,-10.826343 q 0,-0.236899 -0.16583,-0.40273 -0.16583,-0.16583 -0.40273,-0.16583 h -0.18952 q -0.2369,0 -0.40274,0.16583 -0.16582,0.165831 -0.16582,0.40273 v 10.707893 q 0,0.236901 0.16582,0.402731 0.16584,0.165831 0.40274,0.165831 h 0.18952 q 0.2369,0 0.40273,-0.165831 0.16583,-0.16583 0.16583,-0.402731 z" />
    <path
       inkscape:connector-curvature="0"
       id="path3530"
       style="font-style:normal;font-variant:normal;font-weight:normal;font-stretch:normal;font-size:32.84695816px;line-height:0;font-family:Franchise;-inkscape-font-specification:Franchise;letter-spacing:0px;word-spacing:0px;fill:#ffffff;fill-opacity:1;stroke:none;stroke-width:0.59225076"
       d="m -17.8641,-39.93872 q 0.0711,0.33166 -0.23691,0.33166 h -2.15579 q -0.14214,0 -0.28429,-0.09476 -0.11844,-0.09476 -0.16582,-0.236901 l -1.72937,-5.804057 v 5.898817 q -0.0711,0.2369 -0.33167,0.2369 h -2.10841 q -0.33166,0 -0.33166,-0.33166 v -15.9197 q 0,-0.33166 0.33166,-0.33166 h 3.5535 q 0.61595,0 1.16082,0.2369 0.54486,0.2369 0.9476,0.63963 0.40273,0.402731 0.63963,0.947602 0.2369,0.544871 0.2369,1.160811 v 3.861475 q 0,0.876531 -0.4501,1.587233 -0.45011,0.687011 -1.18451,1.066051 z m -4.57218,-8.95483 h 0.75808 q 0.2369,0 0.40272,-0.165831 0.16584,-0.16583 0.16584,-0.402731 v -3.624575 q 0,-0.236899 -0.16584,-0.402729 -0.16582,-0.165831 -0.40272,-0.165831 h -0.75808 z" />
    <path
       inkscape:connector-curvature="0"
       id="path3532"
       style="font-style:normal;font-variant:normal;font-weight:normal;font-stretch:normal;font-size:32.84695816px;line-height:0;font-family:Franchise;-inkscape-font-specification:Franchise;letter-spacing:0px;word-spacing:0px;fill:#ffffff;fill-opacity:1;stroke:none;stroke-width:0.59225076"
       d="m -92.961292,-34.400883 q 0.33166,0 0.28427,0.33166 l -2.79542,15.919699 q -0.0474,0.33166 -0.37904,0.33166 h -2.08472 q -0.33167,0 -0.37904,-0.33166 l -2.795418,-15.919699 q -0.0474,-0.33166 0.28428,-0.33166 h 2.558508 q 0.30798,0 0.35536,0.33166 l 0.97129,10.044573 h 0.0948 l 0.97128,-10.044573 q 0.0474,-0.33166 0.35536,-0.33166 z" />
    <path
       inkscape:connector-curvature="0"
       id="path3534"
       style="font-style:normal;font-variant:normal;font-weight:normal;font-stretch:normal;font-size:32.84695816px;line-height:0;font-family:Franchise;-inkscape-font-specification:Franchise;letter-spacing:0px;word-spacing:0px;fill:#ffffff;fill-opacity:1;stroke:none;stroke-width:0.59225076"
       d="m -84.83569,-18.149524 q 0.0474,0.33166 -0.284282,0.33166 h -2.1558 q -0.30796,0 -0.35534,-0.33166 l -0.18952,-2.558522 h -1.46878 l -0.18952,2.558522 q -0.0474,0.33166 -0.35535,0.33166 h -2.15579 q -0.33166,0 -0.28429,-0.33166 l 1.77675,-15.919699 q 0.0474,-0.33166 0.37905,-0.33166 h 3.12708 q 0.33166,0 0.37904,0.33166 z m -3.174452,-5.211805 -0.45012,-6.419999 h -0.18952 l -0.45011,6.419999 z" />
    <path
       inkscape:connector-curvature="0"
       id="path3536"
       style="font-style:normal;font-variant:normal;font-weight:normal;font-stretch:normal;font-size:32.84695816px;line-height:0;font-family:Franchise;-inkscape-font-specification:Franchise;letter-spacing:0px;word-spacing:0px;fill:#ffffff;fill-opacity:1;stroke:none;stroke-width:0.59225076"
       d="m -77.44442,-20.589597 q 0.33166,0 0.33166,0.331662 v 2.108411 q 0,0.33166 -0.33166,0.33166 h -3.19816 -0.0474 -0.0237 -2.10842 q -0.33165,0 -0.33165,-0.33166 v -15.919699 q 0,-0.33166 0.33165,-0.33166 h 2.10842 q 0.33166,0 0.33166,0.33166 v 13.479626 h 2.93756 z" />
    <path
       inkscape:connector-curvature="0"
       id="path3538"
       style="font-style:normal;font-variant:normal;font-weight:normal;font-stretch:normal;font-size:32.84695816px;line-height:0;font-family:Franchise;-inkscape-font-specification:Franchise;letter-spacing:0px;word-spacing:0px;fill:#ffffff;fill-opacity:1;stroke:none;stroke-width:0.59225076"
       d="m -69.1529,-34.400883 q 0.33166,0 0.33166,0.33166 v 13.432246 q 0,0.615941 -0.2369,1.160811 -0.2369,0.544872 -0.63964,0.947602 -0.40273,0.40273 -0.9476,0.639631 -0.54486,0.2369 -1.16081,0.2369 h -0.90021 q -0.61595,0 -1.16081,-0.2369 -0.54487,-0.236901 -0.94761,-0.639631 -0.40273,-0.40273 -0.63963,-0.947602 -0.2369,-0.54487 -0.2369,-1.160811 v -13.432246 q 0,-0.33166 0.33166,-0.33166 h 2.10841 q 0.33166,0 0.33166,0.33166 v 13.313796 q 0,0.236901 0.16583,0.402731 0.16583,0.16583 0.40273,0.16583 h 0.18953 q 0.2369,0 0.40272,-0.16583 0.16583,-0.16583 0.16583,-0.402731 v -13.313796 q 0,-0.33166 0.33166,-0.33166 z" />
    <path
       inkscape:connector-curvature="0"
       id="path3540"
       style="font-style:normal;font-variant:normal;font-weight:normal;font-stretch:normal;font-size:32.84695816px;line-height:0;font-family:Franchise;-inkscape-font-specification:Franchise;letter-spacing:0px;word-spacing:0px;fill:#ffffff;fill-opacity:1;stroke:none;stroke-width:0.59225076"
       d="m -60.05596,-18.149524 q 0.0474,0.33166 -0.28429,0.33166 h -2.15579 q -0.30797,0 -0.35535,-0.33166 l -0.18952,-2.558522 h -1.46878 l -0.18953,2.558522 q -0.0474,0.33166 -0.35534,0.33166 h -2.15579 q -0.33166,0 -0.28428,-0.33166 l 1.77674,-15.919699 q 0.0474,-0.33166 0.37904,-0.33166 h 3.12709 q 0.33167,0 0.37903,0.33166 z m -3.17447,-5.211805 -0.45012,-6.419999 h -0.18951 l -0.45012,6.419999 z" />
    <path
       inkscape:connector-curvature="0"
       id="path3542"
       style="font-style:normal;font-variant:normal;font-weight:normal;font-stretch:normal;font-size:32.84695816px;line-height:0;font-family:Franchise;-inkscape-font-specification:Franchise;letter-spacing:0px;word-spacing:0px;fill:#ffffff;fill-opacity:1;stroke:none;stroke-width:0.59225076"
       d="m -54.96264,-34.566714 q 0.61595,0 1.16082,0.236901 0.54487,0.2369 0.9476,0.639631 0.40272,0.40273 0.63962,0.947601 0.2369,0.544871 0.2369,1.160811 v 0.900221 q 0,0.331661 -0.30796,0.426421 l -2.15579,0.56856 q -0.30798,0.09476 -0.30798,-0.236901 v -1.539851 q 0,-0.2369 -0.16582,-0.40273 -0.16584,-0.16583 -0.40273,-0.16583 h -0.18952 q -0.2369,0 -0.40273,0.16583 -0.16584,0.16583 -0.16584,0.40273 v 2.155792 q 0.0237,0.260591 0.0948,0.450111 0.0711,0.18952 0.26059,0.379041 l 3.1034,2.321624 q 0.37903,0.33166 0.47379,0.68701 0.11846,0.33166 0.16582,0.758081 v 4.074684 q 0,0.615941 -0.2369,1.160811 -0.23689,0.544872 -0.63961,0.947602 -0.40274,0.40273 -0.94761,0.639631 -0.54487,0.2369 -1.16081,0.2369 h -0.90023 q -0.61593,0 -1.16081,-0.2369 -0.54487,-0.236901 -0.9476,-0.639631 -0.40272,-0.40273 -0.63963,-0.947602 -0.2369,-0.54487 -0.2369,-1.160811 v -2.274242 q 0,-0.33166 0.30797,-0.42642 l 2.1558,-0.568561 q 0.30797,-0.09476 0.30797,0.236901 v 2.913872 q 0,0.236901 0.16583,0.402731 0.16583,0.16583 0.40273,0.16583 h 0.18952 q 0.23689,0 0.40273,-0.16583 0.16582,-0.16583 0.16582,-0.402731 v -3.127083 q -0.0237,-0.30797 -0.0948,-0.544871 -0.0711,-0.236899 -0.28427,-0.426421 l -3.05601,-2.345312 q -0.35536,-0.331661 -0.52119,-0.663321 -0.14214,-0.331661 -0.14214,-0.876531 v -2.842804 q 0,-0.61594 0.2369,-1.160811 0.2369,-0.544871 0.63963,-0.947601 0.40273,-0.402731 0.9476,-0.639631 0.54488,-0.236901 1.16081,-0.236901 z" />
    <path
       inkscape:connector-curvature="0"
       id="path3544"
       style="font-style:normal;font-variant:normal;font-weight:normal;font-stretch:normal;font-size:32.84695816px;line-height:0;font-family:Franchise;-inkscape-font-specification:Franchise;letter-spacing:0px;word-spacing:0px;fill:#ffffff;fill-opacity:1;stroke:none;stroke-width:0.59225076"
       d="m -47.42924,-18.149524 q 0,0.33166 -0.33166,0.33166 h -2.10841 q -0.33166,0 -0.33166,-0.33166 v -15.919699 q 0,-0.33166 0.33166,-0.33166 h 2.10841 q 0.33166,0 0.33166,0.33166 z" />
    <path
       inkscape:connector-curvature="0"
       id="path3546"
       style="font-style:normal;font-variant:normal;font-weight:normal;font-stretch:normal;font-size:32.84695816px;line-height:0;font-family:Franchise;-inkscape-font-specification:Franchise;letter-spacing:0px;word-spacing:0px;fill:#ffffff;fill-opacity:1;stroke:none;stroke-width:0.59225076"
       d="m -36.2002,-34.400883 q 0.33167,0 0.33167,0.33166 v 2.108412 q 0,0.331661 -0.33167,0.331661 h -1.68198 v 13.479626 q 0,0.33166 -0.33166,0.33166 h -2.10842 q -0.11845,0 -0.2369,-0.09476 -0.0948,-0.09476 -0.0948,-0.236901 v -13.479626 h -1.65831 q -0.33166,0 -0.33166,-0.331661 v -2.108412 q 0,-0.33166 0.33166,-0.33166 z" />
    <path
       inkscape:connector-curvature="0"
       id="path3548"
       style="font-style:normal;font-variant:normal;font-weight:normal;font-stretch:normal;font-size:32.84695816px;line-height:0;font-family:Franchise;-inkscape-font-specification:Franchise;letter-spacing:0px;word-spacing:0px;fill:#ffffff;fill-opacity:1;stroke:none;stroke-width:0.59225076"
       d="m -28.73787,-20.589597 q 0.33166,0 0.33166,0.331662 v 2.108411 q 0,0.33166 -0.33166,0.33166 h -5.14073 q -0.33167,0 -0.33167,-0.33166 v -15.919699 q 0,-0.33166 0.33167,-0.33166 h 5.14073 q 0.33166,0 0.33166,0.33166 v 2.108412 q 0,0.331661 -0.33166,0.331661 h -2.70067 v 3.411364 h 2.34532 q 0.33167,0 0.33167,0.331661 v 2.108412 q 0,0.331661 -0.33167,0.331661 h -2.34532 v 4.856455 z" />
    <path
       inkscape:connector-curvature="0"
       id="path3550"
       style="font-style:normal;font-variant:normal;font-weight:normal;font-stretch:normal;font-size:32.84695816px;line-height:0;font-family:Franchise;-inkscape-font-specification:Franchise;letter-spacing:0px;word-spacing:0px;fill:#ffffff;fill-opacity:1;stroke:none;stroke-width:0.59225076"
       d="m -18.62222,-34.400883 q 0.14214,0 0.18951,0.11845 0.0474,0.09476 0,0.21321 l -3.17446,6.988559 3.12709,8.93114 q 0.0474,0.118451 -0.0237,0.236901 -0.0711,0.09476 -0.21321,0.09476 h -2.3453 q -0.14215,0 -0.2606,-0.07107 -0.11845,-0.09476 -0.16583,-0.21321 l -1.72937,-5.353947 -0.40274,0.994983 v 4.311584 q 0,0.33166 -0.33165,0.33166 h -2.10842 q -0.33166,0 -0.33166,-0.33166 v -15.919699 q 0,-0.33166 0.33166,-0.33166 h 2.10842 q 0.33165,0 0.33165,0.33166 v 5.093356 l 2.17949,-5.140737 q 0.11845,-0.284279 0.45011,-0.284279 h 2.369 z" />
    <path
       inkscape:connector-curvature="0"
       id="path3552"
       style="font-style:normal;font-variant:normal;font-weight:normal;font-stretch:normal;font-size:32.84695816px;line-height:0;font-family:Franchise;-inkscape-font-specification:Franchise;letter-spacing:0px;word-spacing:0px;fill:#ffffff;fill-opacity:1;stroke:none;stroke-width:0.59225076"
       d="m -9.5963304,-34.400883 q 0.33166,0 0.33166,0.33166 v 15.919699 q 0,0.33166 -0.33166,0.33166 H -11.11249 q -0.14213,0 -0.28428,-0.09476 -0.11845,-0.09476 -0.16583,-0.213211 l -2.51114,-7.841398 v 7.817708 q 0,0.33166 -0.33167,0.33166 h -2.1084 q -0.33167,0 -0.33167,-0.33166 v -15.919699 q 0,-0.33166 0.33167,-0.33166 h 1.56354 q 0.14214,0 0.26059,0.09476 0.14213,0.09476 0.18951,0.21321 l 2.46377,7.6045 v -7.58081 q 0,-0.33166 0.33166,-0.33166 z" />
    <path
       inkscape:connector-curvature="0"
       id="path3554"
       style="font-style:normal;font-variant:normal;font-weight:normal;font-stretch:normal;font-size:32.84695816px;line-height:0;font-family:Franchise;-inkscape-font-specification:Franchise;letter-spacing:0px;word-spacing:0px;fill:#ffffff;fill-opacity:1;stroke:none;stroke-width:0.59225076"
       d="m -0.49937038,-20.636977 q 0,0.615941 -0.2369,1.160811 -0.2369,0.544872 -0.63963002,0.947602 -0.40274,0.40273 -0.9476,0.639631 -0.54487,0.2369 -1.16082,0.2369 h -0.90021 q -0.61595,0 -1.16081,-0.2369 -0.54487,-0.236901 -0.9476,-0.639631 -0.40274,-0.40273 -0.63964,-0.947602 -0.2369,-0.54487 -0.2369,-1.160811 V -31.58177 q 0,-0.61594 0.2369,-1.160811 0.2369,-0.544871 0.63964,-0.947601 0.40273,-0.402731 0.9476,-0.639631 0.54486,-0.236901 1.16081,-0.236901 h 0.90021 q 0.61595,0 1.16082,0.236901 0.54486,0.2369 0.9476,0.639631 0.40273002,0.40273 0.63963002,0.947601 0.2369,0.544871 0.2369,1.160811 z M -3.2711004,-31.46332 q 0,-0.2369 -0.16582,-0.40273 -0.16584,-0.16583 -0.40274,-0.16583 h -0.18952 q -0.23691,0 -0.40273,0.16583 -0.16583,0.16583 -0.16583,0.40273 v 10.707893 q 0,0.236901 0.16583,0.402731 0.16582,0.16583 0.40273,0.16583 h 0.18952 q 0.2369,0 0.40274,-0.16583 0.16582,-0.16583 0.16582,-0.402731 z" />
    <path
       inkscape:connector-curvature="0"
       id="path3556"
       style="font-style:normal;font-variant:normal;font-weight:normal;font-stretch:normal;font-size:32.84695816px;line-height:0;font-family:Franchise;-inkscape-font-specification:Franchise;letter-spacing:0px;word-spacing:0px;fill:#ffffff;fill-opacity:1;stroke:none;stroke-width:0.59225076"
       d="m 7.2235695,-20.589597 q 0.33166,0 0.33166,0.331662 v 2.108411 q 0,0.33166 -0.33166,0.33166 h -3.1981599 -0.0474 -0.0237 -2.10842 q -0.33166,0 -0.33166,-0.33166 v -15.919699 q 0,-0.33166 0.33166,-0.33166 h 2.10842 q 0.33166,0 0.33166,0.33166 v 13.479626 z" />
    <path
       inkscape:connector-curvature="0"
       id="path3558"
       style="font-style:normal;font-variant:normal;font-weight:normal;font-stretch:normal;font-size:32.84695816px;line-height:0;font-family:Franchise;-inkscape-font-specification:Franchise;letter-spacing:0px;word-spacing:0px;fill:#ffffff;fill-opacity:1;stroke:none;stroke-width:0.59225076"
       d="m 15.49135,-20.636977 q 0,0.615941 -0.2369,1.160811 -0.2369,0.544872 -0.63963,0.947602 -0.40274,0.40273 -0.94761,0.639631 -0.54486,0.2369 -1.16081,0.2369 h -0.90021 q -0.61596,0 -1.16083,-0.2369 -0.5448605,-0.236901 -0.9475905,-0.639631 -0.40273,-0.40273 -0.63963,-0.947602 -0.2369,-0.54487 -0.2369,-1.160811 V -31.58177 q 0,-0.61594 0.2369,-1.160811 0.2369,-0.544871 0.63963,-0.947601 0.40273,-0.402731 0.9475905,-0.639631 0.54487,-0.236901 1.16083,-0.236901 h 0.90021 q 0.61595,0 1.16081,0.236901 0.54487,0.2369 0.94761,0.639631 0.40273,0.40273 0.63963,0.947601 0.2369,0.544871 0.2369,1.160811 z M 12.71961,-31.46332 q 0,-0.2369 -0.16583,-0.40273 -0.16583,-0.16583 -0.40274,-0.16583 h -0.18951 q -0.2369,0 -0.40273,0.16583 -0.16583,0.16583 -0.16583,0.40273 v 10.707893 q 0,0.236901 0.16583,0.402731 0.16583,0.16583 0.40273,0.16583 h 0.18951 q 0.23691,0 0.40274,-0.16583 0.16583,-0.16583 0.16583,-0.402731 z" />
    <path
       inkscape:connector-curvature="0"
       id="path3560"
       style="font-style:normal;font-variant:normal;font-weight:normal;font-stretch:normal;font-size:32.84695816px;line-height:0;font-family:Franchise;-inkscape-font-specification:Franchise;letter-spacing:0px;word-spacing:0px;fill:#ffffff;fill-opacity:1;stroke:none;stroke-width:0.59225076"
       d="m 21.03478,-34.566714 q 0.61595,0 1.16081,0.236901 0.54487,0.2369 0.9476,0.639631 0.40274,0.40273 0.63964,0.947601 0.23689,0.544871 0.23689,1.160811 v 0.758081 q 0,0.33166 -0.30797,0.426421 l -2.15579,0.78177 q -0.30797,0.09476 -0.30797,-0.2369 v -1.610922 q 0,-0.2369 -0.16583,-0.40273 -0.16584,-0.16583 -0.40273,-0.16583 h -0.18952 q -0.2369,0 -0.40274,0.16583 -0.16582,0.16583 -0.16582,0.40273 v 10.707893 q 0,0.236901 0.16582,0.402731 0.16584,0.16583 0.40274,0.16583 h 0.18952 q 0.23689,0 0.40273,-0.16583 0.16583,-0.16583 0.16583,-0.402731 v -4.216824 h -0.66332 v -2.700665 h 3.1034 q 0.33165,0 0.33165,0.331661 v 6.704278 q 0,0.615941 -0.23689,1.160811 -0.2369,0.544872 -0.63964,0.947602 -0.40273,0.40273 -0.9476,0.639631 -0.54486,0.2369 -1.16081,0.2369 h -0.90022 q -0.61594,0 -1.16082,-0.2369 -0.54487,-0.236901 -0.94759,-0.639631 -0.40273,-0.40273 -0.63963,-0.947602 -0.2369,-0.54487 -0.2369,-1.160811 V -31.58177 q 0,-0.61594 0.2369,-1.160811 0.2369,-0.544871 0.63963,-0.947601 0.40272,-0.402731 0.94759,-0.639631 0.54488,-0.236901 1.16082,-0.236901 z" />
    <path
       inkscape:connector-curvature="0"
       id="path3562"
       style="font-style:normal;font-variant:normal;font-weight:normal;font-stretch:normal;font-size:32.84695816px;line-height:0;font-family:Franchise;-inkscape-font-specification:Franchise;letter-spacing:0px;word-spacing:0px;fill:#ffffff;fill-opacity:1;stroke:none;stroke-width:0.59225076"
       d="m 28.68663,-18.149524 q 0,0.33166 -0.33166,0.33166 h -2.10842 q -0.33165,0 -0.33165,-0.33166 v -15.919699 q 0,-0.33166 0.33165,-0.33166 h 2.10842 q 0.33166,0 0.33166,0.33166 z" />
    <path
       inkscape:connector-curvature="0"
       id="path3564"
       style="font-style:normal;font-variant:normal;font-weight:normal;font-stretch:normal;font-size:32.84695816px;line-height:0;font-family:Franchise;-inkscape-font-specification:Franchise;letter-spacing:0px;word-spacing:0px;fill:#ffffff;fill-opacity:1;stroke:none;stroke-width:0.59225076"
       d="m 31.86107,-20.305316 q 0.30796,-1.137121 0.49748,-2.558522 0.18953,-1.421402 0.18953,-3.245535 0,-1.824132 -0.18953,-3.245534 -0.18952,-1.421402 -0.49748,-2.558524 -0.33167,-1.13712 -0.78177,-2.013652 -0.42643,-0.900221 -1.01867,-1.658302 -0.18953,-0.213211 0.0237,-0.426422 l 0.59226,-0.592249 q 0.21321,-0.213212 0.42641,0 1.9426,1.753061 2.96127,4.335275 0.49748,1.326641 0.75807,2.842804 0.2606,1.516162 0.2606,3.316604 0,1.800443 -0.2606,3.340294 -0.26059,1.516162 -0.75807,2.819113 -0.52119,1.326643 -1.25558,2.392693 -0.7344,1.066051 -1.70569,1.942583 -0.2132,0.21321 -0.42641,0 l -0.59226,-0.592251 q -0.2132,-0.21321 -0.0237,-0.42642 0.59224,-0.758081 1.01867,-1.634612 0.4501,-0.900222 0.78177,-2.037343 z" />
    <g
       id="g3653"
       transform="matrix(0.15078498,0,0,0.15078498,-510.86621,-88.784063)" />
    <g
       id="g3655"
       transform="matrix(0.15078498,0,0,0.15078498,-510.86621,-88.784063)" />
    <g
       id="g3657"
       transform="matrix(0.15078498,0,0,0.15078498,-510.86621,-88.784063)" />
    <g
       id="g3659"
       transform="matrix(0.15078498,0,0,0.15078498,-510.86621,-88.784063)" />
    <g
       id="g3661"
       transform="matrix(0.15078498,0,0,0.15078498,-510.86621,-88.784063)" />
    <g
       id="g3663"
       transform="matrix(0.15078498,0,0,0.15078498,-510.86621,-88.784063)" />
    <g
       id="g3665"
       transform="matrix(0.15078498,0,0,0.15078498,-510.86621,-88.784063)" />
    <g
       id="g3667"
       transform="matrix(0.15078498,0,0,0.15078498,-510.86621,-88.784063)" />
    <g
       id="g3669"
       transform="matrix(0.15078498,0,0,0.15078498,-510.86621,-88.784063)" />
    <g
       id="g3671"
       transform="matrix(0.15078498,0,0,0.15078498,-510.86621,-88.784063)" />
    <g
       id="g3673"
       transform="matrix(0.15078498,0,0,0.15078498,-510.86621,-88.784063)" />
    <g
       id="g3675"
       transform="matrix(0.15078498,0,0,0.15078498,-510.86621,-88.784063)" />
    <g
       id="g3677"
       transform="matrix(0.15078498,0,0,0.15078498,-510.86621,-88.784063)" />
    <g
       id="g3679"
       transform="matrix(0.15078498,0,0,0.15078498,-510.86621,-88.784063)" />
    <g
       id="g3681"
       transform="matrix(0.15078498,0,0,0.15078498,-510.86621,-88.784063)" />
    <path
       sodipodi:type="star"
       style="opacity:1;fill:#aad400;fill-opacity:1;stroke:none;stroke-width:0.17288916;stroke-miterlimit:4;stroke-dasharray:0.17288916, 0.34577832;stroke-dashoffset:0;stroke-opacity:1"
       id="path9753"
       sodipodi:sides="6"
       sodipodi:cx="466.65317"
       sodipodi:cy="51.142082"
       sodipodi:r1="43.351864"
       sodipodi:r2="39.060028"
       sodipodi:arg1="0.52359878"
       sodipodi:arg2="1.0176213"
       inkscape:flatsided="false"
       inkscape:rounded="0.12"
       inkscape:randomized="0"
       d="m 504.19698,72.818014 c -1.17073,2.17386 -14.88372,10.324203 -17.02201,11.55871 -2.37779,1.372784 -17.77738,10.035994 -20.5218,10.117222 -2.46799,0.07305 -16.38289,-7.727584 -18.52115,-8.962141 -2.37776,-1.372838 -17.58011,-10.377668 -19.02267,-12.713791 -1.29725,-2.100813 -1.49916,-18.051787 -1.49913,-20.520851 3e-5,-2.745621 0.19727,-20.413662 1.49913,-22.831013 1.17073,-2.17386 14.88373,-10.324202 17.02202,-11.55871 2.37779,-1.372783 17.77738,-10.0359931 20.5218,-10.1172216 2.46798,-0.073047 16.38288,7.7275836 18.52114,8.9621406 2.37776,1.372838 17.58012,10.377669 19.02267,12.713791 1.29726,2.100814 1.49916,18.051787 1.49913,20.520851 -3e-5,2.745622 -0.19726,20.413662 -1.49913,22.831013 z"
       inkscape:transform-center-x="-1.725149e-05"
       inkscape:transform-center-y="16.612151"
       transform="scale(-1)" />
    <g
       transform="matrix(0.22109473,0,0,0.22109473,-415.70563,-74.513791)"
       id="g6056">
      <path
         inkscape:connector-curvature="0"
         style="fill:#ffffff;stroke-width:0.26458299"
         d="m -282.37679,5.1205553 c -2.06178,-0.50194 -3.94322,-2.21416 -4.25414,-3.87154 -0.0986,-0.52539002 -0.12202,-1.74833002 -0.0521,-2.71764 0.53988,-7.48625 10.94601,-17.7537373 22.16563,-21.8703093 1.50289,-0.551424 2.63731,-0.760336 4.67539,-0.861013 2.40917,-0.119004 2.81974,-0.07061 3.92006,0.462042 1.75186,0.848058 2.55333,2.167102 2.71837,4.473834 0.5371,7.506586 -8.83575,18.45066628 -19.61644,22.9048863 -3.50524,1.44825 -7.28325,2.03322 -9.55676,1.47974 z"
         id="path6028" />
      <path
         inkscape:connector-curvature="0"
         style="fill:#ffffff;stroke-width:0.26458299"
         d="m -262.14923,58.276575 c -3.8758,-0.59194 -6.85649,-2.436 -8.16273,-5.05002 -0.69506,-1.39094 -0.82004,-1.93914 -0.82004,-3.59707 0,-1.07581 0.18909,-2.78738 0.4202,-3.80348 l 0.42019,-1.84746 2.55637,-1.28522 c 4.19838,-2.11073 11.26111,-6.2374 15.99455,-9.34542 l 4.44235,-2.91689 0.68225,0.63149 c 2.59714,2.40392 8.81042,10.38718 11.83786,15.21009 l 1.47811,2.35474 -0.65328,0.53399 c -1.03948,0.84968 -6.9023,3.94246 -9.79422,5.16669 -7.3552,3.11364 -14.22148,4.58699 -18.40161,3.94856 z"
         id="path6026" />
      <path
         inkscape:connector-curvature="0"
         style="fill:#ffffff;stroke-width:0.26458299"
         d="m -217.35543,-37.405187 c -0.18191,-0.0734 -0.47956,-0.0734 -0.66146,0 -0.1819,0.0734 -0.0331,0.133453 0.33073,0.133453 0.3638,0 0.51263,-0.06006 0.33073,-0.133453 z"
         id="path6024" />
      <path
         inkscape:connector-curvature="0"
         style="fill:#ffffff;stroke-width:0.26458299"
         d="m -232.08793,-36.142466 c -0.092,-0.148849 -0.36311,-0.195482 -0.60247,-0.103629 -0.38257,0.146809 -0.37355,0.189386 0.0746,0.352107 0.59155,0.214776 0.76399,0.133602 0.52785,-0.248478 z"
         id="path6022" />
      <path
         inkscape:connector-curvature="0"
         style="fill:#ffffff;stroke-width:0.26458299"
         d="m -210.34949,-35.537729 c -0.0879,-0.08792 -0.31612,-0.09732 -0.50712,-0.02088 -0.21106,0.08446 -0.14837,0.147156 0.15986,0.159851 0.27891,0.01148 0.43518,-0.05105 0.34726,-0.138964 z"
         id="path6020" />
      <path
         inkscape:connector-curvature="0"
         style="fill:#ffffff;stroke-width:0.26458299"
         d="m -220.73075,-32.199846 c 0.0927,-0.149982 -0.0135,-0.194337 -0.24896,-0.103984 -0.45837,0.175892 -0.54224,0.365538 -0.16165,0.365538 0.13693,0 0.32171,-0.1177 0.41061,-0.261554 z"
         id="path6018" />
      <path
         inkscape:connector-curvature="0"
         style="fill:#ffffff;stroke-width:0.26458299"
         d="m -210.64957,-8.9650447 c 0.27722,-0.31605 0.36537,-0.4939 0.1959,-0.39522 -0.16947,0.0987 -0.35832,0.0894 -0.41966,-0.0207 -0.0613,-0.11005 -0.0808,-0.0658 -0.0433,0.0984 0.0375,0.16417 -0.0653,0.43206 -0.22857,0.59532 -0.16326,0.16325 -0.23194,0.29682 -0.15263,0.29682 0.0793,0 0.37102,-0.25859 0.64823,-0.57464 z"
         id="path6016" />
      <path
         inkscape:connector-curvature="0"
         style="fill:#ffffff;stroke-width:0.26458299"
         d="m -218.67835,7.3093753 c -0.1819,-0.0734 -0.47956,-0.0734 -0.66146,0 -0.1819,0.0734 -0.0331,0.13345 0.33073,0.13345 0.3638,0 0.51263,-0.0601 0.33073,-0.13345 z"
         id="path6014" />
      <path
         inkscape:connector-curvature="0"
         style="fill:#ffffff;stroke-width:0.26458299"
         d="m -204.98616,7.7800453 c 0,-0.12855 -0.24493,-0.29777 -0.54429,-0.37606 -0.44661,-0.11679 -0.48828,-0.0748 -0.23219,0.23373 0.34933,0.42091 0.77648,0.49921 0.77648,0.14233 z"
         id="path6012" />
      <path
         inkscape:connector-curvature="0"
         style="fill:#ffffff;stroke-width:0.26458299"
         d="m -214.60541,7.8036453 c -0.27012,-0.0573 -0.60657,0.0114 -0.74767,0.15244 -0.16566,0.16566 0.008,0.20254 0.49113,0.1041 0.55376,-0.11291 0.62029,-0.17944 0.25654,-0.25654 z"
         id="path6010" />
      <path
         inkscape:connector-curvature="0"
         style="fill:#ffffff;stroke-width:0.26458299"
         d="m -234.75366,14.366785 c 0.0927,-0.14999 -0.0135,-0.19434 -0.24897,-0.10399 -0.45837,0.17589 -0.54223,0.36554 -0.16165,0.36554 0.13693,0 0.32171,-0.1177 0.41062,-0.26155 z"
         id="path6008" />
      <path
         inkscape:connector-curvature="0"
         style="fill:#ffffff;stroke-width:0.26458299"
         d="m -235.53854,20.500265 c -0.0815,-0.0815 -0.29495,-1.7e-4 -0.47443,0.18065 -0.25936,0.26131 -0.22897,0.2917 0.14811,0.14812 0.26094,-0.0994 0.40778,-0.24731 0.32632,-0.32877 z"
         id="path6006" />
      <path
         inkscape:connector-curvature="0"
         style="fill:#ffffff;stroke-width:0.26458299"
         d="m -237.13304,21.507505 c -0.0899,-0.14552 -0.30532,-0.26276 -0.47864,-0.26054 -0.18933,0.002 -0.1567,0.10643 0.0818,0.26054 0.50829,0.32848 0.59989,0.32848 0.39687,0 z"
         id="path6004" />
      <path
         inkscape:connector-curvature="0"
         style="fill:#ffffff;stroke-width:0.26458299"
         d="m -248.11325,28.150395 c 0,-0.12996 -0.19543,-0.31127 -0.43429,-0.40293 -0.36314,-0.13935 -0.37951,-0.10064 -0.0999,0.23627 0.38103,0.45912 0.53419,0.5069 0.53419,0.16666 z"
         id="path6002" />
      <path
         inkscape:connector-curvature="0"
         style="fill:#ffffff;stroke-width:0.26458299"
         d="m -217.68616,39.763755 c 0,-0.14552 -0.12609,-0.26459 -0.2802,-0.26459 -0.15411,0 -0.20662,0.11907 -0.11668,0.26459 0.0899,0.14552 0.21603,0.26458 0.2802,0.26458 0.0642,0 0.11668,-0.11906 0.11668,-0.26458 z"
         id="path6000" />
      <path
         inkscape:connector-curvature="0"
         style="fill:#ffffff;stroke-width:0.26458299"
         d="m -220.99346,40.292915 c 0.0899,-0.14552 0.0374,-0.26458 -0.11667,-0.26458 -0.15411,0 -0.2802,0.11906 -0.2802,0.26458 0,0.14552 0.0525,0.26459 0.11668,0.26459 0.0642,0 0.19026,-0.11907 0.28019,-0.26459 z"
         id="path5998" />
      <path
         inkscape:connector-curvature="0"
         style="fill:#ffffff;stroke-width:0.26458299"
         d="m -219.40596,40.822085 c 0.0899,-0.14552 0.0445,-0.26458 -0.10106,-0.26458 -0.14552,0 -0.33816,0.11906 -0.4281,0.26458 -0.0899,0.14552 -0.0445,0.26458 0.10106,0.26458 0.14552,0 0.33817,-0.11906 0.4281,-0.26458 z"
         id="path5996" />
      <path
         inkscape:connector-curvature="0"
         style="fill:#ffffff;stroke-width:0.26458299"
         d="m -221.35658,41.946565 c 0.32911,-0.41965 0.31975,-0.429 -0.0999,-0.0999 -0.25466,0.19972 -0.46302,0.40808 -0.46302,0.46302 0,0.21777 0.21728,0.0776 0.56292,-0.36312 z"
         id="path5994" />
      <path
         inkscape:connector-curvature="0"
         style="fill:#ffffff;stroke-width:0.26458299"
         d="m -205.62447,46.181005 c -0.0904,-0.0904 -0.31111,-0.006 -0.49058,0.18764 -0.25906,0.27937 -0.25816,0.31342 0.004,0.16518 0.18917,-0.1068 0.33966,-0.0385 0.35161,0.15962 0.0171,0.28445 0.0457,0.28429 0.15985,-7.9e-4 0.0764,-0.191 0.0651,-0.42119 -0.0253,-0.51153 z"
         id="path5992" />
      <path
         inkscape:connector-curvature="0"
         style="fill:#ffffff;stroke-width:0.26458299"
         d="m -209.01632,51.140835 c 0.18176,-0.29104 0.23904,-0.52917 0.12729,-0.52917 -0.11175,0 -0.35189,0.23813 -0.53365,0.52917 -0.18176,0.29104 -0.23904,0.52917 -0.12729,0.52917 0.11175,0 0.3519,-0.23813 0.53365,-0.52917 z"
         id="path5990" />
      <path
         inkscape:connector-curvature="0"
         style="fill:#ffffff;stroke-width:0.26458299"
         d="m -218.21533,58.549165 c 0.21828,-0.14106 0.27781,-0.25648 0.13229,-0.25648 -0.14552,0 -0.44318,0.11542 -0.66146,0.25648 -0.21828,0.14107 -0.27781,0.25648 -0.13229,0.25648 0.14552,0 0.44318,-0.11541 0.66146,-0.25648 z"
         id="path5988" />
      <path
         inkscape:connector-curvature="0"
         style="fill:#ffffff;stroke-width:0.26458299"
         d="m -220.22696,59.827985 c -0.0749,-0.12127 -0.2483,-0.22048 -0.38524,-0.22048 -0.13693,0 -0.24896,0.0992 -0.24896,0.22048 0,0.12127 0.17335,0.22049 0.38523,0.22049 0.21188,0 0.32392,-0.0992 0.24897,-0.22049 z"
         id="path5986" />
      <path
         inkscape:connector-curvature="0"
         style="fill:#ffffff;stroke-width:0.26458299"
         d="m -221.12575,60.809985 c 0,-0.20415 -0.78747,-0.36836 -0.89924,-0.18752 -0.0673,0.10896 0.10745,0.21542 0.38841,0.23659 0.28096,0.0212 0.51083,-8e-4 0.51083,-0.0491 z"
         id="path5984" />
      <path
         inkscape:connector-curvature="0"
         style="fill:#ffffff;stroke-width:0.26458299"
         d="m -225.77857,62.584065 c -0.25197,-0.71319 -0.21761,-0.74553 1.73486,-1.63246 3.99884,-1.81651 7.42247,-4.11669 10.72333,-7.20447 0.90349,-0.84518 1.72948,-1.44993 1.83552,-1.34389 0.10603,0.10604 0.15311,0.0196 0.1046,-0.19205 -0.0485,-0.21167 0.079,-0.39026 0.28346,-0.39688 0.20441,-0.007 0.40435,-0.23485 0.44433,-0.5072 0.04,-0.27235 0.36996,-0.80813 0.73331,-1.19063 1.06579,-1.12192 3.53889,-5.23937 4.02371,-6.699 0.63357,-1.90751 0.40132,-4.15515 -0.55953,-5.41488 -0.98596,-1.29267 -3.21172,-2.28692 -5.17941,-2.31365 l -1.51932,-0.0206 -3.71395,3.65546 c -2.31751,2.281 -3.83163,3.58273 -4.0269,3.46205 -0.18693,-0.11553 -0.24296,-0.0802 -0.13915,0.0878 0.23063,0.37317 -3.98137,3.84962 -4.37178,3.60834 -0.1797,-0.11107 -0.22708,-0.0675 -0.11821,0.10866 0.1647,0.2665 -5.25578,4.33169 -5.82981,4.37217 -0.20582,0.0145 -1.39963,-1.87153 -1.40955,-2.22687 -0.002,-0.0858 0.26354,-0.28045 0.59096,-0.4326 1.01532,-0.47179 5.46308,-3.92304 8.36221,-6.48867 1.52127,-1.34627 2.8666,-2.418 2.98963,-2.38162 0.12302,0.0364 0.19391,-0.0355 0.15753,-0.15972 -0.0364,-0.12423 0.8955,-1.34462 2.07083,-2.71198 1.17534,-1.36736 2.64795,-3.18471 3.27247,-4.03856 0.62451,-0.85384 1.21068,-1.44916 1.3026,-1.32291 0.0919,0.12624 0.34572,0.26921 0.564,0.31772 0.21828,0.0485 0.30861,-7e-5 0.20073,-0.10795 -0.10787,-0.10788 -0.0483,-0.38569 0.1323,-0.61736 0.29159,-0.37397 0.27578,-0.37989 -0.14099,-0.0528 -0.88733,0.69644 -0.78965,0.0442 0.22898,-1.52903 0.56111,-0.8666 1.13104,-1.50714 1.26652,-1.42342 0.13547,0.0837 0.16931,0.0276 0.0752,-0.12462 -0.0941,-0.15226 0.2264,-0.93695 0.71223,-1.74375 1.47513,-2.44969 2.35388,-5.48963 2.38414,-8.24762 0.0229,-2.08455 -0.067,-2.58403 -0.72111,-4.00878 -0.41099,-0.89515 -1.08921,-1.95516 -1.50717,-2.35559 -0.41796,-0.40044 -0.68554,-0.85867 -0.59463,-1.0183 0.0909,-0.15963 0.0794,-0.21355 -0.0255,-0.1198 -0.10495,0.0937 -0.95482,-0.2277897 -1.88861,-0.7145097 -0.93378,-0.48672 -2.12894,-0.96583 -2.6559,-1.06469 -0.52696,-0.0989 -0.83809,-0.25358 -0.69138,-0.34383 0.1467,-0.0902 -1.04466,-0.12345 -2.64746,-0.0738 l -2.9142,0.0903 -5.06543,5.0903197 c -2.78599,2.79968 -5.9584,5.8621 -7.0498,6.80538 -4.08508,3.53064 -6.36624,5.27511 -6.66036,5.09333 -0.1756,-0.10852 -0.22808,-0.0685 -0.12622,0.0963 0.0997,0.16128 -1.14781,1.26181 -2.9127,2.56957 l -3.08705,2.28748 -1.54641,-1.53028 c -0.85053,-0.84165 -1.51572,-1.60989 -1.47819,-1.70719 0.16159,-0.41904 4.48271,-3.40845 4.71728,-3.26348 0.14236,0.088 0.22612,0.0468 0.18614,-0.0915 -0.1089,-0.37667 6.71785,-6.13985 7.04948,-5.95121 0.15738,0.0895 0.1934,0.0609 0.08,-0.0637 -0.24845,-0.273 3.2451,-3.86063 3.56617,-3.6622 0.12371,0.0764 0.19221,0.0219 0.15223,-0.12122 -0.04,-0.14312 0.46888,-0.83658 1.13081,-1.54102 1.39239,-1.48179 4.88532,-5.6238797 6.59217,-7.8173297 0.90029,-1.15695 1.25481,-1.44288 1.5181,-1.22437 0.23111,0.1918 0.34351,0.19512 0.34351,0.0102 0,-0.15122 -0.13981,-0.32154 -0.31069,-0.3785 -0.18934,-0.0631 0.14852,-0.76928 0.86499,-1.80798002 2.58254,-3.74398998 5.32622,-8.24083998 6.31366,-10.34797998 3.09626,-6.6072563 3.2105,-14.0949193 0.28248,-18.5154193 -2.02713,-3.060419 -5.63479,-5.3804 -10.06086,-6.469861 -2.13008,-0.524312 -6.88443,-0.665322 -10.58333,-0.313892 l -1.98438,0.188535 1.98438,-0.658178 c 4.51498,-1.497528 11.65267,-2.974422 16.53645,-3.421634 2.30858,-0.211399 6.03797,0.219451 8.4503,0.976249 2.10015,0.65886 5.08914,2.54979 4.95526,3.134844 -0.0485,0.211971 -7.9e-4,0.29804 0.10594,0.191265 0.28258,-0.282578 1.34731,0.959855 2.10653,2.458114 1.92007,3.789079 1.91382,8.50723 -0.0188,14.172158 -0.70845,2.076653 -4.09342,9.1349093 -4.74296,9.8899093 -0.18779,0.21828 -0.53946,0.78772 -0.78149,1.26542 -0.25802,0.50926 -0.56175,0.79333 -0.73424,0.68672 -0.187,-0.11557 -0.21916,-0.0604 -0.0883,0.15139 0.25768,0.41694 -3.42085,5.88455998 -6.72846,10.00089 -1.31535,1.63696 -2.39154,3.01941 -2.39154,3.07209 0,0.0527 1.13818,-0.17935 2.52929,-0.51566 7.69577,-1.86048 12.54416,-1.30553 15.30644,1.75198 1.28534,1.42272 1.74476,2.5503597 1.9276,4.7312597 0.26734,3.18878 -1.25696,7.62243 -4.4222,12.86265 -0.7468,1.23636 -1.45453,2.18816 -1.57273,2.11511 -0.1182,-0.073 -0.19859,0.0743 -0.17864,0.32735 0.0251,0.3182 -0.12698,0.43636 -0.49289,0.38299 -0.40381,-0.0589 -0.4421,-0.0185 -0.16161,0.17067 0.37534,0.25309 -0.45303,1.50476 -3.22833,4.87804 -0.57348,0.69705 -0.99278,1.31728 -0.93178,1.37828 0.061,0.061 0.82022,-0.0771 1.68715,-0.30697 2.26983,-0.60178 5.55348,-0.59322 6.80597,0.0177 0.623,0.30389 0.97004,0.64528 0.92605,0.91097 -0.0387,0.23371 0.10823,0.43048 0.32651,0.43725 0.21828,0.007 0.38055,0.21653 0.3606,0.46611 -0.0199,0.24959 0.0569,0.39623 0.17071,0.32587 0.31167,-0.19262 0.52702,0.56866 0.52702,1.86301 0,2.96865 -2.98295,8.34261 -6.97371,12.56356 -1.20199,1.27131 -1.59874,1.54447 -1.96276,1.35132 -0.31364,-0.16642 -0.56579,-0.12372 -0.80674,0.13662 -0.30002,0.32415 -0.24285,0.35188 0.39687,0.19252 0.70034,-0.17447 0.72241,-0.15557 0.35051,0.30026 -1.66421,2.03983 -8.63373,6.9587 -12.8879,9.09588 -1.42197,0.71436 -1.51024,0.70622 -1.81909,-0.16799 z"
         id="path5982" />
      <path
         inkscape:connector-curvature="0"
         style="fill:#ffffff;stroke-width:0.26458299"
         d="m -236.26943,63.064825 c -2.26072,-0.73257 -3.6448,-2.47166 -3.63812,-4.57126 0.006,-1.8412 0.19326,-2.14106 1.92877,-3.08629 0.90172,-0.49111 2.69291,-1.55089 3.98043,-2.35506 1.89621,-1.18435 2.38977,-1.3917 2.59797,-1.09144 0.49749,0.71747 4.71838,9.3438 4.71838,9.64304 0,0.16663 -0.8632,0.57113 -1.91823,0.89888 -2.08981,0.64923 -6.42077,0.96667 -7.6692,0.56213 z"
         id="path5980" />
      <path
         inkscape:connector-curvature="0"
         style="fill:#ffffff;stroke-width:0.26458299"
         d="m -221.9195,77.319585 c -1.70504,-0.91376 -6.28578,-2.62453 -9.52,-3.55544 -5.75405,-1.65619 -11.87512,-2.705 -20.37791,-3.49164 -7.19302,-0.66547 -27.89845,-0.66468 -37.43854,0.001 -17.34801,1.21127 -36.61515,3.55833 -53.80578,6.55444 -2.52631,0.4403 -4.651,0.74284 -4.72154,0.6723 -0.0705,-0.0705 0.81001,-1.35716 1.95678,-2.85915 9.60467,-12.57992 16.34706,-24.58743 19.8815,-35.40694 1.44433,-4.42133 1.84043,-6.06938 2.44289,-10.16417 2.02336,-13.75237 -1.92847,-25.3427097 -12.08808,-35.4532097 -3.17804,-3.16267 -3.25744,-3.0143 1.27982,-2.39165 34.12377,4.68287 60.79373,15.53832 80.42326,32.7346197 3.62858,3.17878 3.77856,2.54281 -1.34983,5.72367 -11.47544,7.11761 -23.4465,12.0049 -34.15131,13.94257 -3.49652,0.6329 -9.25722,0.63896 -12.03854,0.0126 -1.16417,-0.26215 -3.24464,-1.01883 -4.62326,-1.68151 -8.14957,-3.91735 -9.92392,-11.54765 -5.27957,-22.70387 0.45952,-1.10382 0.76771,-2.07472 0.68486,-2.15756 -0.0829,-0.0829 -1.17031,1.40745 -2.4166,3.31177 -8.77918,13.4146 -10.18046,23.38003 -4.1373,29.42319 4.62143,4.62143 13.63532,5.51075 25.29601,2.49573 5.01224,-1.29598 11.35976,-3.61147 16.93958,-6.17934 1.58859,-0.73108 2.9175,-1.30007 2.95314,-1.26443 0.0357,0.0356 -0.45757,1.07127 -1.09603,2.30139 -2.39999,4.62407 -3.21467,8.44056 -2.39998,11.243 0.83232,2.8631 2.54312,4.61821 5.58398,5.72861 2.18844,0.79914 6.83459,0.79469 10.61681,-0.0102 3.71574,-0.79069 8.94543,-2.64896 13.92487,-4.94793 2.88636,-1.3326 4.13112,-1.79565 4.00459,-1.48967 -1.83273,4.43176 -1.50295,6.88655 1.13334,8.43622 1.15191,0.67711 1.46777,0.73654 3.77076,0.70949 2.72708,-0.032 5.36416,-0.68144 8.86354,-2.18275 1.01865,-0.43702 1.92865,-0.71335 2.02222,-0.61407 0.46906,0.49767 4.89897,13.45911 4.67484,13.67809 -0.0454,0.0443 -0.49919,-0.14275 -1.00852,-0.4157 z"
         id="path5978" />
    </g>
    <path
       style="opacity:0.26400003;fill:#89a02c;fill-opacity:1;stroke:none;stroke-width:0.17288916;stroke-miterlimit:4;stroke-dasharray:0.17288916, 0.34577832;stroke-dashoffset:0;stroke-opacity:1"
       d="m -466.65328,-7.7902596 c 2.74442,-0.081247 18.1441,-8.7445624 20.5219,-10.1173314 2.1383,-1.234494 15.85131,-9.38475 17.02203,-11.558618 1.30185,-2.417359 1.49889,-20.08538 1.49894,-22.831002 4e-5,-2.38443 -0.18852,-17.339142 -1.36981,-20.253877 l -75.17013,43.153319 c 1.68199,2.436701 16.62062,11.28557 18.9761,12.645568 2.13826,1.234571 16.05299,9.0350052 18.52097,8.9619414 z"
       id="path9769"
       inkscape:connector-curvature="0" />
    <g
       id="g9773"
       transform="matrix(0.69375982,0,0,0.69375982,-61.525661,0.48898157)">
      <path
         inkscape:connector-curvature="0"
         style="fill:#fafafa;stroke-width:0.10101996"
         d="m -592.01402,-46.193314 h -12.93055 c -0.59511,0 -1.07758,-0.482471 -1.07758,-1.077579 0,-0.595109 0.48247,-1.077479 1.07758,-1.077479 h 12.93055 c 0.59511,0 1.07758,0.482472 1.07758,1.07758 0,0.595108 -0.48247,1.077478 -1.07758,1.077478 z"
         id="path3639" />
      <path
         inkscape:connector-curvature="0"
         style="fill:#fafafa;stroke-width:0.10101996"
         d="m -598.47929,-39.728036 c -0.59511,0 -1.07758,-0.482472 -1.07758,-1.07758 V -53.73617 c 0,-0.595008 0.48247,-1.077479 1.07758,-1.077479 0.59511,0 1.07757,0.482471 1.07757,1.07758 v 12.930554 c -1e-4,0.595108 -0.48246,1.077479 -1.07757,1.077479 z"
         id="path3641" />
    </g>
    <g
       id="g9776"
       transform="matrix(0.69375982,0,0,0.69375982,-143.86421,6.5201501)">
      <path
         inkscape:connector-curvature="0"
         style="fill:#fafafa;stroke-width:0.10101996"
         d="m -448.26753,-73.58709 h -10.77539 c -0.59511,0 -1.07759,-0.482471 -1.07759,-1.077579 0,-0.595109 0.48248,-1.077479 1.07759,-1.077479 h 10.77549 c 0.59511,0 1.07758,0.482472 1.07758,1.07758 0,0.595108 -0.48257,1.077478 -1.07768,1.077478 z"
         id="path3643" />
    </g>
    <g
       id="g9780"
       transform="matrix(0.69375982,0,0,0.69375982,-116.59285,-6.85331)">
      <path
         inkscape:connector-curvature="0"
         style="fill:#fafafa;stroke-width:0.10101996"
         d="m -486.82394,-21.766932 c -0.3275,7.37e-4 -0.63763,-0.14759 -0.8426,-0.402968 l -8.62034,-10.775496 c -0.37196,-0.464792 -0.29669,-1.143041 0.1681,-1.514996 0.46479,-0.371955 1.14304,-0.296696 1.51499,0.168097 v 0 l 8.62034,10.775496 c 0.37135,0.464995 0.29538,1.143041 -0.16961,1.51439 -0.19052,0.152135 -0.42701,0.235174 -0.67088,0.235477 z"
         id="path3645" />
      <path
         inkscape:connector-curvature="0"
         style="fill:#fafafa;stroke-width:0.10101996"
         d="m -495.44427,-21.766932 c -0.59511,3.03e-4 -1.07779,-0.481764 -1.07819,-1.076974 -10e-5,-0.244569 0.0829,-0.481865 0.23548,-0.672994 l 8.62033,-10.775496 c 0.37196,-0.464792 1.05021,-0.540052 1.515,-0.168097 0.46479,0.371955 0.54005,1.050203 0.1681,1.514996 l -8.62024,10.775597 c -0.20456,0.254772 -0.51368,0.403069 -0.84048,0.402968 z"
         id="path3647" />
    </g>
    <path
       id="path3649"
       d="m -435.89579,-34.403417 c -0.26281,7e-5 -0.50636,-0.137854 -0.6414,-0.363313 l -4.48535,-7.475606 c -0.20625,-0.357637 -0.0835,-0.814792 0.27416,-1.021048 0.3486,-0.200999 0.7937,-0.09006 1.00718,0.251039 l 4.48535,7.475606 c 0.21306,0.353642 0.099,0.81304 -0.25462,1.026094 -0.11634,0.07008 -0.24949,0.107158 -0.38532,0.107228 z"
       style="fill:#fafafa;stroke-width:0.0700836"
       inkscape:connector-curvature="0" />
  </g>
</svg>
