<?xml version="1.0" encoding="UTF-8" standalone="no"?>
<!-- Created with Inkscape (http://www.inkscape.org/) -->

<svg
   xmlns:dc="http://purl.org/dc/elements/1.1/"
   xmlns:cc="http://creativecommons.org/ns#"
   xmlns:rdf="http://www.w3.org/1999/02/22-rdf-syntax-ns#"
   xmlns:svg="http://www.w3.org/2000/svg"
   xmlns="http://www.w3.org/2000/svg"
   xmlns:sodipodi="http://sodipodi.sourceforge.net/DTD/sodipodi-0.dtd"
   xmlns:inkscape="http://www.inkscape.org/namespaces/inkscape"
   width="44.855274mm"
   height="9.7749634mm"
   viewBox="0 0 44.855274 9.7749634"
   version="1.1"
   id="svg3753"
   inkscape:version="0.92.5 (2060ec1f9f, 2020-04-08)"
   sodipodi:docname="logo.svg">
  <defs
     id="defs3747" />
  <sodipodi:namedview
     id="base"
     pagecolor="#ffffff"
     bordercolor="#666666"
     borderopacity="1.0"
     inkscape:pageopacity="0.0"
     inkscape:pageshadow="2"
     inkscape:zoom="0.35"
     inkscape:cx="-135.23413"
     inkscape:cy="78.472391"
     inkscape:document-units="mm"
     inkscape:current-layer="layer1"
     showgrid="false"
     inkscape:window-width="1920"
     inkscape:window-height="968"
     inkscape:window-x="0"
     inkscape:window-y="27"
     inkscape:window-maximized="1" />
  <metadata
     id="metadata3750">
    <rdf:RDF>
      <cc:Work
         rdf:about="">
        <dc:format>image/svg+xml</dc:format>
        <dc:type
           rdf:resource="http://purl.org/dc/dcmitype/StillImage" />
        <dc:title></dc:title>
      </cc:Work>
    </rdf:RDF>
  </metadata>
  <g
     inkscape:label="Layer 1"
     inkscape:groupmode="layer"
     id="layer1"
     transform="translate(-5.5426006,-159.82086)">
    <text
       inkscape:export-ydpi="760.7547"
       inkscape:export-xdpi="760.7547"
       inkscape:export-filename="/home/ridwanzal/Desktop/Desktopfiles/launcrelaunch.png"
       id="text40620-4"
       y="166.97124"
       x="17.986952"
       style="font-style:normal;font-weight:normal;font-size:10.01453876px;line-height:1.25;font-family:sans-serif;letter-spacing:0px;word-spacing:0px;fill:#ffffff;fill-opacity:1;stroke:none;stroke-width:0.26458332"
       xml:space="preserve"><tspan
         style="font-style:normal;font-variant:normal;font-weight:800;font-stretch:normal;font-family:Montserrat;-inkscape-font-specification:'Montserrat Ultra-Bold';fill:#ffffff;fill-opacity:1;stroke-width:0.26458332"
         y="166.97124"
         x="17.986952"
         id="tspan40618-9"
         sodipodi:role="line">SIKAV</tspan></text>
    <text
       inkscape:export-ydpi="760.7547"
       inkscape:export-xdpi="760.7547"
       inkscape:export-filename="/home/ridwanzal/Desktop/Desktopfiles/launcrelaunch.png"
       id="text40624-6"
       y="169.29239"
       x="18.275652"
       style="font-style:normal;font-weight:normal;font-size:1.57323301px;line-height:1.25;font-family:sans-serif;letter-spacing:0px;word-spacing:0px;fill:#ffffff;fill-opacity:1;stroke:none;stroke-width:0.26458332"
       xml:space="preserve"><tspan
         style="font-style:normal;font-variant:normal;font-weight:normal;font-stretch:normal;font-family:'Clear Sans';-inkscape-font-specification:'Clear Sans';fill:#ffffff;stroke-width:0.26458332"
         y="169.29239"
         x="18.275652"
         id="tspan40622-5"
         sodipodi:role="line">Sistem Informasi Kalkulator Valuasi Teknologi</tspan></text>
    <path
       inkscape:export-ydpi="760.7547"
       inkscape:export-xdpi="760.7547"
       inkscape:export-filename="/home/ridwanzal/Desktop/Desktopfiles/launcrelaunch.png"
       style="fill:#ffd42a;fill-opacity:1;stroke-width:4.49617624"
       inkscape:connector-curvature="0"
       d="M 13.422586,169.56962 H 7.3610619 c -1.0043986,0 -1.8184613,-0.81406 -1.8184613,-1.81846 v -6.06152 c 0,-1.00441 0.8140627,-1.81846 1.8184613,-1.81846 h 6.0615241 c 1.004399,0 1.818462,0.81405 1.818462,1.81846 v 6.06152 c 0,1.0044 -0.814063,1.81846 -1.818462,1.81846 z"
       id="path40626-4" />
    <path
       inkscape:export-ydpi="760.7547"
       inkscape:export-xdpi="760.7547"
       inkscape:export-filename="/home/ridwanzal/Desktop/Desktopfiles/launcrelaunch.png"
       style="fill:#218838;fill-opacity:1;stroke-width:6.42369699"
       inkscape:connector-curvature="0"
       d="m 7.7214674,161.25635 c -0.4382088,0 -0.7936883,0.3555 -0.7936883,0.79371 v 2.52571 h 3.3198369 v -3.31942 z m 1.2990303,1.94853 H 8.731669 v 0.28882 c 0,0.11945 -0.097045,0.21648 -0.2165035,0.21648 -0.1194488,0 -0.2164935,-0.097 -0.2164935,-0.21648 v -0.28882 H 8.0102766 c -0.1194488,0 -0.2164936,-0.097 -0.2164936,-0.21649 0,-0.11945 0.097045,-0.21653 0.2164936,-0.21653 h 0.2888288 v -0.2888 c 0,-0.11944 0.097045,-0.2165 0.2165036,-0.2165 0.1194487,0 0.2164934,0.097 0.2164934,0.2165 v 0.2888 h 0.288829 c 0.1194488,0 0.2164934,0.097 0.2164934,0.21653 0,0.11945 -0.09734,0.21649 -0.2169271,0.21649 z"
       id="path40628-6" />
    <path
       inkscape:export-ydpi="760.7547"
       inkscape:export-xdpi="760.7547"
       inkscape:export-filename="/home/ridwanzal/Desktop/Desktopfiles/launcrelaunch.png"
       style="fill:#81ae37;fill-opacity:1;stroke-width:6.42369699"
       inkscape:connector-curvature="0"
       d="m 6.9277791,164.8646 v 2.52572 c 0,0.43864 0.3554795,0.79412 0.7936883,0.79412 h 2.5257356 v -3.31984 z m 2.1736846,1.86798 c 0.084434,0.0844 0.084434,0.22171 0,0.30613 -0.042463,0.0425 -0.097932,0.0632 -0.1532618,0.0632 -0.055468,0 -0.1109266,-0.0212 -0.1532715,-0.0632 l -0.2078435,-0.20783 -0.2078529,0.20783 c -0.041577,0.042 -0.097045,0.0632 -0.1523556,0.0632 -0.055468,0 -0.1109265,-0.0212 -0.1532616,-0.0632 -0.084434,-0.0844 -0.084434,-0.2217 0,-0.30613 l 0.2078531,-0.20783 -0.2078531,-0.20786 c -0.084434,-0.0844 -0.084434,-0.2217 0,-0.30613 0.084434,-0.0844 0.2216956,-0.0844 0.3061294,0 l 0.2078532,0.20786 0.2078432,-0.20786 c 0.084434,-0.0844 0.2216957,-0.0844 0.3061295,0 0.084434,0.0844 0.084434,0.2217 0,0.30613 l -0.2078532,0.20786 z"
       id="path40630-4" />
    <path
       inkscape:export-ydpi="760.7547"
       inkscape:export-xdpi="760.7547"
       inkscape:export-filename="/home/ridwanzal/Desktop/Desktopfiles/launcrelaunch.png"
       style="fill:#81ae37;fill-opacity:1;stroke-width:6.42369699"
       inkscape:connector-curvature="0"
       d="m 13.062181,161.25635 h -2.525736 v 3.31986 h 3.319424 v -2.52615 c 0,-0.43821 -0.355499,-0.79371 -0.793688,-0.79371 z m -0.14472,1.87621 h -1.29903 c -0.119449,0 -0.216484,-0.097 -0.216484,-0.2165 0,-0.11945 0.09704,-0.2165 0.216484,-0.2165 h 1.29903 c 0.119449,0 0.216503,0.097 0.216503,0.2165 0,0.11945 -0.09705,0.2165 -0.216503,0.2165 z"
       id="path40632-2" />
    <path
       inkscape:export-ydpi="760.7547"
       inkscape:export-xdpi="760.7547"
       inkscape:export-filename="/home/ridwanzal/Desktop/Desktopfiles/launcrelaunch.png"
       style="fill:#218838;fill-opacity:1;stroke-width:6.42369699"
       inkscape:connector-curvature="0"
       d="m 10.536012,164.8646 v 3.31984 h 2.525735 c 0.438623,0 0.794122,-0.35548 0.794122,-0.79369 v -2.52571 h -3.319857 z m 2.309646,2.30964 h -1.299011 c -0.119449,0 -0.216503,-0.097 -0.216503,-0.21649 0,-0.11944 0.09704,-0.2165 0.216503,-0.2165 h 1.299011 c 0.119448,0 0.216523,0.097 0.216523,0.2165 0,0.11945 -0.09705,0.21649 -0.216523,0.21649 z m 0,-0.86602 h -1.299011 c -0.119449,0 -0.216503,-0.097 -0.216503,-0.21649 0,-0.11945 0.09704,-0.2165 0.216503,-0.2165 h 1.299011 c 0.119448,0 0.216523,0.097 0.216523,0.2165 0,0.11945 -0.09705,0.21649 -0.216523,0.21649 z"
       id="path40634-5" />
  </g>
</svg>
