<?xml version="1.0" encoding="UTF-8" standalone="no"?>
<svg
   xmlns:dc="http://purl.org/dc/elements/1.1/"
   xmlns:cc="http://creativecommons.org/ns#"
   xmlns:rdf="http://www.w3.org/1999/02/22-rdf-syntax-ns#"
   xmlns:svg="http://www.w3.org/2000/svg"
   xmlns="http://www.w3.org/2000/svg"
   xmlns:sodipodi="http://sodipodi.sourceforge.net/DTD/sodipodi-0.dtd"
   xmlns:inkscape="http://www.inkscape.org/namespaces/inkscape"
   sodipodi:docname="logo.svg"
   inkscape:version="1.0 (1.0+r73+1)"
   id="svg5869"
   version="1.1"
   viewBox="0 0 146.53703 140.17117"
   height="140.17117mm"
   width="146.53703mm">
  <defs
     id="defs5863" />
  <sodipodi:namedview
     inkscape:window-maximized="1"
     inkscape:window-y="27"
     inkscape:window-x="67"
     inkscape:window-height="1025"
     inkscape:window-width="1853"
     showgrid="false"
     inkscape:document-rotation="0"
     inkscape:current-layer="layer1"
     inkscape:document-units="mm"
     inkscape:cy="491.85643"
     inkscape:cx="331.1578"
     inkscape:zoom="0.7"
     inkscape:pageshadow="2"
     inkscape:pageopacity="0.0"
     borderopacity="1.0"
     bordercolor="#666666"
     pagecolor="#ffffff"
     id="base" />
  <metadata
     id="metadata5866">
    <rdf:RDF>
      <cc:Work
         rdf:about="">
        <dc:format>image/svg+xml</dc:format>
        <dc:type
           rdf:resource="http://purl.org/dc/dcmitype/StillImage" />
        <dc:title></dc:title>
      </cc:Work>
    </rdf:RDF>
  </metadata>
  <g
     transform="translate(348.39873,38.737445)"
     id="layer1"
     inkscape:groupmode="layer"
     inkscape:label="Layer 1">
    <g
       id="g6056">
      <path
         style="fill:#ffffff;stroke-width:0.264583"
         d="m -282.37679,5.1205553 c -2.06178,-0.50194 -3.94322,-2.21416 -4.25414,-3.87154 -0.0986,-0.52539002 -0.12202,-1.74833002 -0.0521,-2.71764 0.53988,-7.48625 10.94601,-17.7537373 22.16563,-21.8703093 1.50289,-0.551424 2.63731,-0.760336 4.67539,-0.861013 2.40917,-0.119004 2.81974,-0.07061 3.92006,0.462042 1.75186,0.848058 2.55333,2.167102 2.71837,4.473834 0.5371,7.506586 -8.83575,18.45066628 -19.61644,22.9048863 -3.50524,1.44825 -7.28325,2.03322 -9.55676,1.47974 z"
         id="path6028" />
      <path
         style="fill:#ffffff;stroke-width:0.264583"
         d="m -262.14923,58.276575 c -3.8758,-0.59194 -6.85649,-2.436 -8.16273,-5.05002 -0.69506,-1.39094 -0.82004,-1.93914 -0.82004,-3.59707 0,-1.07581 0.18909,-2.78738 0.4202,-3.80348 l 0.42019,-1.84746 2.55637,-1.28522 c 4.19838,-2.11073 11.26111,-6.2374 15.99455,-9.34542 l 4.44235,-2.91689 0.68225,0.63149 c 2.59714,2.40392 8.81042,10.38718 11.83786,15.21009 l 1.47811,2.35474 -0.65328,0.53399 c -1.03948,0.84968 -6.9023,3.94246 -9.79422,5.16669 -7.3552,3.11364 -14.22148,4.58699 -18.40161,3.94856 z"
         id="path6026" />
      <path
         style="fill:#ffffff;stroke-width:0.264583"
         d="m -217.35543,-37.405187 c -0.18191,-0.0734 -0.47956,-0.0734 -0.66146,0 -0.1819,0.0734 -0.0331,0.133453 0.33073,0.133453 0.3638,0 0.51263,-0.06006 0.33073,-0.133453 z"
         id="path6024" />
      <path
         style="fill:#ffffff;stroke-width:0.264583"
         d="m -232.08793,-36.142466 c -0.092,-0.148849 -0.36311,-0.195482 -0.60247,-0.103629 -0.38257,0.146809 -0.37355,0.189386 0.0746,0.352107 0.59155,0.214776 0.76399,0.133602 0.52785,-0.248478 z"
         id="path6022" />
      <path
         style="fill:#ffffff;stroke-width:0.264583"
         d="m -210.34949,-35.537729 c -0.0879,-0.08792 -0.31612,-0.09732 -0.50712,-0.02088 -0.21106,0.08446 -0.14837,0.147156 0.15986,0.159851 0.27891,0.01148 0.43518,-0.05105 0.34726,-0.138964 z"
         id="path6020" />
      <path
         style="fill:#ffffff;stroke-width:0.264583"
         d="m -220.73075,-32.199846 c 0.0927,-0.149982 -0.0135,-0.194337 -0.24896,-0.103984 -0.45837,0.175892 -0.54224,0.365538 -0.16165,0.365538 0.13693,0 0.32171,-0.1177 0.41061,-0.261554 z"
         id="path6018" />
      <path
         style="fill:#ffffff;stroke-width:0.264583"
         d="m -210.64957,-8.9650447 c 0.27722,-0.31605 0.36537,-0.4939 0.1959,-0.39522 -0.16947,0.0987 -0.35832,0.0894 -0.41966,-0.0207 -0.0613,-0.11005 -0.0808,-0.0658 -0.0433,0.0984 0.0375,0.16417 -0.0653,0.43206 -0.22857,0.59532 -0.16326,0.16325 -0.23194,0.29682 -0.15263,0.29682 0.0793,0 0.37102,-0.25859 0.64823,-0.57464 z"
         id="path6016" />
      <path
         style="fill:#ffffff;stroke-width:0.264583"
         d="m -218.67835,7.3093753 c -0.1819,-0.0734 -0.47956,-0.0734 -0.66146,0 -0.1819,0.0734 -0.0331,0.13345 0.33073,0.13345 0.3638,0 0.51263,-0.0601 0.33073,-0.13345 z"
         id="path6014" />
      <path
         style="fill:#ffffff;stroke-width:0.264583"
         d="m -204.98616,7.7800453 c 0,-0.12855 -0.24493,-0.29777 -0.54429,-0.37606 -0.44661,-0.11679 -0.48828,-0.0748 -0.23219,0.23373 0.34933,0.42091 0.77648,0.49921 0.77648,0.14233 z"
         id="path6012" />
      <path
         style="fill:#ffffff;stroke-width:0.264583"
         d="m -214.60541,7.8036453 c -0.27012,-0.0573 -0.60657,0.0114 -0.74767,0.15244 -0.16566,0.16566 0.008,0.20254 0.49113,0.1041 0.55376,-0.11291 0.62029,-0.17944 0.25654,-0.25654 z"
         id="path6010" />
      <path
         style="fill:#ffffff;stroke-width:0.264583"
         d="m -234.75366,14.366785 c 0.0927,-0.14999 -0.0135,-0.19434 -0.24897,-0.10399 -0.45837,0.17589 -0.54223,0.36554 -0.16165,0.36554 0.13693,0 0.32171,-0.1177 0.41062,-0.26155 z"
         id="path6008" />
      <path
         style="fill:#ffffff;stroke-width:0.264583"
         d="m -235.53854,20.500265 c -0.0815,-0.0815 -0.29495,-1.7e-4 -0.47443,0.18065 -0.25936,0.26131 -0.22897,0.2917 0.14811,0.14812 0.26094,-0.0994 0.40778,-0.24731 0.32632,-0.32877 z"
         id="path6006" />
      <path
         style="fill:#ffffff;stroke-width:0.264583"
         d="m -237.13304,21.507505 c -0.0899,-0.14552 -0.30532,-0.26276 -0.47864,-0.26054 -0.18933,0.002 -0.1567,0.10643 0.0818,0.26054 0.50829,0.32848 0.59989,0.32848 0.39687,0 z"
         id="path6004" />
      <path
         style="fill:#ffffff;stroke-width:0.264583"
         d="m -248.11325,28.150395 c 0,-0.12996 -0.19543,-0.31127 -0.43429,-0.40293 -0.36314,-0.13935 -0.37951,-0.10064 -0.0999,0.23627 0.38103,0.45912 0.53419,0.5069 0.53419,0.16666 z"
         id="path6002" />
      <path
         style="fill:#ffffff;stroke-width:0.264583"
         d="m -217.68616,39.763755 c 0,-0.14552 -0.12609,-0.26459 -0.2802,-0.26459 -0.15411,0 -0.20662,0.11907 -0.11668,0.26459 0.0899,0.14552 0.21603,0.26458 0.2802,0.26458 0.0642,0 0.11668,-0.11906 0.11668,-0.26458 z"
         id="path6000" />
      <path
         style="fill:#ffffff;stroke-width:0.264583"
         d="m -220.99346,40.292915 c 0.0899,-0.14552 0.0374,-0.26458 -0.11667,-0.26458 -0.15411,0 -0.2802,0.11906 -0.2802,0.26458 0,0.14552 0.0525,0.26459 0.11668,0.26459 0.0642,0 0.19026,-0.11907 0.28019,-0.26459 z"
         id="path5998" />
      <path
         style="fill:#ffffff;stroke-width:0.264583"
         d="m -219.40596,40.822085 c 0.0899,-0.14552 0.0445,-0.26458 -0.10106,-0.26458 -0.14552,0 -0.33816,0.11906 -0.4281,0.26458 -0.0899,0.14552 -0.0445,0.26458 0.10106,0.26458 0.14552,0 0.33817,-0.11906 0.4281,-0.26458 z"
         id="path5996" />
      <path
         style="fill:#ffffff;stroke-width:0.264583"
         d="m -221.35658,41.946565 c 0.32911,-0.41965 0.31975,-0.429 -0.0999,-0.0999 -0.25466,0.19972 -0.46302,0.40808 -0.46302,0.46302 0,0.21777 0.21728,0.0776 0.56292,-0.36312 z"
         id="path5994" />
      <path
         style="fill:#ffffff;stroke-width:0.264583"
         d="m -205.62447,46.181005 c -0.0904,-0.0904 -0.31111,-0.006 -0.49058,0.18764 -0.25906,0.27937 -0.25816,0.31342 0.004,0.16518 0.18917,-0.1068 0.33966,-0.0385 0.35161,0.15962 0.0171,0.28445 0.0457,0.28429 0.15985,-7.9e-4 0.0764,-0.191 0.0651,-0.42119 -0.0253,-0.51153 z"
         id="path5992" />
      <path
         style="fill:#ffffff;stroke-width:0.264583"
         d="m -209.01632,51.140835 c 0.18176,-0.29104 0.23904,-0.52917 0.12729,-0.52917 -0.11175,0 -0.35189,0.23813 -0.53365,0.52917 -0.18176,0.29104 -0.23904,0.52917 -0.12729,0.52917 0.11175,0 0.3519,-0.23813 0.53365,-0.52917 z"
         id="path5990" />
      <path
         style="fill:#ffffff;stroke-width:0.264583"
         d="m -218.21533,58.549165 c 0.21828,-0.14106 0.27781,-0.25648 0.13229,-0.25648 -0.14552,0 -0.44318,0.11542 -0.66146,0.25648 -0.21828,0.14107 -0.27781,0.25648 -0.13229,0.25648 0.14552,0 0.44318,-0.11541 0.66146,-0.25648 z"
         id="path5988" />
      <path
         style="fill:#ffffff;stroke-width:0.264583"
         d="m -220.22696,59.827985 c -0.0749,-0.12127 -0.2483,-0.22048 -0.38524,-0.22048 -0.13693,0 -0.24896,0.0992 -0.24896,0.22048 0,0.12127 0.17335,0.22049 0.38523,0.22049 0.21188,0 0.32392,-0.0992 0.24897,-0.22049 z"
         id="path5986" />
      <path
         style="fill:#ffffff;stroke-width:0.264583"
         d="m -221.12575,60.809985 c 0,-0.20415 -0.78747,-0.36836 -0.89924,-0.18752 -0.0673,0.10896 0.10745,0.21542 0.38841,0.23659 0.28096,0.0212 0.51083,-8e-4 0.51083,-0.0491 z"
         id="path5984" />
      <path
         style="fill:#ffffff;stroke-width:0.264583"
         d="m -225.77857,62.584065 c -0.25197,-0.71319 -0.21761,-0.74553 1.73486,-1.63246 3.99884,-1.81651 7.42247,-4.11669 10.72333,-7.20447 0.90349,-0.84518 1.72948,-1.44993 1.83552,-1.34389 0.10603,0.10604 0.15311,0.0196 0.1046,-0.19205 -0.0485,-0.21167 0.079,-0.39026 0.28346,-0.39688 0.20441,-0.007 0.40435,-0.23485 0.44433,-0.5072 0.04,-0.27235 0.36996,-0.80813 0.73331,-1.19063 1.06579,-1.12192 3.53889,-5.23937 4.02371,-6.699 0.63357,-1.90751 0.40132,-4.15515 -0.55953,-5.41488 -0.98596,-1.29267 -3.21172,-2.28692 -5.17941,-2.31365 l -1.51932,-0.0206 -3.71395,3.65546 c -2.31751,2.281 -3.83163,3.58273 -4.0269,3.46205 -0.18693,-0.11553 -0.24296,-0.0802 -0.13915,0.0878 0.23063,0.37317 -3.98137,3.84962 -4.37178,3.60834 -0.1797,-0.11107 -0.22708,-0.0675 -0.11821,0.10866 0.1647,0.2665 -5.25578,4.33169 -5.82981,4.37217 -0.20582,0.0145 -1.39963,-1.87153 -1.40955,-2.22687 -0.002,-0.0858 0.26354,-0.28045 0.59096,-0.4326 1.01532,-0.47179 5.46308,-3.92304 8.36221,-6.48867 1.52127,-1.34627 2.8666,-2.418 2.98963,-2.38162 0.12302,0.0364 0.19391,-0.0355 0.15753,-0.15972 -0.0364,-0.12423 0.8955,-1.34462 2.07083,-2.71198 1.17534,-1.36736 2.64795,-3.18471 3.27247,-4.03856 0.62451,-0.85384 1.21068,-1.44916 1.3026,-1.32291 0.0919,0.12624 0.34572,0.26921 0.564,0.31772 0.21828,0.0485 0.30861,-7e-5 0.20073,-0.10795 -0.10787,-0.10788 -0.0483,-0.38569 0.1323,-0.61736 0.29159,-0.37397 0.27578,-0.37989 -0.14099,-0.0528 -0.88733,0.69644 -0.78965,0.0442 0.22898,-1.52903 0.56111,-0.8666 1.13104,-1.50714 1.26652,-1.42342 0.13547,0.0837 0.16931,0.0276 0.0752,-0.12462 -0.0941,-0.15226 0.2264,-0.93695 0.71223,-1.74375 1.47513,-2.44969 2.35388,-5.48963 2.38414,-8.24762 0.0229,-2.08455 -0.067,-2.58403 -0.72111,-4.00878 -0.41099,-0.89515 -1.08921,-1.95516 -1.50717,-2.35559 -0.41796,-0.40044 -0.68554,-0.85867 -0.59463,-1.0183 0.0909,-0.15963 0.0794,-0.21355 -0.0255,-0.1198 -0.10495,0.0937 -0.95482,-0.2277897 -1.88861,-0.7145097 -0.93378,-0.48672 -2.12894,-0.96583 -2.6559,-1.06469 -0.52696,-0.0989 -0.83809,-0.25358 -0.69138,-0.34383 0.1467,-0.0902 -1.04466,-0.12345 -2.64746,-0.0738 l -2.9142,0.0903 -5.06543,5.0903197 c -2.78599,2.79968 -5.9584,5.8621 -7.0498,6.80538 -4.08508,3.53064 -6.36624,5.27511 -6.66036,5.09333 -0.1756,-0.10852 -0.22808,-0.0685 -0.12622,0.0963 0.0997,0.16128 -1.14781,1.26181 -2.9127,2.56957 l -3.08705,2.28748 -1.54641,-1.53028 c -0.85053,-0.84165 -1.51572,-1.60989 -1.47819,-1.70719 0.16159,-0.41904 4.48271,-3.40845 4.71728,-3.26348 0.14236,0.088 0.22612,0.0468 0.18614,-0.0915 -0.1089,-0.37667 6.71785,-6.13985 7.04948,-5.95121 0.15738,0.0895 0.1934,0.0609 0.08,-0.0637 -0.24845,-0.273 3.2451,-3.86063 3.56617,-3.6622 0.12371,0.0764 0.19221,0.0219 0.15223,-0.12122 -0.04,-0.14312 0.46888,-0.83658 1.13081,-1.54102 1.39239,-1.48179 4.88532,-5.6238797 6.59217,-7.8173297 0.90029,-1.15695 1.25481,-1.44288 1.5181,-1.22437 0.23111,0.1918 0.34351,0.19512 0.34351,0.0102 0,-0.15122 -0.13981,-0.32154 -0.31069,-0.3785 -0.18934,-0.0631 0.14852,-0.76928 0.86499,-1.80798002 2.58254,-3.74398998 5.32622,-8.24083998 6.31366,-10.34797998 3.09626,-6.6072563 3.2105,-14.0949193 0.28248,-18.5154193 -2.02713,-3.060419 -5.63479,-5.3804 -10.06086,-6.469861 -2.13008,-0.524312 -6.88443,-0.665322 -10.58333,-0.313892 l -1.98438,0.188535 1.98438,-0.658178 c 4.51498,-1.497528 11.65267,-2.974422 16.53645,-3.421634 2.30858,-0.211399 6.03797,0.219451 8.4503,0.976249 2.10015,0.65886 5.08914,2.54979 4.95526,3.134844 -0.0485,0.211971 -7.9e-4,0.29804 0.10594,0.191265 0.28258,-0.282578 1.34731,0.959855 2.10653,2.458114 1.92007,3.789079 1.91382,8.50723 -0.0188,14.172158 -0.70845,2.076653 -4.09342,9.1349093 -4.74296,9.8899093 -0.18779,0.21828 -0.53946,0.78772 -0.78149,1.26542 -0.25802,0.50926 -0.56175,0.79333 -0.73424,0.68672 -0.187,-0.11557 -0.21916,-0.0604 -0.0883,0.15139 0.25768,0.41694 -3.42085,5.88455998 -6.72846,10.00089 -1.31535,1.63696 -2.39154,3.01941 -2.39154,3.07209 0,0.0527 1.13818,-0.17935 2.52929,-0.51566 7.69577,-1.86048 12.54416,-1.30553 15.30644,1.75198 1.28534,1.42272 1.74476,2.5503597 1.9276,4.7312597 0.26734,3.18878 -1.25696,7.62243 -4.4222,12.86265 -0.7468,1.23636 -1.45453,2.18816 -1.57273,2.11511 -0.1182,-0.073 -0.19859,0.0743 -0.17864,0.32735 0.0251,0.3182 -0.12698,0.43636 -0.49289,0.38299 -0.40381,-0.0589 -0.4421,-0.0185 -0.16161,0.17067 0.37534,0.25309 -0.45303,1.50476 -3.22833,4.87804 -0.57348,0.69705 -0.99278,1.31728 -0.93178,1.37828 0.061,0.061 0.82022,-0.0771 1.68715,-0.30697 2.26983,-0.60178 5.55348,-0.59322 6.80597,0.0177 0.623,0.30389 0.97004,0.64528 0.92605,0.91097 -0.0387,0.23371 0.10823,0.43048 0.32651,0.43725 0.21828,0.007 0.38055,0.21653 0.3606,0.46611 -0.0199,0.24959 0.0569,0.39623 0.17071,0.32587 0.31167,-0.19262 0.52702,0.56866 0.52702,1.86301 0,2.96865 -2.98295,8.34261 -6.97371,12.56356 -1.20199,1.27131 -1.59874,1.54447 -1.96276,1.35132 -0.31364,-0.16642 -0.56579,-0.12372 -0.80674,0.13662 -0.30002,0.32415 -0.24285,0.35188 0.39687,0.19252 0.70034,-0.17447 0.72241,-0.15557 0.35051,0.30026 -1.66421,2.03983 -8.63373,6.9587 -12.8879,9.09588 -1.42197,0.71436 -1.51024,0.70622 -1.81909,-0.16799 z"
         id="path5982" />
      <path
         style="fill:#ffffff;stroke-width:0.264583"
         d="m -236.26943,63.064825 c -2.26072,-0.73257 -3.6448,-2.47166 -3.63812,-4.57126 0.006,-1.8412 0.19326,-2.14106 1.92877,-3.08629 0.90172,-0.49111 2.69291,-1.55089 3.98043,-2.35506 1.89621,-1.18435 2.38977,-1.3917 2.59797,-1.09144 0.49749,0.71747 4.71838,9.3438 4.71838,9.64304 0,0.16663 -0.8632,0.57113 -1.91823,0.89888 -2.08981,0.64923 -6.42077,0.96667 -7.6692,0.56213 z"
         id="path5980" />
      <path
         style="fill:#ffffff;stroke-width:0.264583"
         d="m -221.9195,77.319585 c -1.70504,-0.91376 -6.28578,-2.62453 -9.52,-3.55544 -5.75405,-1.65619 -11.87512,-2.705 -20.37791,-3.49164 -7.19302,-0.66547 -27.89845,-0.66468 -37.43854,0.001 -17.34801,1.21127 -36.61515,3.55833 -53.80578,6.55444 -2.52631,0.4403 -4.651,0.74284 -4.72154,0.6723 -0.0705,-0.0705 0.81001,-1.35716 1.95678,-2.85915 9.60467,-12.57992 16.34706,-24.58743 19.8815,-35.40694 1.44433,-4.42133 1.84043,-6.06938 2.44289,-10.16417 2.02336,-13.75237 -1.92847,-25.3427097 -12.08808,-35.4532097 -3.17804,-3.16267 -3.25744,-3.0143 1.27982,-2.39165 34.12377,4.68287 60.79373,15.53832 80.42326,32.7346197 3.62858,3.17878 3.77856,2.54281 -1.34983,5.72367 -11.47544,7.11761 -23.4465,12.0049 -34.15131,13.94257 -3.49652,0.6329 -9.25722,0.63896 -12.03854,0.0126 -1.16417,-0.26215 -3.24464,-1.01883 -4.62326,-1.68151 -8.14957,-3.91735 -9.92392,-11.54765 -5.27957,-22.70387 0.45952,-1.10382 0.76771,-2.07472 0.68486,-2.15756 -0.0829,-0.0829 -1.17031,1.40745 -2.4166,3.31177 -8.77918,13.4146 -10.18046,23.38003 -4.1373,29.42319 4.62143,4.62143 13.63532,5.51075 25.29601,2.49573 5.01224,-1.29598 11.35976,-3.61147 16.93958,-6.17934 1.58859,-0.73108 2.9175,-1.30007 2.95314,-1.26443 0.0357,0.0356 -0.45757,1.07127 -1.09603,2.30139 -2.39999,4.62407 -3.21467,8.44056 -2.39998,11.243 0.83232,2.8631 2.54312,4.61821 5.58398,5.72861 2.18844,0.79914 6.83459,0.79469 10.61681,-0.0102 3.71574,-0.79069 8.94543,-2.64896 13.92487,-4.94793 2.88636,-1.3326 4.13112,-1.79565 4.00459,-1.48967 -1.83273,4.43176 -1.50295,6.88655 1.13334,8.43622 1.15191,0.67711 1.46777,0.73654 3.77076,0.70949 2.72708,-0.032 5.36416,-0.68144 8.86354,-2.18275 1.01865,-0.43702 1.92865,-0.71335 2.02222,-0.61407 0.46906,0.49767 4.89897,13.45911 4.67484,13.67809 -0.0454,0.0443 -0.49919,-0.14275 -1.00852,-0.4157 z"
         id="path5978" />
    </g>
  </g>
</svg>
