<?xml version="1.0" encoding="UTF-8" standalone="no"?>
<svg
   xmlns:dc="http://purl.org/dc/elements/1.1/"
   xmlns:cc="http://creativecommons.org/ns#"
   xmlns:rdf="http://www.w3.org/1999/02/22-rdf-syntax-ns#"
   xmlns:svg="http://www.w3.org/2000/svg"
   xmlns="http://www.w3.org/2000/svg"
   xmlns:sodipodi="http://sodipodi.sourceforge.net/DTD/sodipodi-0.dtd"
   xmlns:inkscape="http://www.inkscape.org/namespaces/inkscape"
   height="511pt"
   viewBox="0 0 511 511.99883"
   width="511pt"
   version="1.1"
   id="svg22"
   sodipodi:docname="process.svg"
   inkscape:version="0.92.5 (2060ec1f9f, 2020-04-08)">
  <metadata
     id="metadata28">
    <rdf:RDF>
      <cc:Work
         rdf:about="">
        <dc:format>image/svg+xml</dc:format>
        <dc:type
           rdf:resource="http://purl.org/dc/dcmitype/StillImage" />
      </cc:Work>
    </rdf:RDF>
  </metadata>
  <defs
     id="defs26" />
  <sodipodi:namedview
     pagecolor="#ffffff"
     bordercolor="#666666"
     borderopacity="1"
     objecttolerance="10"
     gridtolerance="10"
     guidetolerance="10"
     inkscape:pageopacity="0"
     inkscape:pageshadow="2"
     inkscape:window-width="1920"
     inkscape:window-height="964"
     id="namedview24"
     showgrid="false"
     inkscape:zoom="0.48985478"
     inkscape:cx="-380.56129"
     inkscape:cy="68.08648"
     inkscape:window-x="0"
     inkscape:window-y="27"
     inkscape:window-maximized="1"
     inkscape:current-layer="svg22" />
  <path
     d="m301.183594 290.496094c0 19.5-12.296875 35.699218-29.695313 42v13.5c0 8.398437-6.601562 14.996094-15 14.996094-8.402343 0-15-6.597657-15-14.996094v-13.199219c-17.398437-6.300781-30.296875-22.800781-30.296875-42.300781 0-8.398438 6.898438-15 14.996094-15 8.402344 0 15 6.601562 15 15 0 8.101562 6.898438 15 15 15h.300781c8.398438-.296875 14.699219-6.898438 14.699219-15 0-8.398438-6.300781-14.699219-14.699219-15h-.300781c-24.597656 0-44.996094-20.398438-44.996094-44.996094 0-19.800781 12.898438-36.296875 30.296875-42.296875v-22.199219c0-8.402344 6.597657-15 15-15 8.398438 0 15 6.597656 15 15v22.199219c17.398438 6.300781 29.695313 22.796875 29.695313 42.296875 0 8.101562-6.597656 15-14.996094 15-8.101562 0-15-6.898438-15-15 0-8.398438-6.300781-14.699219-14.699219-15h-.300781c-8.101562 0-15 6.601562-15 15 0 8.101562 6.898438 15 15 15h.300781c24.898438.300781 44.695313 20.097656 44.695313 44.996094zm0 0"
     fill="#fdbf00"
     id="path2" />
  <path
     style="fill:#0070ba;fill-opacity:0.97254902"
     inkscape:connector-curvature="0"
     id="path4"
     d="m 394.18359,429.39062 c -38.10156,33.29688 -87,51.59766 -137.69531,51.59766 v 16 c 0,11.09766 -11.69922,18.29688 -21.59765,13.5 l -74.9961,-46 c -11.10156,-5.69922 -11.10156,-21.30078 0,-27 l 74.9961,-44.99609 c 9.89843,-4.80078 21.29687,2.39844 21.59765,13.19922 v 15.29687 c 37.49609,0 73.49609,-13.79687 101.09375,-38.99609 6.89844,-6.30078 17.40234,-4.80078 22.5,2.69922 l 16.79688,24.89843 c 4.20312,6.30078 3.0039,14.69922 -2.69532,19.80078 z m 0,0" />
  <path
     style="fill:#0070ba;fill-opacity:0.97254902"
     inkscape:connector-curvature="0"
     id="path6"
     d="m 91.496094,255.98828 c 3.019531,0 17.999996,0 14.980466,0 11.14844,0 18.40235,-11.72266 13.41407,-21.69922 L 74.914062,159.29297 c -5.53125,-11.05469 -21.304687,-11.05469 -26.832031,0 L 2.101562,234.28906 C -2.882812,244.26562 4.367188,256 15.519531,256 c 3.019531,0 19,0 15.980469,0 0,50.67969 18.335938,99.60156 51.644531,137.74609 4.953125,5.69141 13.351563,6.79688 19.613279,2.6211 l 25.1211,-16.74219 c 3.63281,-2.42969 6.03515,-6.3125 6.5625,-10.66406 0.54296,-4.33594 -0.84766,-8.69922 -3.8086,-11.92188 -25.23437,-27.66797 -39.136716,-63.5664 -39.136716,-101.05078 z m 0,0" />
  <path
     style="fill:#0070ba;fill-opacity:0.97254902"
     inkscape:connector-curvature="0"
     id="path8"
     d="m 353.08203,74.507812 -74.99609,44.999998 c -9.89844,4.79688 -21.29688,-2.40234 -21.59766,-13.19922 V 91.007812 c -37.5,0 -73.49609,13.796878 -101.09375,38.999998 -6.60156,6.30078 -17.40234,5.09766 -22.5,-2.70312 l -16.80078,-24.89844 c -4.19922,-6.300781 -3,-14.699219 2.69922,-19.800781 38.10156,-33.296875 86.99609,-51.59375 137.69531,-51.59375 v -16 c 0,-11.097657 11.69922,-18.300781 21.59766,-13.5 l 74.99609,46 c 11.10156,5.695312 11.10156,21.296875 0,26.996093 z m 0,0" />
  <path
     d="m497.457031 256c-3.023437 0-19 0-15.980469 0 0-50.683594-18.339843-99.605469-51.648437-137.75-4.9375-5.695312-13.328125-6.824219-19.613281-2.621094l-25.105469 16.742188c-7.640625 5.113281-8.9375 15.804687-2.769531 22.589844 25.238281 27.667968 39.140625 63.554687 39.140625 101.039062-3.023438 0-18 0-14.980469 0-11.152344 0-18.402344 11.730469-13.417969 21.707031l44.980469 74.996094c5.527344 11.054687 21.304688 11.054687 26.832031 0l45.976563-74.996094c4.988281-9.976562-2.265625-21.707031-13.414063-21.707031zm0 0"
     id="path12"
     fill="#00c8c8"
     style="fill:#0088e3;fill-opacity:1" />
  <path
     d="m301.183594 290.496094c0 19.5-12.296875 35.699218-29.695313 42v13.5c0 8.398437-6.601562 14.996094-15 14.996094v-55.496094c8.398438-.296875 14.699219-6.898438 14.699219-15 0-8.398438-6.300781-14.699219-14.699219-15v-29.996094c24.898438.300781 44.695313 20.097656 44.695313 44.996094zm0 0"
     fill="#ff9100"
     id="path14" />
  <path
     d="m256.488281 215.5v-64.496094c8.398438 0 15 6.597656 15 15v22.199219c17.398438 6.300781 29.695313 22.796875 29.695313 42.296875 0 8.101562-6.597656 15-14.996094 15-8.101562 0-15-6.898438-15-15 0-8.398438-6.300781-14.699219-14.699219-15zm0 0"
     fill="#ff9100"
     id="path16" />
  <path
     d="m256.488281 106.308594v-91.296875c0-11.097657 11.699219-18.300781 21.597657-13.5l74.996093 46c11.101563 5.699219 11.101563 21.296875 0 27l-74.996093 44.996093c-9.898438 4.796876-21.296876-2.402343-21.597657-13.199218zm0 0"
     fill="#00c8c8"
     id="path18"
     style="fill:#0088e3;fill-opacity:1" />
  <path
     d="m394.183594 429.390625c-38.101563 33.296875-87 51.597656-137.695313 51.597656v-59.996093c37.496094 0 73.496094-13.800782 101.09375-39 6.898438-6.300782 17.402344-4.800782 22.5 2.699218l16.796875 24.898438c4.203125 6.300781 3.003906 14.699218-2.695312 19.800781zm0 0"
     fill="#00c8c8"
     id="path20"
     style="fill:#0088e3;fill-opacity:1" />
</svg>
